<?xml version="1.0" standalone="no"?>
<!DOCTYPE svg PUBLIC "-//W3C//DTD SVG 20010904//EN"
 "http://www.w3.org/TR/2001/REC-SVG-20010904/DTD/svg10.dtd">
<svg version="1.0" xmlns="http://www.w3.org/2000/svg"
 width="1000.000000pt" height="772.000000pt" viewBox="0 0 1000.000000 772.000000"
 preserveAspectRatio="xMidYMid meet">

<g transform="translate(0.000000,772.000000) scale(0.100000,-0.100000)"
fill="#000000" stroke="none">
<path d="M7958 7603 c-8 -10 -19 -25 -23 -33 -8 -13 -7 -13 9 -1 16 14 41 51
33 51 -2 0 -11 -8 -19 -17z"/>
<path d="M7905 7540 c-3 -5 -2 -10 4 -10 5 0 13 5 16 10 3 6 2 10 -4 10 -5 0
-13 -4 -16 -10z"/>
<path d="M8435 7540 c-3 -5 1 -10 9 -10 9 0 16 5 16 10 0 6 -4 10 -9 10 -6 0
-13 -4 -16 -10z"/>
<path d="M7881 7490 c1 -8 -1 -23 -6 -33 -20 -46 24 -18 55 35 9 15 6 17 -20
15 -20 -1 -30 -7 -29 -17z"/>
<path d="M8185 7470 c-3 -5 -1 -10 4 -10 6 0 11 5 11 10 0 6 -2 10 -4 10 -3 0
-8 -4 -11 -10z"/>
<path d="M7943 7458 c-23 -30 -24 -41 -2 -21 12 12 20 25 17 28 -3 3 -10 0
-15 -7z"/>
<path d="M8060 7390 c-52 -32 -112 -64 -132 -71 -21 -7 -38 -16 -38 -21 0 -4
-11 -8 -24 -8 -14 0 -28 -5 -32 -11 -4 -8 1 -9 17 -5 13 4 -4 -9 -39 -28 -35
-19 -77 -45 -95 -59 -18 -13 -44 -27 -58 -30 -14 -4 -43 -22 -65 -42 -21 -19
-42 -35 -47 -35 -4 0 -6 -4 -2 -9 3 -5 1 -12 -4 -15 -5 -3 -7 -14 -4 -25 3
-12 -2 -21 -14 -25 -14 -6 -16 -5 -5 5 16 17 15 29 -4 29 -8 0 -12 -4 -9 -10
3 -5 -1 -10 -10 -10 -12 0 -14 -4 -6 -19 6 -10 7 -21 4 -25 -3 -3 3 -6 15 -6
14 0 22 -6 22 -17 0 -13 -3 -14 -12 -5 -7 7 -25 12 -40 12 -21 0 -28 5 -28 20
0 13 -5 18 -15 14 -8 -4 -15 -12 -15 -20 0 -8 -5 -14 -11 -14 -5 0 -8 -4 -5
-9 3 -4 -1 -16 -8 -27 -12 -15 -16 -16 -30 -5 -14 12 -16 11 -18 -5 0 -11 -2
-24 -2 -31 -1 -7 -7 -18 -14 -25 -16 -16 -15 -28 2 -28 7 0 16 9 19 21 3 12
10 18 16 14 6 -3 11 0 11 8 0 14 31 47 44 47 3 0 11 -12 17 -27 11 -27 11 -27
19 -7 5 12 13 25 19 29 6 3 9 10 6 15 -3 4 2 10 10 14 9 3 15 0 15 -8 0 -8 6
-16 12 -18 9 -3 2 -18 -20 -42 -36 -42 -44 -71 -9 -38 12 11 52 34 89 50 36
17 71 39 77 49 9 15 10 15 11 2 0 -20 -27 -44 -59 -54 -28 -9 -71 -45 -53 -45
7 0 12 -9 12 -20 0 -11 -7 -20 -16 -20 -8 0 -13 -4 -9 -9 3 -6 -3 -14 -13 -20
-11 -6 -18 -19 -17 -33 1 -13 -2 -31 -7 -40 -7 -14 -4 -18 12 -18 23 0 24 -1
8 -35 -6 -14 -19 -25 -30 -25 -14 0 -18 8 -18 40 l0 40 -46 -35 c-55 -42 -73
-45 -66 -10 5 28 0 30 -29 15 -14 -8 -19 -21 -19 -54 0 -35 -6 -50 -35 -82
-24 -26 -32 -31 -24 -15 9 19 8 25 -2 32 -11 7 -9 10 9 15 12 4 22 13 22 20 0
19 -10 17 -40 -6 -14 -11 -34 -19 -45 -19 -17 1 -17 2 -2 6 9 2 17 8 17 13 0
5 9 12 20 15 11 4 18 11 15 16 -6 9 -42 -10 -77 -39 -17 -14 -16 -16 8 -39 21
-19 24 -26 14 -38 -7 -8 -18 -15 -25 -15 -8 0 -19 -13 -27 -30 -13 -31 -38
-41 -38 -15 0 10 -6 12 -17 8 -16 -6 -16 -5 -4 10 19 24 -2 21 -24 -3 -10 -11
-22 -20 -27 -20 -5 0 -18 -9 -30 -20 -12 -11 -32 -20 -45 -20 -13 0 -23 -4
-23 -10 0 -5 -11 -10 -25 -10 -32 0 -36 39 -5 47 13 4 20 14 20 30 l0 25 -28
-24 c-32 -26 -56 -69 -44 -77 19 -13 17 -37 -4 -59 -20 -21 -23 -22 -38 -6
-14 14 -15 18 -3 28 23 18 29 46 10 46 -26 0 -85 -41 -79 -56 3 -9 -7 -17 -32
-24 -50 -13 -52 -13 -52 11 0 13 10 23 30 30 17 6 30 15 30 20 0 15 -20 10
-50 -11 -16 -11 -35 -18 -42 -15 -9 4 -31 -13 -56 -40 -34 -37 -40 -50 -32
-65 7 -13 6 -19 -5 -24 -10 -4 -14 1 -12 17 1 16 -4 22 -20 23 -13 1 -23 -3
-23 -7 0 -5 -15 -9 -34 -9 -18 0 -50 -7 -69 -15 -20 -8 -50 -15 -66 -15 -29 0
-30 2 -21 26 13 33 13 34 -6 34 -8 0 -13 4 -10 9 9 13 -26 23 -38 11 -8 -8 -7
-13 3 -19 17 -11 5 -51 -15 -51 -8 0 -14 -7 -14 -15 0 -8 7 -15 16 -15 8 0 12
-4 9 -10 -3 -5 -22 -10 -42 -10 -31 0 -34 2 -23 15 11 13 10 18 -6 29 -23 17
-34 5 -34 -39 -1 -47 -50 -95 -97 -95 -17 0 -43 40 -43 66 0 7 -4 15 -9 18
-12 8 -41 -4 -41 -16 0 -5 5 -6 10 -3 6 3 10 -1 10 -10 0 -9 4 -14 9 -10 5 3
12 1 16 -5 3 -5 2 -10 -4 -10 -5 0 -15 -16 -21 -36 -8 -25 -16 -34 -27 -30 -8
3 -24 6 -36 7 -18 0 -15 3 10 12 47 18 51 27 11 27 -21 0 -46 -9 -62 -21 -18
-14 -34 -19 -51 -15 -33 8 -31 19 6 50 30 25 69 35 69 17 0 -5 8 -8 18 -6 9 2
19 4 21 4 2 1 -4 9 -13 20 -16 18 -16 20 11 40 57 42 4 19 -63 -27 -103 -73
-122 -81 -183 -76 -30 2 -63 6 -74 10 -11 4 -23 1 -28 -7 -4 -7 -11 -10 -15
-7 -4 4 8 15 26 25 18 10 53 37 77 61 25 23 61 51 81 61 20 10 46 29 57 41 16
18 6 15 -46 -14 -36 -20 -69 -33 -74 -29 -4 5 -5 2 -1 -4 4 -7 4 -14 -1 -14
-4 -1 -18 -3 -29 -4 -12 -1 -32 -10 -45 -19 -29 -20 -35 -20 -42 -2 -4 9 7 22
29 35 29 17 33 23 22 35 -7 7 -20 11 -28 9 -24 -8 3 10 107 73 51 30 95 59 98
64 3 5 -49 -22 -116 -60 -66 -39 -127 -70 -135 -70 -8 0 -15 -10 -15 -22 -1
-18 -2 -19 -6 -5 -3 10 -10 14 -16 11 -7 -4 6 10 28 30 l40 37 -77 -41 c-43
-23 -83 -40 -89 -38 -6 2 35 28 91 58 56 30 119 70 139 88 l36 33 -65 -36
c-156 -87 -247 -118 -258 -87 -2 7 -8 10 -13 6 -5 -3 -9 -1 -9 4 0 5 13 15 29
22 26 10 83 60 69 60 -3 0 -22 -7 -43 -16 -23 -9 -34 -11 -30 -3 5 7 1 9 -11
5 -11 -3 -33 -7 -49 -9 -17 -2 -41 -9 -53 -16 -13 -7 -32 -14 -44 -16 -11 -3
-39 -13 -62 -24 -22 -10 -54 -22 -70 -26 -16 -3 -40 -15 -54 -25 -13 -11 -40
-22 -61 -26 -31 -5 -92 -30 -163 -65 -10 -5 -23 -9 -30 -9 -12 0 -35 -10 -138
-61 -19 -9 -46 -20 -60 -24 -67 -20 -121 -48 -116 -62 5 -11 0 -13 -22 -8 -20
4 -33 1 -42 -10 -7 -8 -19 -15 -27 -15 -9 0 -13 -6 -10 -14 4 -10 -18 -24 -82
-49 -48 -20 -96 -35 -107 -34 -14 2 -20 -5 -22 -26 -2 -19 -11 -31 -27 -37
-13 -5 -43 -23 -67 -40 -30 -22 -51 -30 -71 -27 -15 2 -32 -2 -38 -10 -6 -7
-15 -13 -20 -13 -4 0 -19 -11 -33 -25 -29 -29 -86 -35 -86 -10 0 8 -4 15 -10
15 -19 0 -47 -32 -43 -49 2 -10 -5 -28 -17 -42 l-21 -24 6 28 c9 42 -1 48 -49
26 -24 -10 -51 -16 -59 -13 -10 3 -20 -3 -27 -15 -6 -12 -20 -21 -31 -21 -11
0 -28 -7 -36 -16 -9 -9 -25 -13 -36 -10 -23 6 -142 -42 -201 -81 -21 -14 -44
-26 -50 -27 -23 -3 -196 -97 -226 -123 -19 -16 -30 -33 -27 -43 2 -9 -4 -22
-13 -28 -12 -7 -16 -19 -13 -36 l5 -25 39 19 c21 11 48 20 60 20 14 0 0 -12
-41 -32 -60 -31 -63 -35 -65 -70 -1 -21 -1 -38 0 -38 2 0 28 12 59 26 32 14
60 24 63 20 3 -3 -12 -13 -33 -23 -22 -9 -52 -26 -67 -36 -25 -17 -28 -24 -22
-53 5 -27 3 -34 -10 -34 -8 0 -16 -9 -16 -20 -3 -41 -4 -45 -22 -48 -10 -2
-17 3 -17 11 0 8 -7 20 -15 27 -19 15 -65 5 -65 -15 0 -9 6 -12 15 -9 9 4 15
0 15 -10 0 -9 -4 -16 -10 -16 -17 0 -11 -28 8 -39 13 -8 14 -10 2 -11 -25 0
-43 17 -37 34 4 9 2 16 -4 16 -5 0 -7 11 -5 25 4 20 1 25 -15 25 -10 0 -19 -4
-19 -9 0 -16 -38 -23 -61 -10 -19 10 -25 9 -36 -7 -7 -10 -13 -12 -13 -6 0 7
-4 12 -10 12 -5 0 -10 -10 -10 -23 0 -31 -24 -62 -39 -53 -9 6 -8 11 5 21 19
13 12 51 -7 39 -6 -3 -15 0 -20 7 -6 11 -11 11 -21 1 -6 -6 -21 -12 -31 -12
-18 0 -18 1 -3 25 21 31 20 34 -5 32 -14 -1 -19 -7 -16 -19 3 -10 1 -18 -4
-18 -5 0 -9 -7 -9 -16 0 -11 -6 -14 -20 -9 -13 4 -31 0 -45 -9 -27 -18 -34
-39 -11 -30 8 3 17 1 20 -5 4 -5 -3 -12 -14 -16 -15 -5 -27 1 -44 22 -13 15
-24 32 -24 38 -1 14 -32 24 -84 24 -46 1 -64 -13 -33 -25 8 -4 15 -15 15 -26
0 -32 -34 -18 -38 15 -3 22 -7 27 -20 21 -50 -21 -95 -29 -99 -16 -5 14 -49
16 -58 2 -9 -14 -42 -13 -47 2 -9 25 -258 -44 -258 -71 0 -6 5 -11 10 -11 6 0
10 -4 10 -10 0 -5 -6 -7 -13 -4 -7 2 -24 -7 -37 -22 l-25 -26 51 7 c33 4 54 3
58 -4 5 -7 15 -4 28 9 12 11 28 20 35 20 7 0 13 7 13 16 0 13 -7 15 -36 10
-19 -4 -42 -10 -50 -13 -8 -3 -14 0 -14 6 0 6 8 11 18 11 9 0 35 7 57 15 49
17 108 20 85 4 -12 -9 -12 -10 3 -5 10 3 26 6 35 7 12 0 13 2 4 6 -24 9 21 32
64 33 27 0 46 -6 57 -18 34 -37 21 -46 -58 -43 -16 1 -45 -3 -62 -8 -18 -5
-35 -6 -38 -1 -8 14 -45 -1 -45 -19 0 -10 -21 -24 -62 -40 -94 -36 -128 -38
-162 -8 -25 22 -33 23 -69 15 -23 -5 -55 -8 -72 -7 -42 4 -58 -7 -45 -32 6
-11 8 -24 5 -29 -3 -5 -1 -12 5 -15 8 -5 8 -11 0 -20 -16 -20 -16 -75 1 -87
11 -7 11 -11 2 -15 -7 -2 -13 -13 -13 -24 0 -12 -7 -19 -19 -19 -11 0 -23 -5
-26 -10 -4 -6 -10 -8 -14 -5 -12 7 -101 -25 -101 -36 0 -5 10 -9 23 -9 18 0
19 -2 7 -10 -12 -8 -8 -10 15 -11 20 -1 23 -3 10 -5 -49 -11 -105 -27 -105
-31 0 -2 7 -11 15 -20 12 -12 24 -13 60 -5 25 5 45 6 45 2 0 -4 -21 -11 -46
-15 -80 -12 -95 -25 -22 -18 58 5 68 3 68 -10 0 -24 -18 -30 -50 -17 -27 11
-33 10 -62 -15 l-33 -28 58 7 c64 7 119 27 143 51 18 17 34 20 34 5 0 -5 7
-10 16 -10 11 0 14 6 10 18 -5 14 -3 13 9 -3 15 -19 14 -20 -26 -28 -23 -5
-49 -15 -56 -23 -14 -14 -29 -18 -48 -14 -23 4 -124 -13 -120 -20 3 -5 -3 -14
-12 -20 -14 -9 -3 -10 50 -5 37 3 67 3 67 1 0 -3 -26 -13 -57 -22 -89 -27 -89
-37 0 -30 42 3 77 4 77 1 0 -2 -27 -12 -60 -21 -68 -19 -86 -34 -41 -34 28 0
30 -2 19 -19 -7 -11 -20 -22 -30 -24 -19 -5 -38 -44 -31 -63 3 -7 22 -10 51
-8 35 3 42 2 27 -5 -11 -5 -30 -10 -43 -10 -21 -1 -45 -36 -36 -53 3 -4 34 -5
70 -3 77 5 77 -9 -1 -25 -56 -12 -66 -30 -16 -30 38 0 46 -11 22 -30 -12 -9
-20 -29 -21 -50 -4 -73 -1 -88 21 -93 18 -5 20 -11 15 -33 -5 -18 -3 -30 6
-36 8 -5 9 -11 3 -15 -14 -11 -17 -33 -5 -33 5 0 10 -7 10 -16 0 -15 10 -16
91 -10 88 7 92 6 116 -19 15 -14 24 -27 22 -30 -3 -2 -29 -5 -59 -7 -30 -2
-58 -7 -62 -13 -4 -5 -31 -10 -60 -11 -74 -3 -143 -35 -157 -75 -6 -17 -15
-28 -21 -24 -6 4 -10 -9 -10 -33 0 -37 -2 -39 -25 -34 -14 2 -24 7 -21 9 2 3
-4 13 -15 24 -23 23 -25 45 -4 53 8 3 15 13 15 23 0 15 2 15 14 -3 16 -22 30
-15 20 10 -4 10 -18 16 -38 16 -25 0 -35 -6 -44 -25 -11 -25 -32 -34 -32 -15
0 6 4 10 8 10 4 0 9 16 10 35 2 29 -1 35 -17 35 -11 0 -24 -7 -29 -17 -7 -11
-15 -14 -28 -8 -11 4 -48 9 -84 11 -36 2 -77 6 -92 10 -22 5 -28 3 -28 -9 0
-11 -9 -16 -27 -16 -16 0 -47 -3 -70 -7 -29 -4 -43 -2 -43 5 0 14 -176 8 -243
-9 -40 -11 -48 -16 -44 -32 3 -11 0 -22 -9 -25 -22 -8 -17 -32 9 -37 12 -3 31
-7 42 -9 11 -3 3 -5 -17 -6 -21 0 -38 -5 -38 -11 0 -5 6 -10 12 -10 7 0 3 -7
-9 -15 -23 -16 -37 -55 -20 -55 8 0 7 -4 -1 -12 -19 -19 -14 -28 16 -28 25 -1
26 -1 7 -12 -39 -21 -75 -62 -75 -84 0 -13 -4 -25 -10 -29 -11 -7 -9 -65 3
-65 4 0 2 -10 -5 -22 -15 -28 -19 -96 -7 -104 6 -3 5 -12 -3 -21 -10 -12 -9
-17 6 -25 13 -7 14 -13 6 -23 -8 -9 -6 -14 5 -19 14 -5 14 -9 0 -35 -20 -39
-19 -58 3 -70 9 -6 11 -11 5 -11 -16 0 -17 -40 -2 -40 7 0 9 -9 6 -22 -7 -26
8 -48 34 -48 22 0 23 -4 8 -31 -7 -15 -6 -28 5 -51 9 -17 13 -35 10 -40 -3 -5
4 -21 17 -34 18 -20 21 -27 10 -33 -9 -6 -10 -11 -2 -15 6 -4 11 -16 11 -27 0
-24 55 -59 93 -59 20 0 27 -5 27 -20 0 -11 4 -20 9 -20 4 0 6 -11 3 -25 -2
-14 0 -25 6 -25 6 0 8 -9 5 -20 -3 -11 -1 -20 5 -20 7 0 6 -14 -1 -41 -8 -35
-8 -44 5 -53 11 -8 13 -17 8 -27 -6 -9 -4 -25 4 -40 7 -14 15 -45 19 -69 3
-24 15 -56 26 -71 12 -16 21 -35 21 -42 0 -8 8 -25 19 -38 10 -13 16 -30 14
-36 -3 -7 0 -13 7 -13 6 0 10 -6 9 -12 -3 -28 15 -60 39 -69 17 -7 43 -6 79 2
67 15 77 7 59 -46 -11 -31 -12 -71 -5 -180 10 -181 41 -341 80 -417 5 -10 9
-27 9 -38 0 -11 11 -37 23 -58 13 -20 32 -59 42 -85 10 -26 31 -59 47 -72 30
-25 39 -27 138 -26 l55 0 -37 -12 c-37 -12 -60 -27 -41 -27 5 0 32 7 59 15 62
19 84 19 84 0 0 -10 10 -15 30 -15 17 0 30 -4 30 -10 0 -5 -6 -7 -14 -4 -8 3
-17 0 -21 -5 -3 -6 -11 -9 -16 -5 -6 3 -23 1 -39 -6 -22 -9 -33 -9 -50 0 -19
10 -26 9 -43 -9 -32 -32 -11 -43 47 -26 27 8 57 15 68 15 23 0 24 -19 1 -27
-10 -3 -37 -18 -60 -32 -66 -40 -51 -86 20 -65 21 7 43 6 66 -2 l34 -11 -29
-8 c-26 -7 -27 -8 -9 -15 18 -7 19 -8 3 -15 -10 -4 -15 -11 -12 -16 3 -5 -4
-22 -15 -37 l-20 -29 26 -36 c17 -25 34 -37 50 -37 13 0 22 -5 21 -12 -4 -16
63 -13 73 3 8 14 61 0 56 -15 -2 -6 -19 -12 -38 -14 -19 -1 -47 -8 -64 -14
-29 -12 -29 -12 -5 -18 l24 -6 -23 -21 c-23 -21 -23 -21 -3 -32 26 -14 89 -14
97 0 4 6 38 10 84 8 58 -1 301 20 367 32 21 4 34 -2 34 -15 0 -9 7 -12 20 -9
24 6 27 23 4 23 -11 0 -14 5 -9 17 3 10 9 31 12 46 7 33 36 51 69 43 21 -6 25
-2 30 23 4 19 11 28 19 25 19 -8 30 16 14 28 -10 7 -7 8 11 4 14 -3 28 -6 33
-6 4 0 7 -7 7 -15 0 -27 18 -15 22 15 3 17 1 30 -3 30 -4 0 -10 7 -13 15 -4
10 2 19 17 24 12 5 22 16 22 26 0 31 22 28 59 -9 19 -20 40 -36 45 -36 5 0 13
-5 17 -12 5 -8 2 -9 -10 -5 -15 6 -15 5 1 -17 9 -12 22 -23 28 -24 5 -1 34 -6
64 -11 30 -6 57 -8 61 -6 4 3 11 -14 14 -37 5 -30 10 -38 16 -29 4 8 6 20 3
28 -3 7 0 13 6 13 6 0 11 -9 11 -19 0 -11 5 -23 10 -26 17 -11 41 16 34 37 -5
17 -2 19 23 16 24 -2 28 -8 31 -36 2 -21 9 -32 19 -32 11 0 14 6 9 25 -6 22
-3 25 22 25 16 0 39 -9 52 -20 25 -22 45 -26 55 -11 3 5 22 7 43 4 30 -5 35
-3 25 8 -23 24 -14 29 50 29 38 0 57 4 48 9 -11 7 -11 10 0 15 8 3 4 3 -8 0
-16 -3 -23 1 -28 16 -4 12 -5 24 -2 26 7 7 37 -7 37 -17 0 -5 9 -9 21 -9 27 0
59 -18 59 -33 0 -8 -4 -7 -11 3 -8 11 -12 12 -16 3 -2 -7 -12 -14 -21 -14 -36
-3 46 -17 98 -17 53 0 54 0 20 10 -19 5 -39 13 -44 18 -13 13 31 22 53 11 11
-6 33 -8 49 -5 17 4 32 1 36 -5 4 -6 0 -11 -8 -11 -9 0 -16 -4 -16 -10 0 -22
-2 -25 -23 -37 -20 -11 -16 -12 28 -12 40 0 45 2 28 9 -25 10 -31 30 -9 30 8
0 17 8 20 17 8 21 -18 43 -51 43 -28 0 -29 10 -3 33 17 14 27 15 63 7 57 -13
56 -13 67 15 6 15 17 25 30 25 11 0 20 5 20 10 0 12 102 11 110 0 9 -13 53
-23 46 -11 -9 14 14 14 50 1 40 -16 40 -5 0 20 -43 26 -44 33 -9 49 21 10 28
9 34 -1 6 -9 9 -7 10 7 0 19 1 19 8 1 7 -19 8 -18 24 4 11 16 26 23 47 23 19
0 30 5 30 15 0 8 6 12 15 8 9 -3 15 0 15 10 0 11 8 14 24 12 16 -2 33 6 50 25
27 29 54 35 74 15 10 -10 17 -10 33 0 23 15 43 6 35 -15 -4 -9 -1 -13 6 -11 7
3 13 11 13 18 0 21 23 23 28 3 3 -10 5 -4 6 14 1 30 5 33 66 53 35 12 74 29
86 39 21 17 21 17 -15 13 -50 -6 -45 13 8 31 38 13 45 13 50 1 3 -8 10 -14 15
-14 6 0 8 7 5 15 -8 20 5 19 28 -2 10 -9 21 -13 26 -8 4 4 1 10 -5 12 -7 3
-13 13 -13 24 0 12 5 16 15 12 9 -3 22 2 29 12 8 11 18 15 26 10 7 -4 15 -2
20 4 4 7 32 15 63 18 56 6 57 6 57 -21 0 -29 16 -33 44 -13 16 12 17 16 5 35
-22 36 0 47 96 48 49 0 90 6 98 13 8 6 43 18 78 26 35 7 93 23 127 34 35 12
72 21 81 21 10 0 38 13 62 30 29 19 57 30 81 30 20 0 43 6 50 13 7 8 19 12 25
10 7 -3 21 1 32 7 15 8 27 8 41 0 15 -8 20 -8 20 2 0 7 9 24 20 38 17 23 22
24 50 13 27 -10 35 -9 67 13 20 13 44 24 55 24 15 0 17 -5 12 -28 -7 -25 -6
-26 10 -13 9 8 15 20 12 28 -10 25 31 53 79 55 25 0 45 4 45 8 0 3 18 16 40
29 22 12 40 17 40 12 0 -6 7 -11 15 -11 8 0 15 4 15 8 0 4 28 14 63 22 34 7
78 21 97 31 19 9 64 20 100 24 36 4 82 14 102 22 21 8 45 13 53 9 9 -3 15 0
15 8 0 14 39 26 103 30 21 2 43 11 50 20 7 10 32 20 55 23 23 3 45 10 48 14 3
5 14 9 25 9 10 0 19 5 19 11 0 7 9 9 23 5 14 -3 36 2 56 15 18 11 36 18 39 15
3 -3 10 4 16 17 7 12 21 22 32 22 12 1 40 9 63 20 34 15 44 16 51 6 13 -22 30
-3 24 27 -7 33 23 75 68 98 23 12 32 13 38 4 5 -9 9 -9 14 -1 4 6 16 11 27 11
23 0 25 22 4 40 -21 17 -11 28 52 56 67 29 77 30 63 5 -13 -25 -13 -61 0 -61
6 0 10 -12 10 -27 1 -25 2 -26 14 -10 15 19 41 23 51 7 10 -17 24 -2 18 20 -4
16 -2 19 11 14 11 -4 16 -1 16 10 0 9 7 16 14 16 15 0 58 51 69 82 3 9 2 30
-3 46 -5 20 -4 34 3 41 15 15 37 14 37 -3 0 -27 28 -24 56 5 32 34 48 37 39 9
-8 -26 -1 -25 35 2 21 15 30 30 30 50 0 23 11 36 23 26 2 -2 23 14 47 34 24
21 56 43 72 50 17 8 35 27 43 46 14 31 40 47 29 17 -5 -11 1 -15 17 -15 34 0
74 23 74 42 0 9 9 26 20 38 16 18 17 23 5 30 -17 10 -13 15 18 25 22 6 23 5
13 -14 -11 -19 -9 -21 14 -21 14 0 25 4 25 10 0 16 83 65 88 51 6 -19 29 -12
35 10 4 15 11 19 25 15 14 -5 21 -1 25 15 3 11 10 18 16 14 18 -10 161 107
161 132 0 20 -17 16 -62 -17 -22 -17 -46 -30 -52 -30 -6 0 2 11 19 23 16 12
45 35 63 51 29 25 31 31 17 38 -10 6 -21 6 -28 0 -16 -12 -67 -24 -67 -15 0
16 46 72 71 87 35 21 36 21 36 -11 0 -37 12 -63 29 -63 8 0 14 -5 14 -11 0 -8
5 -7 15 1 9 7 13 21 10 31 -5 13 0 20 18 24 13 4 30 5 38 3 9 -2 14 5 13 19 0
12 5 24 13 27 7 3 13 -1 13 -9 0 -18 11 -19 30 -2 8 6 5 0 -8 -14 -26 -30 -29
-49 -4 -27 9 9 27 19 40 23 16 4 21 12 17 22 -4 13 -3 14 10 3 13 -10 15 -9
15 8 0 12 -8 25 -17 31 -10 5 -16 11 -13 13 3 2 28 14 55 28 35 18 51 33 53
49 3 19 0 22 -13 17 -9 -3 -21 -6 -26 -6 -5 0 -9 -6 -9 -13 0 -7 -19 -20 -42
-30 -41 -18 -41 -18 -62 3 l-21 21 30 25 c17 13 26 24 22 24 -4 0 -3 10 4 21
8 15 8 19 0 15 -6 -4 -11 -2 -11 4 0 14 60 50 83 50 10 0 16 -4 13 -9 -4 -5
-3 -16 0 -25 5 -14 9 -14 35 -1 29 15 29 15 18 -9 -16 -35 -5 -60 19 -45 10 6
19 20 19 31 2 19 1 19 -18 3 -10 -10 -19 -15 -19 -10 0 17 35 33 51 24 12 -6
19 -4 24 8 5 14 8 15 15 4 6 -10 12 -5 25 20 21 39 128 149 145 149 9 0 9 -4
2 -13 -15 -18 13 -56 30 -39 9 9 8 12 -7 12 -17 0 -17 2 3 23 12 13 22 31 22
40 0 21 20 33 30 17 6 -9 10 -6 15 10 5 16 9 19 15 10 6 -9 13 -4 24 18 12 23
13 31 3 35 -8 3 -3 12 13 25 33 28 48 28 24 0 -17 -19 -17 -21 -2 -15 35 13
29 -15 -14 -61 -23 -26 -47 -47 -52 -47 -5 0 -10 -8 -12 -17 -4 -27 5 -22 58
35 39 42 48 47 42 27 -5 -20 -4 -22 6 -13 7 6 18 22 24 35 6 13 21 23 34 24
12 1 19 -3 16 -7 -3 -5 1 -16 9 -24 9 -8 17 -20 19 -27 3 -8 12 -4 26 10 13
13 28 20 34 16 7 -4 5 -10 -6 -16 -16 -9 -23 -38 -8 -38 19 0 32 27 33 70 0
57 12 122 21 118 3 -2 18 8 32 21 31 29 35 17 5 -15 -12 -12 -18 -27 -14 -33
14 -23 34 -9 51 36 10 26 32 60 49 75 32 29 71 38 62 14 -4 -10 4 -15 24 -18
19 -3 29 0 29 8 0 24 -12 44 -27 44 -19 0 -8 37 20 68 27 29 40 28 34 -3 -4
-24 -3 -24 13 -10 20 18 31 19 29 3 -3 -24 1 -38 10 -38 16 0 21 29 9 54 -11
26 -4 77 11 73 5 -1 17 7 25 18 15 20 15 20 16 -1 0 -12 -7 -27 -15 -34 -17
-14 -21 -85 -4 -74 6 3 8 17 5 30 -5 17 -2 26 9 30 8 4 15 13 15 21 0 8 8 13
18 11 13 -2 16 3 14 24 -2 19 5 32 25 48 16 12 29 17 31 11 5 -15 22 -3 22 15
0 20 27 48 32 33 2 -6 10 2 17 18 7 15 20 40 27 55 19 36 19 54 -1 38 -11 -9
-15 -9 -15 -1 0 7 -56 -45 -125 -115 -68 -71 -127 -125 -131 -121 -9 9 15 37
32 37 7 0 19 10 25 23 6 12 20 32 31 44 11 12 17 27 13 33 -4 6 5 29 19 50 14
22 26 44 26 49 0 6 9 15 21 21 11 7 18 14 15 18 -7 6 -76 -57 -76 -70 0 -14
-110 -121 -117 -115 -3 4 9 23 27 43 25 28 29 39 18 45 -10 7 -9 9 5 9 9 0 17
6 17 13 0 8 9 22 20 32 11 10 20 13 20 7 0 -29 23 -7 45 43 14 30 27 55 30 55
4 0 3 -5 0 -10 -3 -5 -1 -10 4 -10 6 0 12 10 13 23 0 12 2 33 3 47 1 14 7 35
13 47 16 28 15 33 -3 33 -8 0 -15 -3 -15 -7 0 -15 -87 -103 -101 -103 -8 1 -3
9 13 21 26 19 68 78 68 94 0 4 -19 -16 -41 -44 -23 -29 -47 -50 -54 -47 -16 6
-35 -13 -29 -29 3 -7 1 -16 -5 -20 -18 -10 -12 -25 7 -18 15 6 15 4 -2 -15
-23 -26 -41 -29 -32 -5 5 13 0 11 -18 -6 -18 -17 -26 -20 -26 -10 0 8 -12 20
-27 27 -25 11 -29 10 -45 -10 -15 -20 -15 -23 -2 -26 8 -2 22 2 31 10 14 11
16 11 8 -2 -4 -8 -15 -24 -24 -34 -9 -11 -10 -16 -3 -12 6 4 12 3 12 -1 0 -12
-63 -73 -75 -73 -6 0 -23 -16 -38 -35 -26 -32 -47 -39 -47 -14 0 6 5 7 11 3
16 -10 29 16 29 60 0 31 3 37 16 32 9 -3 18 -6 20 -6 2 0 4 -8 4 -17 1 -17 1
-17 11 -1 7 12 6 24 -1 37 -16 30 -12 65 10 92 34 42 64 69 76 69 7 0 21 12
33 28 17 23 23 25 39 15 17 -10 23 -9 38 8 10 11 12 19 6 19 -20 0 -14 14 33
74 25 32 45 65 45 74 0 10 -10 2 -25 -18 -26 -35 -55 -58 -55 -42 0 4 6 14 13
21 10 10 9 11 -4 6 -10 -4 -19 0 -23 10 -6 17 14 53 52 95 12 14 25 36 29 50
3 14 15 38 26 53 26 38 16 45 -14 10 -13 -16 -39 -39 -56 -51 l-33 -23 0 22 0
22 -22 -20 c-39 -35 -52 -39 -36 -12 7 13 20 29 28 36 11 9 12 12 2 13 -9 0
-11 7 -7 21 7 20 6 20 -25 4 -18 -9 -35 -14 -38 -10 -3 3 4 8 16 12 12 3 22
12 22 19 0 12 -5 11 -25 -2 -29 -19 -31 -29 -9 -42 14 -8 9 -15 -30 -42 -26
-17 -50 -29 -53 -26 -3 3 2 8 11 12 9 3 16 13 16 21 0 13 -3 13 -15 3 -12 -10
-15 -10 -15 0 0 7 39 53 88 103 48 50 73 79 56 65 -18 -14 -47 -42 -64 -62
-18 -20 -41 -41 -52 -47 -17 -9 -18 -7 -12 18 3 15 17 38 31 51 14 13 23 26
20 29 -3 3 -23 -11 -44 -30 -88 -83 -147 -127 -154 -115 -4 6 -5 18 -1 26 3
10 1 13 -6 8 -7 -4 -12 -14 -12 -22 0 -8 -3 -14 -8 -14 -4 0 -13 -12 -19 -27
-14 -32 -61 -68 -50 -39 6 14 3 15 -14 6 -18 -10 -18 -7 6 40 15 29 24 54 21
57 -2 3 -12 -10 -22 -29 -32 -63 -99 -158 -112 -158 -9 0 -10 4 0 19 15 24 -8
87 -26 72 -26 -22 -13 29 16 60 16 19 37 44 46 57 8 13 21 21 28 18 9 -3 14 2
14 12 1 20 20 47 35 48 22 1 75 27 75 35 0 5 -7 12 -16 16 -14 5 -14 7 3 17
37 20 81 63 87 84 8 23 26 30 26 10 0 -6 7 -3 15 8 13 16 14 16 9 2 -8 -22 9
-24 26 -3 21 25 32 17 25 -17 l-6 -33 25 29 c43 51 52 74 37 98 -10 17 -10 23
5 39 17 19 17 21 1 48 -23 39 -22 41 13 41 17 0 33 -7 39 -17 9 -16 11 -16 12
5 3 42 4 45 18 50 10 3 12 -3 7 -25 -5 -22 -2 -34 14 -48 20 -18 20 -18 20 6
0 18 3 21 9 10 7 -11 10 -7 13 14 2 24 9 31 35 36 18 3 36 2 42 -4 8 -8 11 -3
11 16 0 20 -4 25 -16 20 -14 -5 -15 -3 -4 16 6 13 9 30 6 38 -5 13 -4 14 8 4
21 -18 37 -4 30 24 -6 26 13 45 22 21 10 -26 27 -18 22 9 -6 31 5 40 22 20 17
-20 31 -19 23 3 -5 14 -3 15 8 5 22 -21 34 -15 35 20 2 55 9 87 19 95 6 4 10
12 11 17 0 6 4 27 8 48 6 26 4 47 -4 65 -7 15 -16 58 -21 96 -5 39 -13 72 -18
76 -6 3 -24 40 -40 82 -23 57 -31 92 -31 140 0 88 7 108 37 108 19 0 24 4 19
16 -3 8 0 30 8 48 18 43 5 68 -18 35 -15 -21 -16 -22 -16 -4 0 18 -1 17 -16
-4 -21 -29 -34 -13 -34 41 0 44 -15 57 -30 27 -21 -37 -44 -60 -85 -81 -40
-21 -40 -21 -22 0 24 26 3 35 -33 14 -15 -8 -10 0 15 22 21 20 45 34 52 32 7
-3 13 1 13 9 0 7 14 29 30 47 28 30 30 31 30 10 0 -12 5 -22 10 -22 11 0 14
40 3 40 -5 0 -14 4 -21 9 -11 7 -10 16 7 50 12 22 28 41 36 41 9 0 15 9 15 24
0 17 8 26 33 34 17 5 25 10 16 11 -12 1 -15 13 -12 63 2 34 8 67 13 72 14 14
13 -9 -1 -37 -7 -14 3 -7 27 17 25 24 34 40 26 43 -6 3 -10 9 -7 14 4 5 2 16
-3 25 -7 13 -13 11 -37 -18 -16 -18 -32 -32 -37 -30 -4 1 -8 -6 -8 -15 0 -22
-49 -93 -64 -92 -7 0 -6 3 2 6 6 2 12 16 12 29 0 14 7 41 16 62 9 20 20 48 25
62 l10 24 -22 -19 -22 -20 8 25 c4 14 13 35 21 47 28 44 13 37 -34 -16 -44
-49 -49 -53 -64 -38 -15 16 -28 13 -28 -5 0 -5 5 -6 10 -3 20 12 10 -24 -14
-52 l-25 -28 5 49 c7 57 -6 55 -37 -7 -12 -23 -57 -81 -99 -129 -55 -62 -77
-94 -73 -107 6 -22 -55 -87 -95 -102 -25 -10 -26 -11 -9 -23 17 -13 15 -46 -3
-46 -5 0 -16 -3 -25 -7 -14 -5 -16 -2 -11 15 6 17 4 21 -7 16 -8 -3 -18 0 -22
6 -5 8 -11 8 -21 -1 -8 -6 -18 -9 -22 -4 -4 4 10 22 32 40 23 19 34 35 28 39
-6 3 -13 2 -17 -4 -3 -5 -11 -10 -16 -10 -6 0 -7 5 -4 10 9 14 -8 13 -23 -2
-9 -9 -12 -8 -12 4 0 9 12 26 26 37 18 14 24 26 19 40 -4 15 5 32 34 64 46 50
55 73 14 36 -15 -13 -21 -16 -14 -6 30 38 1 25 -41 -20 -25 -27 -52 -49 -61
-51 -26 -5 -20 13 9 27 15 6 24 14 21 17 -3 3 -15 0 -27 -6 -11 -6 -29 -9 -38
-7 -13 3 -11 7 11 17 15 7 27 17 27 21 0 5 -15 0 -32 -10 -18 -11 -44 -22 -58
-26 -23 -6 -22 -4 10 27 19 19 35 43 35 53 0 11 11 30 25 43 l25 22 -45 -20
c-50 -22 -85 -25 -95 -10 -3 6 -11 10 -16 10 -6 0 -8 -3 -6 -7 3 -5 -10 -8
-28 -9 -19 0 -32 3 -29 8 3 4 14 8 25 8 10 0 19 6 19 14 0 8 12 19 28 24 15 6
21 11 14 11 -11 1 -11 3 0 14 7 7 21 16 31 20 16 6 25 27 11 27 -4 0 -61 -17
-128 -39 -66 -21 -187 -55 -268 -76 -111 -28 -148 -42 -148 -53 0 -12 -3 -13
-11 -5 -8 8 -20 8 -36 2 -29 -11 -43 -5 -43 18 0 14 -2 14 -20 -2 -11 -10 -38
-19 -60 -21 -37 -3 -40 -2 -41 24 -1 15 0 32 1 37 5 17 3 39 -5 68 -5 18 -3
27 5 27 22 0 69 40 64 54 -3 8 0 17 7 22 7 4 10 3 5 -4 -3 -6 -2 -13 4 -17 5
-3 10 -3 10 2 0 4 17 26 37 48 21 22 44 51 51 65 7 13 22 40 34 60 l20 35 -31
-35 c-25 -29 -32 -32 -40 -20 -7 10 -6 19 4 30 10 11 11 20 3 33 -7 13 -7 22
1 30 6 6 11 20 11 31 0 18 -3 17 -30 -9 l-30 -29 0 25 c0 29 42 94 70 109 27
15 17 29 -16 22 -24 -4 -25 -3 -15 16 17 32 14 40 -16 44 -25 3 -28 6 -25 38
2 19 9 37 15 39 18 7 67 58 67 71 0 13 -59 -26 -78 -52 -18 -25 -35 -23 -27 5
3 12 3 17 -2 11 -12 -16 -54 -37 -61 -30 -3 4 11 20 31 37 20 17 37 35 37 41
0 6 -8 4 -18 -5 -31 -28 -38 -19 -9 11 17 18 23 32 18 41 -5 7 -6 22 -3 34 4
15 2 18 -8 12 -10 -6 -11 -4 -5 11 12 30 18 64 11 64 -4 0 -24 -11 -44 -25
-45 -31 -57 -32 -38 -2 8 12 17 31 20 42 5 19 2 21 -29 17 -19 -2 -38 -8 -41
-13 -9 -15 -20 -10 -21 10 -1 11 9 27 22 35 16 11 22 22 18 32 -4 11 2 23 18
35 13 10 20 21 17 25 -4 4 -42 -16 -84 -45 -72 -48 -114 -63 -114 -41 0 6 3
10 8 10 4 0 21 11 37 25 22 18 26 24 13 25 -10 0 -26 -10 -38 -22 -11 -12 -20
-16 -20 -10 0 6 18 24 40 38 43 28 48 44 8 23 -21 -11 -22 -11 -9 4 19 24 17
23 -89 -43z m-140 -192 c0 -8 -20 -22 -24 -17 -2 2 -7 14 -11 27 -6 22 -5 22
14 10 12 -7 21 -16 21 -20z m440 -38 c0 -5 -2 -10 -4 -10 -3 0 -8 5 -11 10 -3
6 -1 10 4 10 6 0 11 -4 11 -10z m-570 -59 c0 -12 -20 -25 -27 -18 -7 7 6 27
18 27 5 0 9 -4 9 -9z m-86 -97 c20 -8 21 -24 1 -24 -8 0 -15 5 -15 11 0 5 -5
7 -10 4 -6 -4 -8 -11 -5 -16 4 -5 -3 -9 -14 -9 -11 0 -22 -9 -26 -21 -5 -16
-10 -18 -18 -9 -9 8 -4 18 21 41 34 30 41 33 66 23z m106 -102 c0 -4 -9 -13
-20 -20 -16 -10 -20 -10 -20 2 0 8 6 17 13 19 19 8 27 8 27 -1z m-180 -45 c0
-18 -36 -51 -44 -39 -6 10 21 52 35 52 5 0 9 -6 9 -13z m163 -37 c-3 -11 -9
-20 -14 -20 -5 0 -9 -6 -9 -14 0 -7 -8 -20 -17 -27 -16 -13 -17 -12 -4 4 12
15 11 17 -3 17 -23 0 -8 27 25 45 13 7 25 13 26 14 0 1 -1 -8 -4 -19z m-88
-50 c-18 -19 -17 -20 2 -20 19 0 19 -3 -8 -31 -32 -34 -48 -34 -29 0 8 15 8
21 0 21 -6 0 -9 4 -6 9 4 5 0 12 -6 14 -8 3 -5 6 5 6 10 1 25 8 34 16 22 23
30 9 8 -15z m-90 -50 c4 -12 1 -28 -6 -36 -6 -8 -9 -18 -5 -21 4 -4 11 -1 16
7 6 8 10 10 10 4 0 -6 -9 -19 -20 -29 -20 -18 -21 -18 -38 0 -12 13 -13 16 -2
10 12 -6 13 -5 3 6 -18 19 -16 59 2 59 8 0 15 5 15 10 0 18 19 10 25 -10z
m-190 -100 c-8 -16 -22 -33 -30 -38 -13 -7 -14 -14 -5 -37 11 -30 1 -53 -19
-41 -8 5 -8 13 -1 27 9 15 7 19 -5 19 -27 0 -16 23 28 62 23 20 43 37 45 38 1
0 -4 -13 -13 -30z m40 -10 c-3 -5 -13 -10 -21 -10 -8 0 -12 5 -9 10 3 6 13 10
21 10 8 0 12 -4 9 -10z m-50 -70 c3 -5 1 -10 -4 -10 -6 0 -11 5 -11 10 0 6 2
10 4 10 3 0 8 -4 11 -10z m-145 -53 c0 -2 -9 -14 -20 -27 -19 -22 -20 -22 -20
-3 0 11 3 23 7 26 7 7 33 10 33 4z m1050 -37 c0 -5 -2 -10 -4 -10 -3 0 -8 5
-11 10 -3 6 -1 10 4 10 6 0 11 -4 11 -10z m1377 -61 c-7 -18 -29 -51 -50 -75
-24 -27 -40 -57 -44 -81 l-6 -38 32 39 c31 39 41 63 19 50 -6 -4 3 11 22 34
18 23 35 40 37 38 10 -10 -100 -187 -115 -185 -25 4 -42 -3 -42 -17 0 -14 3
-14 15 -4 20 17 19 1 -3 -32 -21 -32 -141 -158 -150 -158 -4 0 -13 -9 -19 -20
-7 -11 -26 -26 -43 -35 -27 -14 -30 -14 -40 4 -5 11 -10 21 -10 23 0 7 76 88
83 88 12 0 -7 -35 -30 -53 -22 -18 -33 -44 -13 -32 6 3 10 0 10 -7 0 -7 8 -1
17 12 9 14 38 48 65 77 26 28 48 56 48 62 0 6 16 18 35 27 20 9 32 21 28 27
-5 8 -8 7 -11 -1 -2 -7 -10 -12 -17 -12 -8 0 -29 -18 -46 -40 -18 -22 -36 -40
-41 -40 -11 0 47 92 72 115 20 18 21 18 14 0 -5 -13 -4 -16 4 -11 16 10 55 86
48 94 -3 3 -6 1 -6 -5 0 -6 -7 -13 -15 -17 -13 -5 -14 -2 -4 15 6 12 20 24 30
26 10 3 19 12 19 19 0 8 5 14 10 14 6 0 10 7 10 15 0 8 9 24 20 35 11 11 20
25 20 30 0 6 6 10 14 10 7 0 16 9 19 20 3 11 10 20 15 20 7 0 6 -11 -1 -31z
m-125 -41 c-7 -7 -12 -20 -12 -29 0 -17 -39 -53 -48 -44 -3 2 10 24 29 49 19
24 36 42 38 40 3 -2 -1 -10 -7 -16z m-1345 -37 c1 -41 -3 -51 -23 -61 -19 -11
-25 -10 -38 3 -23 23 -20 29 13 22 21 -4 30 -2 34 9 4 10 1 16 -9 16 -13 0
-13 4 1 30 9 17 17 30 18 30 2 0 4 -22 4 -49z m-1440 23 c-3 -3 -12 -4 -19 -1
-8 3 -5 6 6 6 11 1 17 -2 13 -5z m2975 -46 c-3 -12 -39 -56 -79 -97 -71 -73
-73 -74 -54 -34 11 23 38 54 59 69 22 15 46 41 55 56 19 34 27 36 19 6z m-967
-38 c-3 -5 -11 -10 -16 -10 -6 0 -7 5 -4 10 3 6 11 10 16 10 6 0 7 -4 4 -10z
m915 -83 c0 -18 -92 -150 -107 -155 -25 -8 -12 16 32 60 29 29 45 54 45 70 0
14 3 28 7 31 11 11 23 8 23 -6z m-824 -15 c-5 -9 -66 -23 -66 -15 0 5 65 31
69 27 1 -1 0 -7 -3 -12z m548 -19 c-14 -10 -20 -11 -23 -2 -2 7 5 18 15 26 14
10 20 11 23 2 2 -7 -5 -18 -15 -26z m-4594 7 c0 -5 -9 -10 -21 -10 -11 0 -17
5 -14 10 3 6 13 10 21 10 8 0 14 -4 14 -10z m3940 -20 c0 -5 -4 -10 -10 -10
-5 0 -10 5 -10 10 0 6 5 10 10 10 6 0 10 -4 10 -10z m-3675 -61 c-55 -28 -108
-50 -117 -50 -9 0 -22 -7 -28 -14 -6 -8 -17 -12 -24 -9 -7 3 -19 -2 -26 -11
-7 -8 -20 -15 -29 -15 -9 0 -25 -8 -36 -16 -19 -15 -19 -16 14 -12 l33 5 -23
-18 c-32 -25 -83 -41 -111 -37 -21 4 -20 5 7 13 17 4 36 13 43 18 11 9 11 12
-5 18 -13 5 8 19 87 58 97 48 282 120 305 120 6 0 -35 -23 -90 -50z m-305 -39
c0 -5 -7 -10 -15 -10 -8 0 -15 5 -15 10 0 6 7 10 15 10 8 0 15 -4 15 -10z
m3981 -26 c-19 -8 -42 -13 -50 -11 -22 5 25 26 59 26 22 0 21 -1 -9 -15z
m-217 -29 c-7 -18 -47 -30 -70 -21 -21 8 -8 25 15 19 10 -3 22 0 25 6 11 17
36 13 30 -4z m-3802 -57 c-9 -9 -15 -9 -24 0 -10 10 -10 15 2 22 20 12 38 -6
22 -22z m-98 -4 c8 -21 8 -21 -14 -27 -11 -3 -20 -1 -20 3 0 16 12 40 20 40 4
0 11 -7 14 -16z m4056 1 c-7 -8 -18 -15 -24 -15 -7 0 -28 -9 -49 -19 -20 -10
-39 -16 -42 -11 -6 10 5 20 25 20 9 0 25 9 35 20 22 24 75 29 55 5z m-4123
-20 c-4 -8 -11 -15 -17 -15 -7 0 -7 6 0 21 13 23 26 19 17 -6z m4690 -5 c-3
-11 0 -20 6 -20 6 0 8 -3 5 -6 -9 -8 -59 27 -52 37 3 5 14 9 26 9 15 0 19 -5
15 -20z m273 16 c0 -3 -4 -8 -10 -11 -5 -3 -10 -1 -10 4 0 6 5 11 10 11 6 0
10 -2 10 -4z m200 -32 c0 -8 -4 -12 -10 -9 -5 3 -10 13 -10 21 0 8 5 12 10 9
6 -3 10 -13 10 -21z m-5505 -4 c-3 -5 -11 -10 -16 -10 -6 0 -7 5 -4 10 3 6 11
10 16 10 6 0 7 -4 4 -10z m4330 -12 c-6 -14 -75 -21 -75 -8 0 11 19 18 52 19
18 1 26 -3 23 -11z m910 -10 c-7 -25 -41 -58 -59 -58 -6 1 1 8 17 16 15 8 27
23 27 33 0 16 8 31 17 31 3 0 1 -10 -2 -22z m-5105 -10 c0 23 18 12 23 -14 6
-34 -18 -43 -44 -17 -13 13 -17 26 -13 38 7 17 8 17 21 -1 7 -10 13 -12 13 -6z
m-100 -2 c0 -3 -6 -11 -14 -19 -10 -9 -11 -18 -4 -28 7 -11 11 -11 15 -1 2 6
9 10 14 6 5 -3 7 -10 4 -15 -17 -26 -81 14 -70 44 6 14 55 26 55 13z m-120
-66 c0 -10 -9 -24 -20 -30 -11 -6 -20 -19 -20 -30 0 -10 -5 -22 -11 -25 -18
-12 -20 1 -4 31 8 16 15 36 15 45 0 19 9 29 27 29 7 0 13 -9 13 -20z m4540
-65 c0 -2 -10 -9 -22 -15 -22 -11 -22 -10 -4 4 21 17 26 19 26 11z m-4685 -45
c15 0 8 -45 -10 -60 -9 -8 -17 -4 -29 14 -10 17 -12 27 -5 32 6 3 8 18 5 33
l-6 26 16 -22 c9 -13 22 -23 29 -23z m-144 -2 c0 -13 3 -17 6 -10 4 10 11 8
28 -8 25 -24 23 -50 -4 -50 -21 0 -121 -43 -121 -52 0 -5 5 -8 11 -8 8 0 8 -5
-1 -15 -7 -8 -18 -15 -26 -15 -14 0 -39 -38 -30 -47 9 -9 26 8 19 20 -3 7 4 3
16 -8 12 -11 18 -21 12 -23 -6 -2 -11 -10 -11 -17 0 -7 -7 -15 -15 -19 -8 -3
-12 -12 -9 -19 3 -10 -4 -16 -20 -19 -19 -4 -26 -1 -26 11 0 9 -9 22 -20 29
-12 7 -20 8 -20 2 0 -5 -9 -10 -20 -10 -22 0 -25 -12 -10 -40 8 -16 6 -22 -14
-35 -32 -21 -61 -16 -61 10 0 18 -6 20 -50 17 l-50 -3 24 21 c13 11 31 20 41
20 11 0 22 11 28 28 7 17 11 21 11 10 1 -25 27 -22 45 4 9 12 16 17 16 10 0
-7 4 -11 9 -8 5 4 11 0 14 -6 3 -10 7 -10 20 1 14 11 17 11 18 0 0 -8 4 -5 9
6 5 12 3 28 -4 40 -7 11 -11 39 -8 62 4 40 5 41 29 32 26 -9 47 -4 38 11 -6
10 20 32 37 29 27 -3 38 1 38 16 0 8 7 15 15 15 8 0 15 9 15 20 0 28 20 25 21
-2z m5306 -135 c-9 -9 -20 -13 -24 -9 -4 4 -1 11 7 16 25 16 35 11 17 -7z
m-5792 -30 c-11 -7 -22 -13 -27 -13 -14 0 -8 19 9 29 25 13 40 1 18 -16z m410
-92 c-16 -10 -32 -17 -34 -15 -7 7 33 33 49 34 8 0 2 -8 -15 -19z m4980 -20
c3 -5 1 -12 -5 -16 -5 -3 -10 1 -10 9 0 18 6 21 15 7z m93 -15 c-3 -20 -37
-37 -100 -50 -15 -4 -38 -17 -50 -30 -13 -13 -40 -29 -60 -34 -58 -16 -46 5
20 35 31 14 79 43 105 64 53 41 90 48 85 15z m752 -46 c0 -10 8 -24 18 -30 13
-8 9 -9 -19 -4 -22 3 -47 1 -60 -6 -19 -10 -17 -5 10 24 39 41 51 45 51 16z
m-177 -56 c-65 -54 -55 -89 11 -39 42 32 51 31 52 -5 1 -17 -2 -30 -6 -30 -4
0 -10 -10 -14 -23 -6 -25 -55 -54 -65 -39 -3 4 -16 8 -29 8 -27 0 -37 -30 -28
-81 l7 -35 32 17 c18 9 37 16 43 15 7 -1 14 7 17 18 3 11 13 20 25 20 11 0 25
7 33 16 7 8 26 22 43 31 17 9 36 23 43 32 6 9 14 13 18 9 8 -8 -17 -33 -105
-103 -34 -27 -74 -61 -88 -73 l-27 -24 30 19 c46 30 55 35 55 29 0 -11 -276
-214 -292 -215 -5 -1 -8 5 -8 13 0 8 -5 16 -12 18 -20 7 0 58 22 58 11 0 20 5
20 10 0 6 11 15 25 20 13 5 32 16 42 25 10 9 29 25 43 36 l25 19 -24 20 c-31
27 -41 25 -42 -7 0 -16 -3 -22 -6 -15 -7 19 -22 14 -16 -6 2 -10 -3 -25 -13
-33 -16 -12 -17 -12 -11 3 3 10 2 20 -2 22 -13 8 12 88 38 124 29 38 48 41 60
10 8 -20 10 -21 16 -5 4 9 5 23 2 31 -3 7 1 23 9 35 9 12 11 21 5 21 -23 0 -9
19 41 54 67 46 86 46 31 0z m157 -49 c0 -8 -2 -15 -4 -15 -2 0 -6 7 -10 15 -3
8 -1 15 4 15 6 0 10 -7 10 -15z m-6500 -5 c-8 -5 -19 -10 -25 -10 -5 0 -3 5 5
10 8 5 20 10 25 10 6 0 3 -5 -5 -10z m5480 1 c0 -5 -9 -11 -20 -14 -11 -3 -20
-1 -20 3 0 5 8 11 18 13 9 3 18 5 20 6 1 0 2 -3 2 -8z m-50 -21 c0 -5 -9 -10
-20 -10 -11 0 -20 5 -20 10 0 6 9 10 20 10 11 0 20 -4 20 -10z m422 -22 c-7
-7 -12 -8 -12 -2 0 14 12 26 19 19 2 -3 -1 -11 -7 -17z m714 -42 c-22 -17 -54
-46 -72 -63 -18 -18 -38 -33 -44 -33 -6 0 -15 -11 -20 -24 -5 -13 -18 -27 -29
-31 -12 -3 -21 -15 -21 -26 0 -10 -7 -19 -15 -19 -22 0 -18 14 12 50 38 46
214 192 222 184 3 -3 -12 -20 -33 -38z m-458 5 c-13 -17 -28 -30 -35 -30 -6
-1 -14 -7 -16 -13 -3 -8 -6 -6 -6 5 -1 22 42 67 64 67 14 0 12 -5 -7 -29z
m-553 -11 c-3 -5 -11 -10 -16 -10 -6 0 -7 5 -4 10 3 6 11 10 16 10 6 0 7 -4 4
-10z m234 -43 c-2 -1 -13 -9 -24 -17 -19 -14 -19 -14 -6 3 7 9 18 17 24 17 6
0 8 -1 6 -3z m328 -139 c-3 -7 -5 -2 -5 12 0 14 2 19 5 13 2 -7 2 -19 0 -25z
m-6563 -50 c-4 -6 1 -8 16 -3 19 6 22 4 17 -10 -4 -9 -7 -21 -7 -26 0 -15 -27
-10 -34 7 -10 25 -7 56 4 49 6 -4 7 -11 4 -17z m-818 -3 c-11 -8 -29 -15 -40
-14 -15 0 -11 4 14 14 45 17 49 17 26 0z m284 -14 c0 -28 -13 -33 -39 -15 -26
18 -19 34 15 34 17 0 24 -5 24 -19z m70 -31 c0 -5 -4 -10 -10 -10 -5 0 -10 5
-10 10 0 6 5 10 10 10 6 0 10 -4 10 -10z m7160 6 c0 -3 -4 -8 -10 -11 -5 -3
-10 -1 -10 4 0 6 5 11 10 11 6 0 10 -2 10 -4z m-70 -21 c-7 -8 -17 -15 -22
-15 -6 0 -5 7 2 15 7 8 17 15 22 15 6 0 5 -7 -2 -15z m-6517 -15 c-3 -11 -9
-17 -14 -14 -14 8 -10 34 5 34 9 0 12 -7 9 -20z m-103 -10 c-11 -20 -30 -28
-30 -12 0 11 22 32 32 32 5 0 4 -9 -2 -20z m6643 -21 c5 -17 11 -20 31 -15 19
5 26 2 26 -9 0 -8 -3 -14 -7 -13 -14 4 -53 -13 -53 -23 0 -10 -30 -12 -54 -3
-14 5 -14 8 -1 21 9 8 12 19 9 24 -5 9 22 38 37 39 4 0 9 -10 12 -21z m-7113
2 c0 -6 -4 -13 -10 -16 -5 -3 -10 1 -10 9 0 9 5 16 10 16 6 0 10 -4 10 -9z
m7187 -23 c-3 -8 -6 -5 -6 6 -1 11 2 17 5 13 3 -3 4 -12 1 -19z m-7777 -18 c0
-5 -8 -10 -17 -10 -15 0 -16 2 -3 10 19 12 20 12 20 0z m228 3 c-10 -2 -26 -2
-35 0 -10 3 -2 5 17 5 19 0 27 -2 18 -5z m7126 -2 c5 -7 -55 -51 -69 -51 -13
0 11 33 34 45 32 17 29 17 35 6z m-7199 -11 c-3 -5 -12 -10 -20 -10 -8 0 -17
5 -20 10 -4 6 5 10 20 10 15 0 24 -4 20 -10z m7395 -25 c-7 -8 -17 -15 -22
-15 -6 0 -5 7 2 15 7 8 17 15 22 15 6 0 5 -7 -2 -15z m18 -76 c-3 -25 -34 -36
-64 -25 -11 4 -7 13 18 35 35 32 52 28 46 -10z m-210 -31 c-3 -7 -14 -17 -25
-22 -12 -6 -27 -23 -35 -40 -7 -16 -20 -32 -28 -34 -12 -4 -11 -1 3 15 9 11
17 23 17 28 0 12 51 65 63 65 5 0 7 -6 5 -12z m-7112 -183 c-11 -8 -38 -15
-60 -15 -38 1 -40 2 -22 15 11 8 38 15 60 15 38 -1 40 -2 22 -15z m7444 -19
c0 -2 -8 -10 -17 -17 -16 -13 -17 -12 -4 4 13 16 21 21 21 13z m-55 -56 c-3
-5 -10 -10 -16 -10 -5 0 -9 5 -9 10 0 6 7 10 16 10 8 0 12 -4 9 -10z m-397
-28 c-16 -9 -28 -24 -28 -33 0 -9 -7 -19 -15 -23 -8 -3 -15 -11 -15 -18 0 -7
-17 -21 -38 -31 -24 -12 -42 -29 -49 -48 -6 -16 -20 -32 -30 -35 -10 -4 -30
-18 -45 -32 -16 -14 -28 -22 -28 -18 0 5 -15 -6 -32 -23 -18 -18 -44 -43 -58
-56 -33 -32 -50 -32 -50 -1 0 16 -7 27 -20 31 -23 7 -27 35 -5 35 8 0 17 11
21 25 5 19 13 25 34 25 19 0 36 10 53 29 14 17 27 28 30 25 3 -3 26 11 52 30
25 20 55 36 66 36 25 0 24 -12 -1 -28 -11 -7 -20 -20 -20 -29 0 -10 15 1 42
30 23 26 47 47 53 47 6 0 20 7 31 16 16 13 16 15 2 10 -10 -3 -18 -3 -18 -1 0
7 74 54 85 54 6 0 -2 -7 -17 -17z m62 -47 c-47 -48 -66 -60 -34 -22 46 55 58
67 68 67 6 0 -10 -20 -34 -45z m525 26 c-3 -6 -11 -11 -17 -11 -6 0 -6 6 2 15
14 17 26 13 15 -4z m-175 -4 c0 -19 -31 -44 -53 -44 -15 0 -13 5 10 29 29 31
43 35 43 15z m-7847 -24 c-7 -2 -19 -2 -25 0 -7 3 -2 5 12 5 14 0 19 -2 13 -5z
m7592 -3 c-3 -5 -11 -10 -16 -10 -6 0 -7 5 -4 10 3 6 11 10 16 10 6 0 7 -4 4
-10z m188 -80 c-44 -33 -55 -23 -21 19 18 22 27 26 41 19 17 -9 15 -13 -20
-38z m-363 -9 c-12 -17 -26 -31 -31 -31 -5 0 3 16 18 35 33 41 44 38 13 -4z
m657 -43 c-16 -10 -21 -2 -13 19 6 15 9 15 16 3 6 -9 5 -17 -3 -22z m43 2 c0
-5 -5 -10 -11 -10 -5 0 -7 5 -4 10 3 6 8 10 11 10 2 0 4 -4 4 -10z m-35 -40
c-3 -5 -11 -10 -16 -10 -6 0 -7 5 -4 10 3 6 11 10 16 10 6 0 7 -4 4 -10z
m-348 -6 c-3 -3 -12 -4 -19 -1 -8 3 -5 6 6 6 11 1 17 -2 13 -5z m-743 -38 c-3
-8 -12 -12 -20 -9 -21 8 -17 23 6 23 13 0 18 -5 14 -14z m716 10 c0 -2 -7 -7
-16 -10 -8 -3 -12 -2 -9 4 6 10 25 14 25 6z m-7763 -12 c-3 -3 -12 -4 -19 -1
-8 3 -5 6 6 6 11 1 17 -2 13 -5z m76 -1 c-7 -2 -19 -2 -25 0 -7 3 -2 5 12 5
14 0 19 -2 13 -5z m6908 -106 c-7 -7 -12 -5 -16 6 -3 9 -7 24 -10 32 -4 13 -9
14 -24 5 -12 -6 -18 -16 -15 -25 6 -15 -46 -75 -65 -75 -20 0 -11 30 15 46 14
10 23 23 20 31 -7 17 8 34 49 55 l29 16 14 -40 c9 -28 10 -44 3 -51z m262 86
c-7 -2 -13 -10 -13 -17 0 -7 -9 -21 -20 -31 -11 -10 -20 -14 -20 -8 0 16 40
63 53 62 8 0 8 -2 0 -6z m-224 -25 c-11 -20 -29 -15 -29 7 0 8 9 13 19 12 16
-1 18 -5 10 -19z m1006 12 c3 -5 2 -10 -4 -10 -5 0 -13 5 -16 10 -3 6 -2 10 4
10 5 0 13 -4 16 -10z m-575 -34 c0 -2 -8 -10 -17 -17 -16 -13 -17 -12 -4 4 13
16 21 21 21 13z m180 -21 c0 -8 -4 -15 -10 -15 -5 0 -10 7 -10 15 0 8 5 15 10
15 6 0 10 -7 10 -15z m230 5 c0 -5 -9 -14 -20 -20 -23 -12 -28 -42 -5 -34 42
16 -24 -77 -83 -118 -76 -52 -82 0 -7 58 19 14 35 35 35 46 0 10 14 32 30 48
31 30 50 38 50 20z m-770 -4 c0 -3 -4 -8 -10 -11 -5 -3 -10 -1 -10 4 0 6 5 11
10 11 6 0 10 -2 10 -4z m260 -36 c-6 -11 -13 -20 -16 -20 -2 0 0 9 6 20 6 11
13 20 16 20 2 0 0 -9 -6 -20z m560 -60 c-12 -16 -26 -30 -31 -30 -12 0 32 59
44 59 5 1 -1 -12 -13 -29z m-221 -27 c-57 -66 -83 -93 -91 -93 -14 0 42 73 75
96 42 30 45 30 16 -3z m412 13 c-6 -8 -22 -16 -34 -20 -21 -5 -21 -4 3 14 29
23 48 26 31 6z m-101 -91 c-55 -56 -75 -65 -46 -20 14 21 80 72 96 74 2 1 -20
-24 -50 -54z m360 45 c0 -14 -80 -100 -92 -100 -5 0 12 25 37 55 49 57 55 62
55 45z m-487 -66 c16 16 17 16 17 -4 0 -11 -8 -24 -17 -27 -10 -4 -32 -17 -49
-30 -41 -31 -56 -29 -21 3 15 14 25 29 22 35 -4 5 -1 9 4 9 6 0 11 8 12 18 0
15 1 15 8 -2 7 -17 8 -17 24 -2z m197 11 c0 -2 -10 -10 -22 -16 -21 -11 -22
-11 -9 4 13 16 31 23 31 12z m-500 -23 c0 -19 -74 -94 -161 -165 -54 -43 -109
-60 -109 -32 0 12 6 16 19 12 15 -3 23 2 30 22 17 45 39 67 53 53 16 -16 31
-15 25 1 -6 16 11 47 26 47 7 0 21 14 30 30 22 37 40 39 31 4 -10 -40 18 -26
30 14 10 35 26 43 26 14z m515 -22 c-4 -6 -1 -17 5 -25 7 -8 9 -22 6 -32 -4
-9 -1 -20 5 -24 16 -9 4 -26 -33 -45 -30 -16 -31 -15 -25 5 3 12 2 21 -1 21
-14 0 -6 56 12 83 17 25 46 41 31 17z m55 -14 c0 -3 -4 -8 -10 -11 -5 -3 -10
-1 -10 4 0 6 5 11 10 11 6 0 10 -2 10 -4z m-270 -41 c-12 -13 -27 -23 -33 -22
-6 1 -11 -4 -12 -12 0 -20 -25 -27 -25 -7 0 14 81 78 89 70 3 -2 -6 -15 -19
-29z m-670 -9 c0 -3 -4 -8 -10 -11 -5 -3 -10 -1 -10 4 0 6 5 11 10 11 6 0 10
-2 10 -4z m721 -34 c-5 -9 -12 -25 -15 -35 -3 -9 -14 -20 -23 -24 -10 -3 -37
-21 -60 -40 -33 -26 -43 -30 -43 -18 0 9 9 19 20 22 18 5 24 15 22 35 -1 3 5
12 13 18 8 7 15 18 15 25 0 7 7 16 16 19 8 3 12 2 9 -4 -3 -6 -2 -10 4 -10 6
0 15 9 21 20 6 11 15 18 20 15 6 -4 6 -13 1 -23z m-891 -57 c-7 -8 -17 -15
-23 -15 -5 0 -2 9 8 20 21 23 35 19 15 -5z m970 11 c0 -7 -7 -19 -15 -26 -16
-13 -20 -3 -9 24 8 20 24 21 24 2z m-91 -28 c-9 -16 -14 -19 -17 -9 -2 7 2 17
9 22 20 13 21 11 8 -13z m31 -47 c0 -12 -20 -25 -27 -18 -7 7 6 27 18 27 5 0
9 -4 9 -9z m-490 -31 c0 -11 -16 -37 -35 -59 -27 -30 -40 -37 -60 -33 -16 3
-25 0 -25 -9 0 -7 -3 -9 -7 -6 -3 4 -15 0 -25 -10 -21 -19 -23 -9 -7 36 10 29
39 44 39 20 0 -5 5 -7 10 -4 6 3 10 1 10 -5 0 -6 4 -9 9 -6 4 3 6 17 3 31 -5
31 15 57 39 50 9 -3 20 -1 24 5 10 17 25 11 25 -10z m220 11 c0 -6 -4 -13 -10
-16 -5 -3 -10 1 -10 9 0 9 5 16 10 16 6 0 10 -4 10 -9z m70 -53 c-36 -29 -46
-21 -15 12 19 19 31 26 34 19 2 -7 -6 -21 -19 -31z m-550 4 c0 -10 -7 -27 -15
-38 -16 -21 -20 -8 -9 34 8 26 24 29 24 4z m696 6 c8 -12 -21 -38 -43 -38 -23
0 6 49 29 50 4 0 10 -5 14 -12z m-126 -28 c0 -5 -5 -10 -11 -10 -5 0 -7 5 -4
10 3 6 8 10 11 10 2 0 4 -4 4 -10z m-8337 -7 c-7 -2 -21 -2 -30 0 -10 3 -4 5
12 5 17 0 24 -2 18 -5z m7826 -59 c-22 -27 -34 2 -13 33 19 28 19 28 22 5 2
-13 -2 -30 -9 -38z m-109 31 c0 -9 -9 -15 -25 -15 -29 0 -34 16 -7 23 30 8 32
7 32 -8z m340 5 c0 -5 -5 -10 -11 -10 -5 0 -7 5 -4 10 3 6 8 10 11 10 2 0 4
-4 4 -10z m-295 -41 c-3 -8 -18 -22 -33 -31 -26 -16 -27 -16 -28 8 -2 25 11
33 18 12 6 -18 28 1 28 25 0 14 3 18 10 11 6 -6 8 -17 5 -25z m-125 -15 c0
-10 6 -14 15 -10 21 8 19 -8 -5 -29 -19 -18 -20 -17 -20 5 0 16 -4 20 -15 16
-13 -4 -14 -2 -5 14 13 24 30 26 30 4z m-185 -4 c-3 -5 -12 -10 -18 -10 -7 0
-6 4 3 10 19 12 23 12 15 0z m695 2 c0 -10 -22 -32 -32 -32 -13 0 -9 28 5 33
19 8 27 8 27 -1z m-294 -11 c27 22 28 -2 1 -28 -20 -20 -30 -24 -38 -16 -8 8
-7 17 2 34 8 15 14 19 17 11 3 -10 7 -10 18 -1z m124 -1 c0 -5 -5 -10 -11 -10
-5 0 -7 5 -4 10 3 6 8 10 11 10 2 0 4 -4 4 -10z m-226 -39 c-10 -17 -24 -31
-31 -31 -7 0 -13 -5 -13 -12 0 -6 -3 -8 -6 -5 -7 6 57 86 64 81 2 -1 -4 -16
-14 -33z m606 29 c0 -5 -2 -10 -4 -10 -3 0 -8 5 -11 10 -3 6 -1 10 4 10 6 0
11 -4 11 -10z m-276 -18 c-6 -4 -13 -15 -17 -24 -7 -19 -37 -25 -37 -8 0 6 6
10 13 10 7 0 18 9 25 21 7 12 16 18 20 14 3 -3 2 -9 -4 -13z m-8417 -8 c-3 -3
-12 -4 -19 -1 -8 3 -5 6 6 6 11 1 17 -2 13 -5z m8333 -103 c-6 -12 -17 -21
-25 -21 -8 0 -15 -7 -15 -15 0 -18 -52 -46 -68 -36 -9 5 -7 12 8 26 13 12 20
14 20 5 0 -10 3 -10 15 0 8 7 15 19 15 26 0 12 51 46 58 39 2 -2 -1 -13 -8
-24z m-390 -21 c0 -5 -5 -10 -11 -10 -5 0 -7 5 -4 10 3 6 8 10 11 10 2 0 4 -4
4 -10z m-18 -55 c0 -5 -5 -11 -11 -13 -6 -2 -11 4 -11 13 0 9 5 15 11 13 6 -2
11 -8 11 -13z m258 -21 c0 -8 -5 -12 -10 -9 -6 4 -8 11 -5 16 9 14 15 11 15
-7z m-250 -123 c0 -5 -7 -11 -15 -15 -15 -5 -20 5 -8 17 9 10 23 9 23 -2z
m-80 -83 c0 -11 -12 -10 -30 2 -13 9 -13 11 0 19 14 9 29 -2 30 -21z m18 -46
c2 -7 -6 -12 -17 -12 -21 0 -27 11 -14 24 9 9 26 2 31 -12z m-76 -54 c-6 -6
-15 -8 -19 -4 -4 4 -1 11 7 16 8 5 17 7 19 4 3 -2 -1 -10 -7 -16z m-7892 -87
c0 -10 -24 -21 -43 -21 -7 0 -3 7 7 15 22 17 36 19 36 6z m7679 -97 c-6 -8
-19 -14 -29 -14 -10 0 -20 -6 -23 -14 -5 -13 -141 -96 -158 -96 -5 0 -9 5 -9
10 0 6 5 10 12 10 7 0 27 14 45 32 21 20 33 27 33 17 0 -8 10 -1 24 16 13 17
29 31 35 31 6 1 18 2 26 3 8 0 15 7 15 15 0 9 7 12 20 9 16 -4 18 -8 9 -19z
m-259 -83 c0 -5 -7 -12 -16 -15 -14 -5 -15 -4 -4 9 14 17 20 19 20 6z m20 -65
c0 -18 -38 -46 -62 -46 -10 0 -18 -5 -18 -12 0 -6 -3 -8 -7 -5 -8 9 26 47 42
47 7 0 15 7 19 15 7 19 26 20 26 1z m-6850 -96 c0 -5 -9 -10 -21 -10 -11 0
-17 5 -14 10 3 6 13 10 21 10 8 0 14 -4 14 -10z m6700 -9 c0 -5 -7 -12 -16
-15 -14 -5 -15 -4 -4 9 14 17 20 19 20 6z m-60 -36 c0 -8 -4 -15 -10 -15 -5 0
-10 7 -10 15 0 8 5 15 10 15 6 0 10 -7 10 -15z m-135 -86 c0 -7 -8 -15 -17
-17 -12 -2 -15 2 -11 18 6 23 28 22 28 -1z m-55 -6 c0 -3 -5 -13 -10 -24 -11
-20 -70 -55 -70 -41 0 9 30 55 42 63 10 6 38 8 38 2z m10 -83 c0 -11 -7 -20
-15 -20 -27 0 -18 30 13 39 1 1 2 -8 2 -19z m-140 -19 c0 -17 -12 -41 -21 -41
-10 0 -12 33 -2 43 9 10 23 9 23 -2z m-120 -197 c0 -13 -12 -18 -32 -15 -5 0
-8 -6 -8 -14 0 -8 -7 -15 -15 -15 -21 0 -19 10 12 42 26 28 43 29 43 2z m-585
-234 c-3 -5 -13 -10 -21 -10 -8 0 -12 5 -9 10 3 6 13 10 21 10 8 0 12 -4 9
-10z m-2318 -756 c-16 -9 -32 -13 -35 -9 -9 9 19 25 43 24 16 0 15 -2 -8 -15z
m227 1 c3 -8 1 -15 -3 -15 -5 0 -11 7 -15 15 -3 8 -1 15 3 15 5 0 11 -7 15
-15z m-439 -55 c3 -5 -1 -10 -9 -10 -9 0 -16 5 -16 10 0 6 4 10 9 10 6 0 13
-4 16 -10z m-2131 -69 c21 -39 9 -46 -20 -12 -28 33 -30 41 -9 41 8 0 21 -13
29 -29z m112 -128 c-3 -7 -1 -13 5 -13 6 0 7 -4 4 -10 -15 -24 -30 -8 -32 32
-1 40 0 41 13 23 8 -11 12 -25 10 -32z m-186 17 c-20 -13 -53 -13 -45 0 3 6
18 10 33 10 21 0 24 -2 12 -10z m-247 -7 c-7 -2 -19 -2 -25 0 -7 3 -2 5 12 5
14 0 19 -2 13 -5z m493 -46 c8 -4 14 -22 14 -38 0 -18 -4 -28 -10 -24 -5 3
-10 17 -10 31 0 13 -4 24 -10 24 -5 0 -10 10 -9 23 0 14 2 17 6 7 3 -8 12 -19
19 -23z m63 19 c9 -11 9 -16 0 -21 -10 -7 -28 10 -29 28 0 12 17 8 29 -7z
m-159 -16 c0 -5 -6 -10 -12 -11 -10 0 -10 -2 0 -6 17 -7 15 -21 -5 -26 -13 -3
-10 -5 7 -6 31 -1 15 -17 -27 -26 -28 -5 -32 -4 -27 9 3 9 1 16 -6 16 -6 0 -8
5 -5 10 4 6 11 8 16 5 5 -4 14 5 21 19 11 25 38 36 38 16z m-96 -26 c9 -24 7
-36 -6 -32 -13 5 -22 48 -9 48 5 0 12 -7 15 -16z m276 -29 c0 -8 -9 -15 -20
-15 -20 0 -26 11 -13 23 12 13 33 7 33 -8z m-80 -35 c10 0 6 -67 -4 -77 -4 -4
-15 2 -26 13 -22 23 -17 79 7 70 8 -3 18 -6 23 -6z m-107 -22 c15 -7 27 -17
27 -21 0 -5 -4 -5 -10 -2 -11 7 -12 3 -4 -19 3 -8 11 -13 18 -10 7 3 17 -6 24
-20 9 -20 8 -25 -6 -31 -21 -8 -80 24 -88 47 -6 20 -24 25 -24 6 0 -6 -3 -8
-7 -4 -5 4 0 14 10 21 10 7 17 17 16 21 -5 27 5 30 44 12z m797 -49 c0 -11
-27 -12 -34 0 -3 4 -3 11 0 14 8 8 34 -3 34 -14z m-880 -9 c0 -5 -4 -10 -10
-10 -5 0 -10 5 -10 10 0 6 5 10 10 10 6 0 10 -4 10 -10z m960 0 c0 -5 -4 -10
-10 -10 -5 0 -10 5 -10 10 0 6 5 10 10 10 6 0 10 -4 10 -10z m-51 -22 c12 -15
11 -18 -3 -18 -10 0 -16 8 -16 22 0 12 1 19 3 17 1 -2 9 -12 16 -21z m-939 1
c0 -8 -42 -20 -48 -14 -2 2 -2 8 1 12 6 10 47 12 47 2z m695 -7 c-3 -3 -11 0
-18 7 -9 10 -8 11 6 5 10 -3 15 -9 12 -12z m325 -18 c0 -8 -4 -14 -10 -14 -5
0 -10 9 -10 21 0 11 5 17 10 14 6 -3 10 -13 10 -21z m-80 -24 c0 -5 -4 -10
-10 -10 -5 0 -10 5 -10 10 0 6 5 10 10 10 6 0 10 -4 10 -10z"/>
<path d="M3770 5571 c0 -5 9 -7 20 -4 11 3 20 7 20 9 0 2 -9 4 -20 4 -11 0
-20 -4 -20 -9z"/>
<path d="M3605 5360 c-3 -5 -1 -10 4 -10 6 0 11 5 11 10 0 6 -2 10 -4 10 -3 0
-8 -4 -11 -10z"/>
<path d="M9460 5160 c-9 -6 -10 -10 -3 -10 6 0 15 5 18 10 8 12 4 12 -15 0z"/>
<path d="M9347 4933 c-4 -3 -7 -11 -7 -17 0 -6 5 -5 12 2 6 6 9 14 7 17 -3 3
-9 2 -12 -2z"/>
<path d="M8617 4153 c-4 -3 -4 -16 -1 -28 3 -13 0 -26 -7 -30 -8 -5 -10 -4 -5
3 4 7 2 12 -3 12 -13 0 -14 -10 -3 -28 6 -9 14 -6 31 12 21 22 22 27 9 45 -8
12 -18 18 -21 14z"/>
<path d="M8524 4078 c-3 -4 0 -17 6 -28 11 -21 11 -21 31 4 10 13 19 26 19 28
0 6 -52 3 -56 -4z"/>
<path d="M8483 4031 c-9 -15 -9 -23 1 -36 11 -15 13 -14 24 10 19 41 -2 63
-25 26z"/>
<path d="M9105 3820 c-3 -5 -1 -10 4 -10 6 0 11 5 11 10 0 6 -2 10 -4 10 -3 0
-8 -4 -11 -10z"/>
<path d="M9420 3650 c0 -5 5 -10 10 -10 6 0 10 5 10 10 0 6 -4 10 -10 10 -5 0
-10 -4 -10 -10z"/>
<path d="M8660 7279 c0 -5 5 -7 10 -4 6 3 10 8 10 11 0 2 -4 4 -10 4 -5 0 -10
-5 -10 -11z"/>
<path d="M8833 7253 c-4 -10 -9 -20 -12 -23 -3 -3 -17 -18 -31 -33 -20 -23
-22 -30 -10 -37 11 -7 -1 -23 -54 -74 -37 -35 -65 -69 -62 -75 4 -5 2 -12 -4
-16 -5 -3 -10 -12 -10 -20 0 -7 24 9 52 35 29 27 55 46 58 44 2 -3 -15 -23
-39 -45 -24 -22 -40 -43 -36 -47 4 -4 19 8 34 26 15 17 33 32 39 32 7 0 12 6
12 14 0 8 14 28 30 46 17 18 30 27 30 22 0 -6 -4 -14 -10 -17 -5 -3 -15 -16
-21 -28 l-11 -22 22 22 c13 12 25 34 27 50 2 15 6 48 9 73 6 44 6 45 -13 28
-32 -29 -37 -21 -9 13 14 17 26 35 26 40 0 15 -10 10 -17 -8z"/>
<path d="M8870 7235 c-7 -9 -8 -15 -2 -15 5 0 12 7 16 15 3 8 4 15 2 15 -2 0
-9 -7 -16 -15z"/>
<path d="M8607 7208 c-9 -18 -17 -27 -17 -20 0 8 -12 2 -30 -15 -16 -15 -30
-32 -30 -37 0 -6 13 2 28 17 16 15 31 25 33 22 3 -3 16 6 29 20 16 18 21 28
13 36 -7 7 -15 0 -26 -23z"/>
<path d="M8670 7229 c0 -5 5 -7 10 -4 6 3 10 8 10 11 0 2 -4 4 -10 4 -5 0 -10
-5 -10 -11z"/>
<path d="M8887 7213 c-4 -3 -7 -11 -7 -17 0 -6 5 -5 12 2 6 6 9 14 7 17 -3 3
-9 2 -12 -2z"/>
<path d="M8737 7143 c-4 -3 -7 -11 -7 -17 0 -6 5 -5 12 2 6 6 9 14 7 17 -3 3
-9 2 -12 -2z"/>
<path d="M8662 7066 c-44 -50 -41 -69 4 -24 20 19 35 41 32 48 -2 7 -17 -2
-36 -24z"/>
<path d="M8926 7054 c-10 -25 1 -29 14 -5 6 12 7 21 1 21 -5 0 -12 -7 -15 -16z"/>
<path d="M8970 7055 c-7 -9 -11 -18 -8 -20 3 -3 11 1 18 10 7 9 11 18 8 20 -3
3 -11 -1 -18 -10z"/>
<path d="M8825 7040 c-3 -5 -2 -10 4 -10 5 0 13 5 16 10 3 6 2 10 -4 10 -5 0
-13 -4 -16 -10z"/>
<path d="M8787 6998 c-10 -11 -15 -23 -11 -26 3 -4 9 -1 11 6 3 6 11 12 19 12
8 0 14 4 14 9 0 19 -15 18 -33 -1z"/>
<path d="M8617 6973 c-10 -11 -17 -13 -17 -5 0 6 -16 0 -37 -14 -40 -27 -59
-51 -49 -61 3 -4 6 -1 6 5 0 7 6 12 14 12 7 0 19 7 26 15 9 10 16 12 20 5 4
-6 18 2 35 20 30 31 32 52 2 23z"/>
<path d="M8834 6938 c-70 -75 -76 -85 -58 -85 8 0 21 12 29 26 7 14 23 35 35
46 20 18 45 55 37 55 -1 0 -21 -19 -43 -42z"/>
<path d="M8900 6947 c-22 -28 -38 -77 -26 -77 6 0 57 103 53 107 -2 1 -14 -12
-27 -30z"/>
<path d="M8736 6941 c-4 -7 -5 -15 -2 -18 9 -9 19 4 14 18 -4 11 -6 11 -12 0z"/>
<path d="M7320 6909 c0 -5 5 -7 10 -4 6 3 10 8 10 11 0 2 -4 4 -10 4 -5 0 -10
-5 -10 -11z"/>
<path d="M8740 6891 c0 -5 5 -13 10 -16 6 -3 10 -2 10 4 0 5 -4 13 -10 16 -5
3 -10 2 -10 -4z"/>
<path d="M8811 6849 c-24 -32 -22 -52 2 -27 14 13 32 58 25 58 -3 0 -14 -14
-27 -31z"/>
<path d="M8505 6850 c-3 -5 -2 -10 4 -10 5 0 13 5 16 10 3 6 2 10 -4 10 -5 0
-13 -4 -16 -10z"/>
<path d="M7230 6827 c0 -20 42 -57 64 -57 15 0 3 29 -22 53 -34 33 -42 34 -42
4z"/>
<path d="M8840 6829 c0 -5 5 -7 10 -4 6 3 10 8 10 11 0 2 -4 4 -10 4 -5 0 -10
-5 -10 -11z"/>
<path d="M7426 6798 c-21 -29 -20 -35 4 -41 17 -4 20 0 20 29 0 40 -4 42 -24
12z"/>
<path d="M8665 6810 c-3 -5 -2 -10 4 -10 5 0 13 5 16 10 3 6 2 10 -4 10 -5 0
-13 -4 -16 -10z"/>
<path d="M8757 6797 c-7 -18 -27 -19 -39 -2 -11 15 -20 -2 -13 -24 3 -12 11
-19 16 -16 18 12 8 -5 -18 -29 -20 -19 -24 -29 -16 -37 8 -8 13 -6 17 9 4 11
13 23 21 26 17 6 48 63 42 79 -2 6 -6 3 -10 -6z"/>
<path d="M9540 6785 c0 -8 2 -15 4 -15 2 0 6 7 10 15 3 8 1 15 -4 15 -6 0 -10
-7 -10 -15z"/>
<path d="M7108 6774 c-26 -14 -40 -37 -19 -31 5 1 17 -7 25 -18 16 -19 16 -19
10 8 -5 21 -2 32 12 42 25 19 6 18 -28 -1z"/>
<path d="M7301 6756 c-16 -19 -11 -29 8 -17 7 5 12 14 9 21 -3 9 -8 7 -17 -4z"/>
<path d="M8780 6760 c0 -5 5 -10 11 -10 5 0 7 5 4 10 -3 6 -8 10 -11 10 -2 0
-4 -4 -4 -10z"/>
<path d="M9547 6752 c-14 -15 -15 -19 -2 -19 8 0 17 7 20 15 8 23 0 24 -18 4z"/>
<path d="M8756 6741 c-4 -7 -5 -15 -2 -18 9 -9 19 4 14 18 -4 11 -6 11 -12 0z"/>
<path d="M7312 6723 c-21 -19 -39 -63 -25 -63 15 1 38 25 50 53 14 31 4 35
-25 10z"/>
<path d="M7018 6715 c-7 -9 -19 -22 -26 -30 -8 -9 -9 -15 -3 -15 6 0 16 9 23
20 7 11 16 20 21 20 4 0 5 -4 2 -10 -7 -11 8 -14 18 -4 8 8 -3 34 -14 34 -4 0
-14 -7 -21 -15z"/>
<path d="M7365 6720 c-3 -5 -2 -10 4 -10 5 0 13 5 16 10 3 6 2 10 -4 10 -5 0
-13 -4 -16 -10z"/>
<path d="M7407 6703 c-4 -3 -7 -11 -7 -17 0 -6 5 -5 12 2 6 6 9 14 7 17 -3 3
-9 2 -12 -2z"/>
<path d="M8710 6680 c-11 -21 -5 -44 9 -35 8 4 12 55 5 55 -2 0 -8 -9 -14 -20z"/>
<path d="M9412 6669 c-7 -11 -11 -23 -9 -25 7 -7 29 24 25 36 -2 6 -9 1 -16
-11z"/>
<path d="M7036 6646 c-11 -17 -12 -27 -5 -32 13 -8 25 4 34 34 9 29 -9 28 -29
-2z"/>
<path d="M8552 6627 c-23 -24 -42 -46 -42 -49 0 -15 69 38 80 61 17 37 7 34
-38 -12z"/>
<path d="M6917 6643 c-4 -3 -7 -11 -7 -17 0 -6 5 -5 12 2 6 6 9 14 7 17 -3 3
-9 2 -12 -2z"/>
<path d="M9647 6644 c-4 -4 -7 -14 -7 -23 0 -11 3 -12 11 -4 6 6 10 16 7 23
-2 6 -7 8 -11 4z"/>
<path d="M9700 6635 c-7 -9 -15 -13 -18 -10 -3 2 -18 -9 -34 -25 -26 -28 -57
-42 -43 -20 3 6 1 10 -4 10 -6 0 -11 -4 -11 -9 0 -5 -11 -23 -26 -40 -14 -17
-24 -36 -23 -43 3 -27 -2 -38 -23 -49 -22 -12 -22 -12 -4 15 27 42 12 42 -23
0 -30 -38 -51 -42 -33 -7 9 15 6 18 -17 20 -21 1 -37 -8 -65 -38 -21 -21 -41
-39 -46 -39 -16 0 -20 -33 -6 -49 12 -14 12 -19 1 -34 -10 -15 -11 -25 -3 -43
15 -33 29 -30 22 5 -6 29 21 86 36 76 4 -3 14 2 21 11 10 13 10 17 0 24 -10 6
-10 9 -1 15 6 4 9 13 6 20 -3 9 2 11 15 8 15 -4 17 -8 8 -19 -6 -8 -8 -14 -4
-14 4 0 0 -12 -9 -26 -20 -29 -18 -68 4 -71 8 -1 33 20 54 47 40 51 61 65 49
33 -12 -32 27 7 41 41 7 17 33 54 58 81 24 28 56 71 71 98 28 47 30 60 7 32z
m-344 -281 c-4 -9 -9 -15 -11 -12 -3 3 -3 13 1 22 4 9 9 15 11 12 3 -3 3 -13
-1 -22z"/>
<path d="M7155 6610 c-10 -11 -13 -20 -8 -20 13 0 38 29 31 35 -3 3 -13 -4
-23 -15z"/>
<path d="M6867 6613 c-10 -9 -9 -33 1 -33 4 0 8 9 9 20 2 21 0 24 -10 13z"/>
<path d="M8584 6609 c-3 -6 -1 -15 6 -19 7 -4 9 -13 6 -19 -4 -6 -1 -18 7 -26
13 -13 17 -13 28 1 7 8 18 13 26 10 9 -4 13 3 13 19 0 27 -15 34 -24 10 -7
-20 -36 -8 -36 16 0 21 -15 25 -26 8z"/>
<path d="M9509 6583 c-40 -42 -69 -83 -69 -96 0 -5 6 -5 13 1 12 10 17 12 38
12 6 0 8 7 5 17 -4 10 5 33 24 60 17 24 30 43 28 43 -2 0 -20 -17 -39 -37z"/>
<path d="M6820 6559 c0 -5 5 -7 10 -4 6 3 10 8 10 11 0 2 -4 4 -10 4 -5 0 -10
-5 -10 -11z"/>
<path d="M7040 6559 c0 -5 5 -7 10 -4 6 3 10 8 10 11 0 2 -4 4 -10 4 -5 0 -10
-5 -10 -11z"/>
<path d="M6860 6545 c0 -8 2 -15 4 -15 2 0 6 7 10 15 3 8 1 15 -4 15 -6 0 -10
-7 -10 -15z"/>
<path d="M8463 6538 c-11 -13 -24 -30 -29 -38 -7 -13 -5 -13 16 1 13 8 27 25
31 37 10 28 7 28 -18 0z"/>
<path d="M9775 6550 c-3 -5 -1 -10 4 -10 6 0 11 5 11 10 0 6 -2 10 -4 10 -3 0
-8 -4 -11 -10z"/>
<path d="M6697 6523 c-4 -3 -7 -11 -7 -17 0 -6 5 -5 12 2 6 6 9 14 7 17 -3 3
-9 2 -12 -2z"/>
<path d="M6958 6502 c-4 -15 -2 -25 7 -29 8 -2 17 -13 20 -24 4 -11 10 -17 15
-14 11 7 8 45 -3 45 -5 0 -7 9 -4 20 3 11 1 20 -4 20 -5 0 -9 -10 -10 -22 -1
-22 -1 -22 -8 2 l-7 25 -6 -23z"/>
<path d="M7170 6511 c0 -5 5 -13 10 -16 6 -3 10 -2 10 4 0 5 -4 13 -10 16 -5
3 -10 2 -10 -4z"/>
<path d="M8540 6510 c0 -5 5 -10 10 -10 6 0 10 5 10 10 0 6 -4 10 -10 10 -5 0
-10 -4 -10 -10z"/>
<path d="M9627 6492 c-19 -20 -23 -37 -7 -27 10 6 33 45 27 45 -2 0 -11 -8
-20 -18z"/>
<path d="M6750 6484 c0 -8 5 -12 10 -9 6 4 8 11 5 16 -9 14 -15 11 -15 -7z"/>
<path d="M6890 6459 c0 -5 5 -7 10 -4 6 3 10 8 10 11 0 2 -4 4 -10 4 -5 0 -10
-5 -10 -11z"/>
<path d="M6570 6449 c0 -5 5 -7 10 -4 6 3 10 8 10 11 0 2 -4 4 -10 4 -5 0 -10
-5 -10 -11z"/>
<path d="M6845 6440 c-3 -6 1 -7 9 -4 18 7 21 14 7 14 -6 0 -13 -4 -16 -10z"/>
<path d="M5397 6408 c-45 -20 -56 -37 -28 -46 7 -2 15 5 18 16 3 12 18 25 34
31 16 5 29 12 29 15 0 8 2 8 -53 -16z"/>
<path d="M6805 6420 c-3 -5 -2 -10 4 -10 5 0 13 5 16 10 3 6 2 10 -4 10 -5 0
-13 -4 -16 -10z"/>
<path d="M5820 6410 c-9 -6 -10 -10 -3 -10 6 0 15 5 18 10 8 12 4 12 -15 0z"/>
<path d="M6545 6410 c-3 -5 -1 -10 4 -10 6 0 11 5 11 10 0 6 -2 10 -4 10 -3 0
-8 -4 -11 -10z"/>
<path d="M9074 6409 c-3 -6 -15 -9 -25 -6 -11 3 -19 1 -19 -3 0 -18 17 -18 46
1 16 10 24 19 17 19 -6 0 -15 -5 -19 -11z"/>
<path d="M8511 6374 c0 -11 3 -14 6 -6 3 7 2 16 -1 19 -3 4 -6 -2 -5 -13z"/>
<path d="M5315 6370 c-3 -5 -2 -10 4 -10 5 0 13 5 16 10 3 6 2 10 -4 10 -5 0
-13 -4 -16 -10z"/>
<path d="M6730 6369 c0 -5 5 -7 10 -4 6 3 10 8 10 11 0 2 -4 4 -10 4 -5 0 -10
-5 -10 -11z"/>
<path d="M6367 6324 c5 -28 2 -40 -11 -50 -27 -19 -16 -36 14 -21 30 15 36 38
18 77 -18 41 -28 38 -21 -6z"/>
<path d="M8376 6344 c-4 -10 -1 -14 6 -12 15 5 23 28 10 28 -5 0 -13 -7 -16
-16z"/>
<path d="M6410 6331 c0 -5 5 -13 10 -16 6 -3 10 -2 10 4 0 5 -4 13 -10 16 -5
3 -10 2 -10 -4z"/>
<path d="M5364 6305 c-10 -8 -14 -14 -9 -15 15 0 40 18 34 24 -3 3 -14 -1 -25
-9z"/>
<path d="M5580 6309 c0 -5 5 -7 10 -4 6 3 10 8 10 11 0 2 -4 4 -10 4 -5 0 -10
-5 -10 -11z"/>
<path d="M5858 6302 c-16 -10 -28 -21 -28 -25 0 -5 14 1 30 13 17 12 30 23 30
26 0 5 0 5 -32 -14z"/>
<path d="M9374 6288 c2 -7 -1 -22 -7 -33 -10 -20 -10 -20 12 -1 21 19 30 43
12 32 -5 -4 -12 -1 -14 4 -3 6 -4 5 -3 -2z"/>
<path d="M9847 6243 c-4 -3 -7 -11 -7 -17 0 -6 5 -5 12 2 6 6 9 14 7 17 -3 3
-9 2 -12 -2z"/>
<path d="M6116 6231 c-4 -7 -5 -15 -2 -18 9 -9 19 4 14 18 -4 11 -6 11 -12 0z"/>
<path d="M5980 6219 c0 -5 5 -7 10 -4 6 3 10 8 10 11 0 2 -4 4 -10 4 -5 0 -10
-5 -10 -11z"/>
<path d="M6080 6184 c0 -8 5 -12 10 -9 6 4 8 11 5 16 -9 14 -15 11 -15 -7z"/>
<path d="M9800 6183 c0 -5 -11 -21 -25 -37 -27 -31 -33 -62 -12 -69 12 -4 77
78 77 97 0 6 -5 3 -11 -6 -14 -24 -28 -23 -22 2 3 11 3 20 -1 20 -3 0 -6 -3
-6 -7z m-12 -72 c-7 -12 -16 -21 -21 -21 -8 0 -2 14 16 38 16 20 20 6 5 -17z"/>
<path d="M6036 6127 c3 -10 9 -15 12 -12 3 3 0 11 -7 18 -10 9 -11 8 -5 -6z"/>
<path d="M5657 6109 c-22 -11 -37 -23 -34 -26 3 -2 16 2 29 11 27 18 69 11 61
-10 -3 -8 -1 -14 5 -14 5 0 12 9 15 20 4 16 0 20 -20 20 -13 0 -21 4 -18 10 8
13 7 13 -38 -11z"/>
<path d="M9661 5984 c-12 -27 -11 -28 4 -12 10 9 16 21 13 28 -2 7 -10 -1 -17
-16z"/>
<path d="M9866 5975 c-9 -26 -7 -32 5 -12 6 10 9 21 6 23 -2 3 -7 -2 -11 -11z"/>
<path d="M9853 5865 c-3 -9 -3 -18 -1 -21 3 -3 8 4 11 16 6 23 -1 27 -10 5z"/>
<path d="M9815 5780 c-3 -5 -1 -10 4 -10 6 0 11 5 11 10 0 6 -2 10 -4 10 -3 0
-8 -4 -11 -10z"/>
<path d="M1894 5056 c-3 -8 -20 -19 -37 -25 -50 -18 -20 -31 43 -19 66 13 66
13 49 31 -23 22 -49 28 -55 13z"/>
<path d="M1540 5045 c0 -8 -4 -15 -10 -15 -5 0 -10 -5 -10 -11 0 -7 8 -6 22 3
27 18 35 38 14 38 -9 0 -16 -7 -16 -15z"/>
<path d="M2590 5049 c0 -5 5 -7 10 -4 6 3 10 8 10 11 0 2 -4 4 -10 4 -5 0 -10
-5 -10 -11z"/>
<path d="M1583 5033 c-18 -7 -16 -23 2 -23 8 0 15 7 15 15 0 8 -1 15 -2 14 -2
0 -9 -3 -15 -6z"/>
<path d="M2000 5030 c-13 -8 -12 -10 3 -10 9 0 17 5 17 10 0 12 -1 12 -20 0z"/>
<path d="M1785 5020 c-3 -6 1 -7 9 -4 18 7 21 14 7 14 -6 0 -13 -4 -16 -10z"/>
<path d="M2810 5020 c0 -5 4 -10 9 -10 6 0 13 5 16 10 3 6 -1 10 -9 10 -9 0
-16 -4 -16 -10z"/>
<path d="M9727 5013 c-11 -10 -8 -43 3 -43 6 0 10 11 10 25 0 26 -2 29 -13 18z"/>
<path d="M2020 4990 c0 -5 5 -10 10 -10 6 0 10 5 10 10 0 6 -4 10 -10 10 -5 0
-10 -4 -10 -10z"/>
<path d="M2188 4993 c12 -2 30 -2 40 0 9 3 -1 5 -23 4 -22 0 -30 -2 -17 -4z"/>
<path d="M1873 4983 c-24 -2 -43 -8 -43 -13 0 -5 -11 -8 -24 -7 -14 1 -25 -2
-25 -8 -1 -11 108 -14 116 -2 6 10 33 9 33 -2 0 -5 -15 -12 -32 -16 -18 -4
-28 -9 -22 -11 5 -2 28 2 50 10 21 8 32 15 24 15 -9 1 -3 9 15 21 l30 20 -40
-2 c-22 -1 -59 -3 -82 -5z"/>
<path d="M2665 4980 c-19 -7 -19 -8 -2 -15 10 -4 23 -3 29 3 14 14 -3 21 -27
12z"/>
<path d="M2113 4971 c-23 -4 -30 -10 -25 -19 11 -16 72 -4 72 14 0 8 -3 13 -7
13 -5 -1 -23 -4 -40 -8z"/>
<path d="M2193 4967 c2 -7 21 -13 43 -15 46 -4 40 6 -11 18 -26 6 -35 5 -32
-3z"/>
<path d="M1974 4959 c-3 -6 0 -17 7 -25 18 -17 44 -2 36 20 -7 18 -33 21 -43
5z"/>
<path d="M1450 4938 c0 -13 6 -18 17 -16 24 5 27 25 3 31 -15 4 -20 0 -20 -15z"/>
<path d="M1698 4923 c6 -2 18 -2 25 0 6 3 1 5 -13 5 -14 0 -19 -2 -12 -5z"/>
<path d="M1461 4913 c-18 -4 -21 -7 -11 -13 11 -7 10 -11 -3 -24 -9 -9 -14
-23 -11 -31 7 -18 7 -18 51 0 25 11 40 12 47 5 5 -5 18 -10 28 -10 21 0 25 49
6 68 -12 12 -59 14 -107 5z m105 -52 c-12 -19 -24 -12 -19 10 4 13 9 17 15 11
6 -6 7 -15 4 -21z"/>
<path d="M1685 4900 c-16 -7 -13 -9 15 -9 19 0 44 4 55 9 16 7 13 9 -15 9 -19
0 -44 -4 -55 -9z"/>
<path d="M1614 4845 c0 -26 3 -32 11 -25 7 6 20 8 29 4 9 -3 16 -2 16 3 0 9
-42 53 -51 53 -2 0 -4 -16 -5 -35z"/>
<path d="M1950 4859 c0 -5 5 -7 10 -4 6 3 10 8 10 11 0 2 -4 4 -10 4 -5 0 -10
-5 -10 -11z"/>
<path d="M1453 4818 c-20 -5 -33 -15 -33 -24 0 -13 6 -15 28 -9 31 7 46 19 41
32 -3 6 -17 6 -36 1z"/>
<path d="M9496 4795 c4 -8 7 -15 9 -15 1 0 8 7 15 15 10 13 9 15 -8 15 -15 0
-20 -5 -16 -15z"/>
<path d="M9490 4585 c-24 -25 -41 -48 -37 -51 4 -4 7 -2 7 5 0 7 6 11 12 9 12
-4 74 70 66 78 -3 2 -24 -16 -48 -41z"/>
<path d="M9255 4590 c-3 -5 -1 -10 4 -10 6 0 11 5 11 10 0 6 -2 10 -4 10 -3 0
-8 -4 -11 -10z"/>
<path d="M1250 4440 c-13 -8 -12 -10 3 -10 9 0 17 5 17 10 0 12 -1 12 -20 0z"/>
<path d="M9046 4405 c-3 -8 -1 -15 3 -15 5 0 11 7 15 15 3 8 1 15 -3 15 -5 0
-11 -7 -15 -15z"/>
<path d="M9556 4383 c-6 -14 -5 -15 5 -6 7 7 10 15 7 18 -3 3 -9 -2 -12 -12z"/>
<path d="M9011 4334 c0 -11 3 -14 6 -6 3 7 2 16 -1 19 -3 4 -6 -2 -5 -13z"/>
<path d="M9590 4225 c-7 -9 -10 -18 -7 -21 3 -3 10 4 17 15 13 25 8 27 -10 6z"/>
<path d="M9587 4103 c-4 -3 -7 -11 -7 -17 0 -6 5 -5 12 2 6 6 9 14 7 17 -3 3
-9 2 -12 -2z"/>
<path d="M9785 4039 c-4 -6 -5 -12 -2 -15 2 -3 7 2 10 11 7 17 1 20 -8 4z"/>
<path d="M9470 3985 c-13 -14 -21 -27 -18 -30 6 -6 48 33 48 45 0 15 -4 13
-30 -15z"/>
<path d="M9853 3976 c0 -18 3 -24 9 -18 7 7 7 16 0 28 -8 14 -9 13 -9 -10z"/>
<path d="M9490 3945 c-7 -9 -11 -18 -8 -20 3 -3 11 1 18 10 7 9 11 18 8 20 -3
3 -11 -1 -18 -10z"/>
<path d="M9825 3919 c-4 -11 -4 -23 -1 -26 3 -4 6 -1 6 6 0 7 4 10 9 7 5 -4 7
3 4 14 -7 25 -10 25 -18 -1z"/>
<path d="M9779 3903 c-13 -16 -12 -17 4 -4 16 13 21 21 13 21 -2 0 -10 -8 -17
-17z"/>
<path d="M9371 3864 c0 -11 3 -14 6 -6 3 7 2 16 -1 19 -3 4 -6 -2 -5 -13z"/>
<path d="M9650 3813 c0 -26 1 -26 14 -8 14 20 12 35 -5 35 -5 0 -9 -12 -9 -27z"/>
<path d="M9645 3670 c-3 -5 1 -10 9 -10 9 0 16 5 16 10 0 6 -4 10 -9 10 -6 0
-13 -4 -16 -10z"/>
<path d="M1177 3443 c-4 -3 -7 -11 -7 -17 0 -6 5 -5 12 2 6 6 9 14 7 17 -3 3
-9 2 -12 -2z"/>
<path d="M9386 3402 c-2 -4 -1 -14 3 -21 6 -10 10 -9 14 3 6 16 -8 32 -17 18z"/>
<path d="M9345 3350 c-3 -5 -2 -10 4 -10 5 0 13 5 16 10 3 6 2 10 -4 10 -5 0
-13 -4 -16 -10z"/>
<path d="M9265 3290 c-4 -6 -1 -9 7 -8 7 2 12 -3 11 -9 -2 -7 2 -13 7 -13 12
0 12 3 4 24 -7 18 -20 21 -29 6z"/>
<path d="M9011 3156 c-16 -19 -11 -29 8 -17 7 5 12 14 9 21 -3 9 -8 7 -17 -4z"/>
<path d="M9012 3108 c-14 -14 -16 -58 -4 -58 5 0 13 16 19 35 11 36 6 44 -15
23z"/>
<path d="M8825 3060 c-3 -5 -2 -10 4 -10 5 0 13 5 16 10 3 6 2 10 -4 10 -5 0
-13 -4 -16 -10z"/>
<path d="M8900 3021 c0 -10 7 -21 15 -25 10 -3 15 1 15 13 0 10 -7 21 -15 25
-10 3 -15 -1 -15 -13z"/>
<path d="M8851 3014 c0 -11 3 -14 6 -6 3 7 2 16 -1 19 -3 4 -6 -2 -5 -13z"/>
<path d="M8715 2981 c-6 -11 9 -23 19 -14 9 9 7 23 -3 23 -6 0 -12 -4 -16 -9z"/>
<path d="M8831 2956 c-7 -8 -8 -17 -3 -20 6 -3 13 1 16 10 9 23 2 28 -13 10z"/>
<path d="M140 2930 c0 -5 5 -10 10 -10 6 0 10 5 10 10 0 6 -4 10 -10 10 -5 0
-10 -4 -10 -10z"/>
<path d="M8715 2930 c-3 -5 -4 -10 0 -10 3 0 1 -9 -5 -20 -9 -16 -8 -18 5 -14
9 4 14 9 11 12 -3 2 -1 13 5 23 10 20 -4 28 -16 9z"/>
<path d="M8445 2900 c-3 -5 1 -10 10 -10 9 0 13 5 10 10 -3 6 -8 10 -10 10 -2
0 -7 -4 -10 -10z"/>
<path d="M8497 2804 c-4 -4 -7 -14 -7 -23 0 -11 3 -12 11 -4 6 6 10 16 7 23
-2 6 -7 8 -11 4z"/>
<path d="M8150 2695 c0 -8 2 -15 4 -15 2 0 6 7 10 15 3 8 1 15 -4 15 -6 0 -10
-7 -10 -15z"/>
<path d="M8260 2670 c-9 -6 -10 -10 -3 -10 6 0 15 5 18 10 8 12 4 12 -15 0z"/>
<path d="M228 2603 c7 -3 16 -2 19 1 4 3 -2 6 -13 5 -11 0 -14 -3 -6 -6z"/>
<path d="M7756 2231 c-4 -7 -5 -15 -2 -18 9 -9 19 4 14 18 -4 11 -6 11 -12 0z"/>
<path d="M7596 2183 c-12 -12 -5 -23 14 -23 11 0 20 4 20 9 0 11 -26 22 -34
14z"/>
<path d="M7520 2069 c0 -11 5 -17 10 -14 6 3 10 13 10 21 0 8 -4 14 -10 14 -5
0 -10 -9 -10 -21z"/>
<path d="M6950 1830 c0 -5 5 -10 10 -10 6 0 10 5 10 10 0 6 -4 10 -10 10 -5 0
-10 -4 -10 -10z"/>
<path d="M6966 1794 c-17 -12 -18 -14 -3 -14 9 0 17 -7 17 -15 0 -8 5 -15 10
-15 11 0 12 17 2 42 -6 15 -9 15 -26 2z"/>
<path d="M6915 1740 c3 -5 15 -10 26 -10 11 0 17 5 14 10 -3 6 -15 10 -26 10
-11 0 -17 -4 -14 -10z"/>
<path d="M6330 1470 c-18 -12 -2 -12 25 0 13 6 15 9 5 9 -8 0 -22 -4 -30 -9z"/>
<path d="M5366 1093 c-6 -14 -5 -15 5 -6 7 7 10 15 7 18 -3 3 -9 -2 -12 -12z"/>
<path d="M5310 1043 c0 -7 4 -13 9 -13 5 0 11 6 14 13 3 8 -1 14 -9 14 -8 0
-14 -6 -14 -14z"/>
<path d="M5230 969 c0 -5 5 -7 10 -4 6 3 10 8 10 11 0 2 -4 4 -10 4 -5 0 -10
-5 -10 -11z"/>
<path d="M4317 853 c-6 -9 13 -27 31 -30 7 -2 12 6 12 17 0 20 -33 29 -43 13z"/>
<path d="M4437 833 c-10 -9 -9 -23 2 -23 5 0 11 7 15 15 5 15 -5 20 -17 8z"/>
<path d="M4990 820 c-8 -5 -12 -11 -9 -14 2 -3 11 -1 19 4 8 5 12 11 9 14 -2
3 -11 1 -19 -4z"/>
<path d="M4230 761 c0 -5 7 -11 15 -15 8 -3 15 -1 15 3 0 5 -7 11 -15 15 -8 3
-15 1 -15 -3z"/>
<path d="M4135 730 c4 -6 11 -8 16 -5 14 9 11 15 -7 15 -8 0 -12 -5 -9 -10z"/>
<path d="M4100 704 c0 -8 5 -12 10 -9 6 3 10 10 10 16 0 5 -4 9 -10 9 -5 0
-10 -7 -10 -16z"/>
<path d="M4010 680 c0 -5 5 -10 11 -10 5 0 7 5 4 10 -3 6 -8 10 -11 10 -2 0
-4 -4 -4 -10z"/>
<path d="M3547 523 c-4 -3 -7 -11 -7 -17 0 -6 5 -5 12 2 6 6 9 14 7 17 -3 3
-9 2 -12 -2z"/>
<path d="M1196 501 c-7 -10 23 -20 42 -14 6 3 12 9 12 14 0 12 -47 12 -54 0z"/>
<path d="M3842 493 c2 -9 8 -18 15 -20 7 -3 9 3 6 16 -6 25 -26 28 -21 4z"/>
<path d="M4295 500 c-3 -5 -1 -10 4 -10 6 0 11 5 11 10 0 6 -2 10 -4 10 -3 0
-8 -4 -11 -10z"/>
<path d="M3651 473 c-1 -28 13 -37 29 -18 10 12 10 15 -3 15 -8 0 -18 6 -20
13 -3 6 -6 2 -6 -10z"/>
<path d="M1170 470 c0 -5 4 -10 9 -10 6 0 13 5 16 10 3 6 -1 10 -9 10 -9 0
-16 -4 -16 -10z"/>
<path d="M2210 445 c0 -14 5 -25 10 -25 6 0 10 11 10 25 0 14 -4 25 -10 25 -5
0 -10 -11 -10 -25z"/>
<path d="M2240 460 c0 -5 9 -19 20 -30 21 -21 23 -19 14 18 -6 21 -34 32 -34
12z"/>
<path d="M3820 410 c-13 -8 -12 -10 3 -10 9 0 17 5 17 10 0 12 -1 12 -20 0z"/>
<path d="M2410 370 c0 -5 5 -10 11 -10 5 0 7 -4 4 -10 -7 -11 8 -14 18 -3 8 7
-11 33 -24 33 -5 0 -9 -4 -9 -10z"/>
<path d="M3441 371 c-10 -7 -8 -10 8 -16 27 -8 36 -2 18 13 -7 6 -18 7 -26 3z"/>
<path d="M2090 360 c0 -5 5 -10 10 -10 6 0 10 5 10 10 0 6 -4 10 -10 10 -5 0
-10 -4 -10 -10z"/>
<path d="M3710 352 c0 -7 5 -12 10 -12 6 0 10 -7 10 -15 0 -8 5 -15 10 -15 16
0 12 15 -10 35 -11 10 -20 13 -20 7z"/>
<path d="M3815 350 c3 -5 8 -10 11 -10 2 0 4 5 4 10 0 6 -5 10 -11 10 -5 0 -7
-4 -4 -10z"/>
<path d="M2865 340 c-18 -7 -17 -9 10 -20 17 -7 55 -14 85 -15 30 -1 62 -4 70
-6 8 -2 15 3 15 11 0 12 -14 15 -60 15 -33 1 -69 6 -80 12 -11 6 -29 7 -40 3z"/>
<path d="M3210 340 c0 -5 5 -10 10 -10 6 0 10 5 10 10 0 6 -4 10 -10 10 -5 0
-10 -4 -10 -10z"/>
<path d="M3510 330 c0 -17 2 -19 14 -8 14 13 12 28 -5 28 -5 0 -9 -9 -9 -20z"/>
<path d="M3066 305 c-3 -9 0 -15 8 -15 8 0 16 7 20 15 3 9 0 15 -8 15 -8 0
-16 -7 -20 -15z"/>
<path d="M3340 310 c-12 -8 -10 -10 8 -10 13 0 20 4 17 10 -7 12 -6 12 -25 0z"/>
<path d="M3820 310 c0 -5 5 -10 11 -10 5 0 7 5 4 10 -3 6 -8 10 -11 10 -2 0
-4 -4 -4 -10z"/>
<path d="M3860 310 c0 -5 5 -10 11 -10 5 0 7 5 4 10 -3 6 -8 10 -11 10 -2 0
-4 -4 -4 -10z"/>
<path d="M2340 290 c-12 -8 -11 -10 8 -10 12 0 22 5 22 10 0 13 -11 13 -30 0z"/>
<path d="M2712 283 c2 -10 12 -19 23 -20 11 -2 14 0 8 3 -7 3 -13 12 -13 20 0
8 -5 14 -11 14 -6 0 -9 -8 -7 -17z"/>
<path d="M3215 290 c3 -5 10 -10 16 -10 5 0 9 5 9 10 0 6 -7 10 -16 10 -8 0
-12 -4 -9 -10z"/>
<path d="M2873 275 c0 -16 7 -18 31 -9 20 8 11 24 -13 24 -10 0 -18 -7 -18
-15z"/>
<path d="M2035 250 c-3 -5 -1 -10 4 -10 6 0 11 5 11 10 0 6 -2 10 -4 10 -3 0
-8 -4 -11 -10z"/>
<path d="M2135 250 c3 -5 8 -10 11 -10 2 0 4 5 4 10 0 6 -5 10 -11 10 -5 0 -7
-4 -4 -10z"/>
<path d="M3438 253 c7 -3 16 -2 19 1 4 3 -2 6 -13 5 -11 0 -14 -3 -6 -6z"/>
<path d="M2020 220 c0 -5 5 -10 10 -10 6 0 10 5 10 10 0 6 -4 10 -10 10 -5 0
-10 -4 -10 -10z"/>
<path d="M1760 186 c-9 -26 3 -35 37 -28 18 3 24 1 19 -7 -4 -6 -18 -11 -30
-11 -18 0 -23 -5 -22 -22 1 -21 6 -23 46 -20 68 4 150 30 150 47 0 8 5 15 11
15 5 0 7 5 4 10 -3 6 -17 10 -30 10 -13 0 -27 5 -30 10 -3 6 -11 10 -16 10 -6
0 -8 -4 -4 -9 3 -5 0 -13 -6 -16 -5 -4 -13 2 -15 12 -4 16 -15 19 -56 19 -41
0 -51 -3 -58 -20z"/>
</g>
</svg>
