<svg width="115" height="24" viewBox="0 0 115 24" fill="none" xmlns="http://www.w3.org/2000/svg">
<path d="M0.425 23V5.5H9.05C14.9 5.5 18.925 8.825 18.925 14.25C18.925 19.675 14.9 23 9.05 23H0.425ZM6.325 18.4H8.8C11.275 18.4 12.975 16.925 12.975 14.25C12.975 11.575 11.275 10.1 8.8 10.1H6.325V18.4ZM26.8793 18.55H35.6293V23H21.0793V5.5H35.3043V9.95H26.8793V12H34.2793V16.25H26.8793V18.55ZM44.4256 23.4C41.5006 23.4 38.5506 22.675 36.8006 21.6L38.7006 17.3C40.3506 18.275 42.5506 18.9 44.4756 18.9C46.1506 18.9 46.7506 18.55 46.7506 17.95C46.7506 15.75 37.0756 17.525 37.0756 11C37.0756 7.75 39.8006 5.1 45.2256 5.1C47.5756 5.1 50.0006 5.6 51.8256 6.625L50.0506 10.9C48.3256 10.025 46.7006 9.6 45.1756 9.6C43.4506 9.6 42.9006 10.1 42.9006 10.7C42.9006 12.8 52.5756 11.05 52.5756 17.5C52.5756 20.7 49.8506 23.4 44.4256 23.4ZM54.3313 23V5.5H60.2313V18.425H68.1313V23H54.3313ZM69.7609 23V5.5H75.6609V23H69.7609ZM85.5512 18.425H93.9512V23H77.8762V19.375L85.8762 10.075H78.1262V5.5H93.5512V9.125L85.5512 18.425ZM110.364 0.0749986L105.439 4.075H101.689L104.989 0.0749986H110.364ZM108.764 23L107.589 19.95H100.939L99.7643 23H93.7643L101.414 5.5H107.214L114.864 23H108.764ZM102.564 15.7H105.964L104.264 11.3L102.564 15.7Z" fill="white" width="115" height="24" viewBox="0 0 115 24"/>
</svg>
