<svg width="120" height="143" viewBox="0 0 120 143" fill="none" xmlns="http://www.w3.org/2000/svg">
<g id="Layer_1" clip-path="#clip0_771_407">
<path id="Vector" d="M68.1133 65.198L69.9473 63.5947L68.1133 65.198Z" fill="white, #D1D821" colors="white" />
<path id="Vector_2" d="M113.938 38.0407C111.035 36.1703 108.047 35.3687 104.975 35.3565L111.266 5.74519C111.618 4.04479 111.047 2.34438 109.748 1.19053C108.448 0.0488338 106.699 -0.315539 105.047 0.243166L63.0596 14.393C59.8167 15.4861 57.9584 18.8262 58.7479 22.1662L66.7276 55.98C61.5535 59.4051 56.3187 62.4051 51.1446 64.0934C33.6791 69.7897 19.3835 67.8707 10.8815 58.7007C3.92198 51.1946 2.00295 39.4739 6.09607 29.5266C10.1649 19.6642 19.092 13.7249 30.594 13.2513C35.6467 13.0205 43.092 17.1622 46.2135 24.1824C50.1851 33.1217 46.3228 44.1865 35.3552 55.3606C34.59 56.1379 34.6021 57.3889 35.3795 58.1541C36.1568 58.9193 37.4078 58.9071 38.173 58.1298C54.6062 41.393 52.5293 28.6764 49.8208 22.5792C45.9706 13.9193 36.9584 9.03669 30.424 9.30389C17.3187 9.85045 7.11631 16.6764 2.4402 28.0205C-2.24806 39.3768 -0.025391 52.7857 7.95436 61.397C11.8896 65.6359 19.6143 71.2837 32.8653 71.2837C38.3673 71.2837 44.8288 70.312 52.3471 67.8586C58.3592 65.9031 64.2742 62.393 70.0799 58.482C70.1041 58.4699 70.1163 58.4577 70.1406 58.4456C72.7762 56.6723 75.3754 54.814 77.9624 52.9679C90.594 43.9436 102.521 35.4173 111.8 41.3808C115.699 43.8828 116.805 48.7533 115.59 51.8262C112.651 59.2472 106.371 63.7654 85.2013 61.7249C84.1203 61.6278 83.1487 62.4173 83.0394 63.4982C82.9301 64.5792 83.7317 65.5509 84.8127 65.6602C105.035 67.6156 115.019 64.0326 119.258 53.2837C121.092 48.6561 119.598 41.6966 113.926 38.0529L113.938 38.0407ZM100.833 35.8181C92.8774 37.4577 84.424 43.482 75.6669 49.7371C73.8693 51.0245 72.0475 52.3241 70.2256 53.5873L62.5981 21.2553C62.2823 19.9193 63.0232 18.5832 64.3228 18.146L93.8612 8.19863L91.3349 21.0731C91.1284 22.142 91.8207 23.1865 92.8896 23.393C93.0232 23.4173 93.1446 23.4294 93.2782 23.4294C94.2013 23.4294 95.0272 22.7735 95.2216 21.8383L98.1851 6.75329L106.323 4.00835C106.724 3.87474 107.015 4.05693 107.149 4.17839C107.282 4.29985 107.501 4.56705 107.416 4.95572L100.845 35.8302L100.833 35.8181Z" stroke="white" colors="white, #D1D821"/>
<path id="Vector_3" stroke="white" d="M97.4075 113.004C97.4075 112.117 96.6788 111.425 95.7921 111.388C94.5897 111.34 94.2253 112.591 94.2253 112.615L89.2699 134.052C89.2334 134.186 89.0512 134.21 89.0148 134.077C87.3873 127.093 84.0836 112.688 81.5452 101.757C81.5452 101.72 81.5452 101.684 81.5695 101.648C81.9581 101.222 85.0674 97.7974 85.0674 97.7974C85.6626 97.1415 85.6261 96.1334 84.9703 95.5383C84.8974 95.4654 84.8124 95.4047 84.7274 95.3561C84.0836 94.9674 83.2456 95.0646 82.7233 95.6354L80.6707 97.931C79.3711 92.3439 78.3144 87.7771 77.8286 85.6881L77.61 84.765C77.61 84.765 77.5614 84.6921 77.5492 84.6557C77.4885 84.4613 77.3792 84.2791 77.2577 84.1334C77.197 84.0727 77.1484 84.0119 77.0877 83.9512C76.9298 83.8055 76.7233 83.6961 76.5047 83.6233C76.3468 83.5747 76.1889 83.5261 76.0067 83.5261C75.5695 83.5261 75.1808 83.7083 74.8893 83.9755L74.8043 84.0727L69.9946 89.1617L73.1768 63.437C73.2375 63.0362 72.9946 62.3804 72.8002 62.1374L72.7031 62.0281C72.4237 61.7488 72.0472 61.5787 71.6221 61.5544C71.0391 61.5302 70.3589 62.1132 70.4197 62.0646L60.7274 70.5909C60.4359 70.8581 60.2537 71.2225 60.2294 71.6233C60.2051 72.0241 60.3387 72.4128 60.5938 72.7042C60.861 73.0079 61.2253 73.1901 61.6261 73.2144C62.0391 73.2508 62.4156 73.1051 62.7071 72.8379L65.6707 70.2387C66.6302 71.8783 67.6626 73.3844 68.7436 74.7204C68.7678 74.7447 68.78 74.7812 68.7678 74.8176L66.533 92.9148C66.533 92.9876 66.5087 93.2306 66.5087 93.2913C66.5087 94.1658 67.2132 94.8702 68.0877 94.8702C68.1241 94.8702 68.1484 94.8581 68.1848 94.8459C68.5614 94.8217 68.9136 94.6759 69.1687 94.4208L75.2901 87.935L75.946 90.7407C77.027 95.3804 86.1848 134.66 87.7395 141.303L87.8731 141.692C88.0796 142.154 88.4561 142.518 88.9784 142.639C89.0998 142.664 89.2213 142.676 89.3427 142.676C90.0836 142.676 90.7638 142.166 90.9338 141.401L96.5087 117.073C96.5087 117.073 97.4318 113.004 97.4318 112.955L97.4075 113.004ZM69.7517 66.6435L69.2901 70.4208C68.7921 69.68 68.3427 68.9634 67.9298 68.2468L69.7517 66.6435Z" colors="white, #D1D821s"/>
</g>
<defs>
<clipPath id="clip0_771_407">
<rect width="120" height="142.725" fill="white"/>
</clipPath>
</defs>
</svg>
