<?xml version="1.0" encoding="utf-8"?>
<!-- Generator: Adobe Illustrator 28.0.0, SVG Export Plug-In . SVG Version: 6.00 Build 0)  -->
<svg version="1.1" id="Capa_1" xmlns="http://www.w3.org/2000/svg" xmlns:xlink="http://www.w3.org/1999/xlink" x="0px" y="0px"
	 viewBox="0 0 253 325" style="enable-background:new 0 0 253 325;" xml:space="preserve">
<style type="text/css">
	.st0{fill:#FFFFFF;}
</style>
<path class="st0" d="M126.5,253C56.7,253,0,196.3,0,126.5C0,56.7,56.7,0,126.5,0C196.3,0,253,56.7,253,126.5
	C253,196.3,196.3,253,126.5,253z M126.5,10C62.3,10,10,62.3,10,126.5S62.3,243,126.5,243S243,190.7,243,126.5S190.7,10,126.5,10z"/>
<path class="st0" d="M125,130.3c-2.4,0-4.7-0.9-6.4-2.6L83.5,92.5c-2-2-2-5.1,0-7.1c2-2,5.1-2,7.1,0l34.5,34.5l34.5-34.5
	c2-2,5.1-2,7.1,0c2,2,2,5.1,0,7.1l-35.2,35.2C129.7,129.4,127.4,130.3,125,130.3z"/>
<path class="st0" d="M125,175.3c-2.4,0-4.7-0.9-6.4-2.6l-35.2-35.2c-2-2-2-5.1,0-7.1c2-2,5.1-2,7.1,0l34.5,34.5l34.5-34.5
	c2-2,5.1-2,7.1,0c2,2,2,5.1,0,7.1l-35.2,35.2C129.7,174.4,127.4,175.3,125,175.3z"/>
<g>
	<path class="st0" d="M89.8,306c1.8-0.8,3.2-1.9,4.2-3.4c1-1.5,1.5-3.3,1.5-5.4c0-2.1-0.5-3.9-1.5-5.4c-1-1.5-2.4-2.7-4.2-3.5
		c-1.8-0.8-4-1.2-6.5-1.2H71.2v28h6.5v-7.8h5.6c0.1,0,0.2,0,0.3,0L89,315h7L89.8,306C89.7,306,89.7,306,89.8,306z M87.4,293.6
		c1,0.9,1.5,2.1,1.5,3.6c0,1.5-0.5,2.7-1.5,3.6c-1,0.9-2.5,1.3-4.5,1.3h-5.3v-9.8h5.3C84.9,292.3,86.4,292.7,87.4,293.6z"/>
	<path class="st0" d="M34.2,300.8c-1-0.6-2-1.1-3.2-1.4c-1.1-0.3-2.3-0.7-3.5-0.9c-1.1-0.3-2.2-0.5-3.2-0.8c-1-0.3-1.7-0.6-2.3-1
		c-0.6-0.5-0.9-1-0.9-1.8c0-0.6,0.2-1.1,0.5-1.6c0.3-0.5,0.9-0.9,1.7-1.2c0.8-0.3,1.8-0.4,3.1-0.4s2.5,0.2,3.8,0.6
		c1.3,0.3,2.6,0.9,3.9,1.6l2-4.9c-1.3-0.8-2.8-1.4-4.5-1.8c-1.7-0.4-3.4-0.6-5.2-0.6c-2.6,0-4.8,0.4-6.6,1.2c-1.7,0.8-3,1.8-3.9,3.2
		c-0.9,1.3-1.3,2.8-1.3,4.4c0,1.5,0.3,2.7,0.9,3.7c0.6,1,1.4,1.7,2.4,2.3c1,0.6,2,1.1,3.2,1.4c1.2,0.4,2.3,0.7,3.5,1
		c1.2,0.2,2.2,0.5,3.2,0.8c1,0.3,1.7,0.6,2.3,1.1c0.6,0.4,0.9,1,0.9,1.8c0,0.6-0.2,1.1-0.6,1.6c-0.4,0.5-1,0.8-1.8,1.1
		c-0.8,0.2-1.8,0.4-3.1,0.4c-1.7,0-3.3-0.3-5-0.8c-1.6-0.6-3-1.3-4.2-2.1l-2.2,4.9c1.3,1,2.9,1.7,5,2.4c2.1,0.6,4.2,0.9,6.4,0.9
		c2.7,0,4.9-0.4,6.6-1.2c1.8-0.8,3.1-1.9,4-3.2s1.3-2.7,1.3-4.3c0-1.5-0.3-2.7-0.9-3.6C35.9,302.2,35.1,301.4,34.2,300.8z"/>
	<polygon class="st0" points="229.9,279 223.2,279 217.8,284.7 222.7,284.7 	"/>
	<path class="st0" d="M49.1,294.5c0.8-0.8,1.7-1.4,2.8-1.8c1.1-0.4,2.3-0.6,3.6-0.6c1.4,0,2.7,0.3,3.8,0.8c1.2,0.5,2.2,1.3,3.2,2.4
		l4.2-3.8c-1.3-1.6-3-2.9-5-3.7c-1.9-0.9-4.1-1.3-6.6-1.3c-2.2,0-4.2,0.4-6,1.1c-1.8,0.7-3.5,1.7-4.8,3c-1.4,1.3-2.4,2.8-3.2,4.6
		c-0.7,1.8-1.1,3.7-1.1,5.8s0.4,4,1.1,5.8c0.8,1.8,1.8,3.3,3.2,4.6s3,2.3,4.8,3c1.9,0.7,3.9,1,6,1c2.5,0,4.7-0.4,6.6-1.3
		c2-0.9,3.6-2.1,5-3.7l-4.2-3.8c-1,1.1-2,2-3.2,2.5c-1.2,0.5-2.5,0.8-3.8,0.8c-1.3,0-2.5-0.2-3.6-0.6c-1.1-0.4-2-1-2.8-1.8
		c-0.8-0.8-1.4-1.7-1.9-2.8c-0.4-1.1-0.6-2.3-0.6-3.6s0.2-2.5,0.6-3.6C47.7,296.3,48.3,295.3,49.1,294.5z"/>
	<polygon class="st0" points="189,303.3 202,303.3 202,298.3 189,298.3 189,292.2 203.8,292.2 203.8,287 182.6,287 182.6,315 
		204.3,315 204.3,309.8 189,309.8 	"/>
	<path class="st0" d="M125.1,290.6c-1.4-1.3-3-2.3-4.8-3c-1.8-0.7-3.9-1.1-6.1-1.1c-2.2,0-4.2,0.4-6.1,1.1c-1.9,0.7-3.5,1.7-4.9,3
		c-1.4,1.3-2.5,2.8-3.2,4.6c-0.7,1.8-1.1,3.7-1.1,5.8c0,2.1,0.4,4,1.1,5.8c0.8,1.8,1.8,3.3,3.2,4.6c1.4,1.3,3,2.3,4.9,3
		c1.9,0.7,3.9,1.1,6.2,1.1c2.2,0,4.2-0.4,6-1.1c1.9-0.7,3.5-1.7,4.8-3c1.4-1.3,2.5-2.8,3.2-4.6c0.8-1.8,1.2-3.7,1.2-5.8
		c0-2.1-0.4-4-1.2-5.8C127.5,293.5,126.4,291.9,125.1,290.6z M122.2,304.6c-0.4,1.1-1,2-1.8,2.8s-1.7,1.4-2.8,1.8
		c-1,0.4-2.2,0.6-3.4,0.6c-1.3,0-2.4-0.2-3.5-0.6c-1.1-0.4-2-1-2.8-1.8c-0.8-0.8-1.4-1.7-1.8-2.8c-0.4-1.1-0.6-2.3-0.6-3.6
		c0-1.3,0.2-2.5,0.6-3.6c0.5-1.1,1.1-2,1.9-2.8c0.8-0.8,1.7-1.4,2.8-1.8c1.1-0.4,2.2-0.6,3.5-0.6c1.3,0,2.4,0.2,3.5,0.6
		c1.1,0.4,2,1,2.8,1.8c0.8,0.8,1.4,1.7,1.8,2.8c0.5,1.1,0.7,2.3,0.7,3.6S122.7,303.5,122.2,304.6z"/>
	<path class="st0" d="M230.4,315h6.8l-12.5-28h-6.4l-12.5,28h6.6l2.5-6h13L230.4,315z M216.9,304.1l4.5-10.7l4.4,10.7H216.9z"/>
	<polygon class="st0" points="140.8,287 134.3,287 134.3,315 154.8,315 154.8,309.7 140.8,309.7 	"/>
	<polygon class="st0" points="164.9,287 158.5,287 158.5,315 179,315 179,309.7 164.9,309.7 	"/>
</g>
</svg>
