<svg width="46" height="65" viewBox="0 0 46 65" fill="none" xmlns="http://www.w3.org/2000/svg">
<path d="M22.5352 44.9444C10.1008 44.9444 0 34.8718 0 22.4722C0 10.0725 10.1008 0 22.5352 0C34.9697 0 45.0704 10.0725 45.0704 22.4722C45.0704 34.8718 34.9697 44.9444 22.5352 44.9444ZM22.5352 1.77646C11.0984 1.77646 1.78144 11.0673 1.78144 22.4722C1.78144 33.877 11.0984 43.1679 22.5352 43.1679C33.9721 43.1679 43.289 33.877 43.289 22.4722C43.289 11.0673 33.9721 1.77646 22.5352 1.77646Z" fill="white"/>
<path d="M22.2851 22.4174C22.7127 22.4174 23.1224 22.5773 23.4252 22.8793L29.6781 29.1324C30.0344 29.4877 30.0344 30.0384 29.6781 30.3937C29.3218 30.749 28.7696 30.749 28.4133 30.3937L22.2673 24.2649L16.1213 30.3937C15.7651 30.749 15.2128 30.749 14.8565 30.3937C14.5002 30.0384 14.5002 29.4877 14.8565 29.1324L21.1272 22.8793C21.4478 22.5773 21.8576 22.4174 22.2851 22.4174Z" fill="white"/>
<path d="M22.2868 14.4233C22.7144 14.4233 23.1241 14.5831 23.427 14.8851L29.6976 21.1383C30.0539 21.4936 30.0539 22.0443 29.6976 22.3995C29.3413 22.7548 28.7891 22.7548 28.4328 22.3995L22.2868 16.2708L16.1409 22.3995C15.7846 22.7548 15.2323 22.7548 14.876 22.3995C14.5198 22.0443 14.5198 21.4936 14.876 21.1383L21.1467 14.8851C21.4496 14.5831 21.8593 14.4233 22.2868 14.4233Z" fill="white"/>
<path d="M7.63779 61.6588C6.31948 61.6588 4.9899 61.332 4.20117 60.8475L5.0575 58.9095C5.80117 59.3489 6.79272 59.6306 7.66032 59.6306C8.41525 59.6306 8.68567 59.4729 8.68567 59.2025C8.68567 58.2109 4.32511 59.0109 4.32511 56.0701C4.32511 54.6053 5.55328 53.4109 7.99835 53.4109C9.0575 53.4109 10.1505 53.6363 10.973 54.0982L10.173 56.025C9.39553 55.6306 8.66314 55.4391 7.97581 55.4391C7.19835 55.4391 6.95046 55.6644 6.95046 55.9349C6.95046 56.8813 11.311 56.0926 11.311 58.9996C11.311 60.4419 10.0829 61.6588 7.63779 61.6588ZM15.877 61.6588C13.4544 61.6588 12.0347 60.2954 12.0347 57.9292V53.5912H14.6939V57.8503C14.6939 59.056 15.1558 59.5067 15.8995 59.5067C16.6432 59.5067 17.1051 59.056 17.1051 57.8503V53.5912H19.7192V57.9292C19.7192 60.2954 18.2995 61.6588 15.877 61.6588ZM27.248 57.3546C28.1719 57.6926 28.7128 58.3687 28.7128 59.3039C28.7128 60.6785 27.5522 61.4785 25.3776 61.4785H20.9381V53.5912H25.1522C27.3269 53.5912 28.341 54.4588 28.341 55.6532C28.341 56.3856 27.9691 56.994 27.248 57.3546ZM24.7917 55.4503H23.5522V56.6222H24.7917C25.3888 56.6222 25.6593 56.4194 25.6593 56.0363C25.6593 55.6532 25.3888 55.4503 24.7917 55.4503ZM25.1522 59.6194C25.7381 59.6194 26.0311 59.4053 26.0311 58.9996C26.0311 58.594 25.7381 58.3799 25.1522 58.3799H23.5522V59.6194H25.1522ZM29.6529 61.4785V53.5912H32.3121V61.4785H29.6529ZM38.3133 61.4785L36.9725 59.4954H36.2513V61.4785H33.5922V53.5912H37.3894C39.5866 53.5912 40.9837 54.7405 40.9837 56.5658C40.9837 57.7039 40.4429 58.5602 39.4964 59.0447L41.1528 61.4785H38.3133ZM38.302 56.5658C38.302 55.9912 37.9528 55.6419 37.2204 55.6419H36.2513V57.4898H37.2204C37.9528 57.4898 38.302 57.1405 38.302 56.5658Z" fill="white"/>
</svg>
