<svg width="88" height="190" viewBox="0 0 88 190" fill="none" xmlns="http://www.w3.org/2000/svg">
<path id="Vector" d="M87.2868 120.676C87.2868 118.607 85.5864 116.992 83.5176 116.907C80.7119 116.794 79.8617 119.713 79.8617 119.769L68.299 169.79C68.2139 170.101 67.7888 170.158 67.7038 169.846C63.9063 153.551 56.1977 119.939 50.2747 94.4334C50.2747 94.3483 50.2747 94.2633 50.3314 94.1783C51.2382 93.1864 58.4933 85.1945 58.4933 85.1945C59.882 83.6641 59.7969 81.3119 58.2666 79.9233C58.0965 79.7532 57.8982 79.6115 57.6998 79.4981C56.1978 78.5913 54.2423 78.818 53.0237 80.15L48.2342 85.5062C45.2018 72.4698 42.7362 61.8139 41.6026 56.9394L41.0925 54.7856C41.0925 54.7856 40.9791 54.6155 40.9508 54.5305C40.8091 54.0771 40.554 53.652 40.2706 53.3119C40.1289 53.1702 40.0156 53.0285 39.8739 52.8868C39.5054 52.5467 39.0237 52.2917 38.5135 52.1216C38.1451 52.0083 37.7767 51.8949 37.3516 51.8949C36.3314 51.8949 35.4245 52.32 34.7443 52.9435L34.5459 53.1702L23.3233 65.0447L30.7484 5.02041C30.8901 4.08519 30.3232 2.55482 29.8698 1.98802L29.6431 1.73296C28.9913 1.08114 28.1127 0.684381 27.1208 0.627701C25.7605 0.571021 24.1735 1.93134 24.3152 1.81798L1.69977 21.7127C1.01961 22.3362 0.594509 23.1864 0.537829 24.1216C0.481149 25.0569 0.792888 25.9637 1.38803 26.6439C2.01151 27.3524 2.86172 27.7775 3.79694 27.8342C4.76051 27.9192 5.63905 27.5791 6.31921 26.9556L13.2342 20.8909C15.4731 24.7168 17.882 28.2309 20.4042 31.3483C20.4609 31.405 20.4892 31.49 20.4609 31.5751L15.2463 73.8018C15.2463 73.9718 15.1896 74.5386 15.1896 74.6803C15.1896 76.7208 16.8334 78.3645 18.8739 78.3645C18.9589 78.3645 19.0156 78.3362 19.1006 78.3078C19.9791 78.2512 20.801 77.9111 21.3961 77.3159L35.6795 62.1824L37.2099 68.7289C39.7322 79.5548 61.1006 171.207 64.7281 186.709L65.0398 187.616C65.5216 188.692 66.4002 189.543 67.6188 189.826C67.9022 189.883 68.1856 189.911 68.469 189.911C70.1977 189.911 71.7848 188.721 72.1816 186.935L85.1897 130.17C85.1897 130.17 87.3435 120.676 87.3435 120.563L87.2868 120.676ZM22.7565 12.5022L21.6795 21.316C20.5176 19.5872 19.469 17.9151 18.5054 16.2431L22.7565 12.5022Z" fill="#D1D821"/>
</svg>
