<?xml version="1.0" encoding="utf-8"?>
<!-- Generator: Adobe Illustrator 28.0.0, SVG Export Plug-In . SVG Version: 6.00 Build 0)  -->
<svg version="1.1" id="Layer_1" xmlns="http://www.w3.org/2000/svg" xmlns:xlink="http://www.w3.org/1999/xlink" x="0px" y="0px"
	 viewBox="0 0 512 512" style="enable-background:new 0 0 512 512;" xml:space="preserve">
<path class="st0" d="M338.2,188.9L271.1,256l67.1,67.1c4.2,4.2,4.2,10.9,0,15.1c-2.1,2.1-4.8,3.1-7.6,3.1c-2.7,0-5.5-1-7.6-3.1
	L256,271.1l-67.1,67.1c-2.1,2.1-4.8,3.1-7.6,3.1c-2.7,0-5.5-1-7.6-3.1c-4.2-4.2-4.2-10.9,0-15.1l67.1-67.1l-67.1-67.1
	c-4.2-4.2-4.2-10.9,0-15.1c4.2-4.2,10.9-4.2,15.1,0l67.1,67.1l67.1-67.1c4.2-4.2,10.9-4.2,15.1,0C342.3,178,342.3,184.7,338.2,188.9
	L338.2,188.9z M512,256c0,141.2-114.8,256-256,256S0,397.2,0,256S114.8,0,256,0S512,114.8,512,256z M490.7,256
	c0-129.4-105.3-234.7-234.7-234.7S21.3,126.6,21.3,256S126.6,490.7,256,490.7S490.7,385.4,490.7,256z"/>
</svg>
