<svg width="100" height="100" viewBox="0 0 100 100" fill="none" xmlns="http://www.w3.org/2000/svg">
<circle cx="50" cy="50" r="48.5" stroke="#CBDB43" stroke-width="3"/>
<mask id="path-2-inside-1_1350_733" fill="white">
<path d="M50.0008 36.552C54.3805 36.552 54.8999 36.5684 56.6291 36.6477C58.417 36.7297 60.2583 37.137 61.5609 38.4397C62.8759 39.7547 63.271 41.5782 63.353 43.3716C63.4323 45.1008 63.4487 45.6202 63.4487 49.9998C63.4487 54.3795 63.4323 54.8989 63.353 56.6281C63.2723 58.4065 62.8554 60.2655 61.5609 61.56C60.246 62.875 58.4238 63.27 56.6291 63.352C54.8999 63.4313 54.3805 63.4477 50.0008 63.4477C45.6212 63.4477 45.1017 63.4313 43.3726 63.352C41.6079 63.2714 39.7242 62.8449 38.4407 61.56C37.1325 60.2518 36.7307 58.4106 36.6486 56.6281C36.5694 54.8989 36.553 54.3795 36.553 49.9998C36.553 45.6202 36.5694 45.1008 36.6486 43.3716C36.7293 41.6001 37.1503 39.7301 38.4407 38.4397C39.7529 37.1275 41.5833 36.7297 43.3726 36.6477C45.1017 36.5684 45.6212 36.552 50.0008 36.552ZM50.0008 33.5967C45.546 33.5967 44.9869 33.6158 43.2372 33.6951C40.7016 33.8113 38.1837 34.5166 36.3507 36.3497C34.5108 38.1896 33.8123 40.702 33.6961 43.2363C33.6168 44.9859 33.5977 45.545 33.5977 49.9998C33.5977 54.4547 33.6168 55.0137 33.6961 56.7634C33.8123 59.2963 34.5203 61.8211 36.3507 63.65C38.1892 65.4885 40.7057 66.1884 43.2372 66.3046C44.9869 66.3839 45.546 66.403 50.0008 66.403C54.4556 66.403 55.0147 66.3839 56.7644 66.3046C59.2987 66.1884 61.8193 65.4817 63.651 63.65C65.4922 61.8088 66.1894 59.2977 66.3056 56.7634C66.3848 55.0137 66.404 54.4547 66.404 49.9998C66.404 45.545 66.3848 44.9859 66.3056 43.2363C66.1894 40.7006 65.4827 38.1814 63.651 36.3497C61.8152 34.5139 59.2918 33.8099 56.7644 33.6951C55.0147 33.6158 54.4556 33.5967 50.0008 33.5967Z"/>
</mask>
<path d="M50.0008 36.552C54.3805 36.552 54.8999 36.5684 56.6291 36.6477C58.417 36.7297 60.2583 37.137 61.5609 38.4397C62.8759 39.7547 63.271 41.5782 63.353 43.3716C63.4323 45.1008 63.4487 45.6202 63.4487 49.9998C63.4487 54.3795 63.4323 54.8989 63.353 56.6281C63.2723 58.4065 62.8554 60.2655 61.5609 61.56C60.246 62.875 58.4238 63.27 56.6291 63.352C54.8999 63.4313 54.3805 63.4477 50.0008 63.4477C45.6212 63.4477 45.1017 63.4313 43.3726 63.352C41.6079 63.2714 39.7242 62.8449 38.4407 61.56C37.1325 60.2518 36.7307 58.4106 36.6486 56.6281C36.5694 54.8989 36.553 54.3795 36.553 49.9998C36.553 45.6202 36.5694 45.1008 36.6486 43.3716C36.7293 41.6001 37.1503 39.7301 38.4407 38.4397C39.7529 37.1275 41.5833 36.7297 43.3726 36.6477C45.1017 36.5684 45.6212 36.552 50.0008 36.552ZM50.0008 33.5967C45.546 33.5967 44.9869 33.6158 43.2372 33.6951C40.7016 33.8113 38.1837 34.5166 36.3507 36.3497C34.5108 38.1896 33.8123 40.702 33.6961 43.2363C33.6168 44.9859 33.5977 45.545 33.5977 49.9998C33.5977 54.4547 33.6168 55.0137 33.6961 56.7634C33.8123 59.2963 34.5203 61.8211 36.3507 63.65C38.1892 65.4885 40.7057 66.1884 43.2372 66.3046C44.9869 66.3839 45.546 66.403 50.0008 66.403C54.4556 66.403 55.0147 66.3839 56.7644 66.3046C59.2987 66.1884 61.8193 65.4817 63.651 63.65C65.4922 61.8088 66.1894 59.2977 66.3056 56.7634C66.3848 55.0137 66.404 54.4547 66.404 49.9998C66.404 45.545 66.3848 44.9859 66.3056 43.2363C66.1894 40.7006 65.4827 38.1814 63.651 36.3497C61.8152 34.5139 59.2918 33.8099 56.7644 33.6951C55.0147 33.6158 54.4556 33.5967 50.0008 33.5967Z" fill="white"/>
<path d="M56.6291 36.6477L57.51 17.4426L57.5096 17.4425L56.6291 36.6477ZM63.353 43.3716L44.1478 44.2499L44.1479 44.2521L63.353 43.3716ZM63.353 56.6281L44.1479 55.7475L44.1474 55.7571L63.353 56.6281ZM56.6291 63.352L55.7514 44.1468L55.7485 44.1469L56.6291 63.352ZM43.3726 63.352L44.2531 44.1469L44.2503 44.1468L43.3726 63.352ZM38.4407 61.56L52.0423 47.9729L52.035 47.9656L38.4407 61.56ZM36.6486 56.6281L17.4435 57.5086L17.4437 57.5118L36.6486 56.6281ZM36.6486 43.3716L55.8538 44.2521L55.854 44.2459L36.6486 43.3716ZM43.3726 36.6477L44.2529 55.8528L44.2531 55.8528L43.3726 36.6477ZM43.2372 33.6951L42.367 14.4895L42.3572 14.49L43.2372 33.6951ZM33.6961 43.2363L14.4909 42.3558L14.4905 42.366L33.6961 43.2363ZM33.6961 56.7634L14.4905 57.6337L14.491 57.6444L33.6961 56.7634ZM36.3507 63.65L49.945 50.0557L49.9399 50.0506L36.3507 63.65ZM43.2372 66.3046L42.3558 85.5097L42.367 85.5102L43.2372 66.3046ZM56.7644 66.3046L57.6346 85.5102L57.6449 85.5097L56.7644 66.3046ZM66.3056 56.7634L85.5107 57.6439L85.5112 57.6337L66.3056 56.7634ZM66.3056 43.2363L85.5112 42.366L85.5107 42.3563L66.3056 43.2363ZM56.7644 33.6951L57.6369 14.4896L57.6346 14.4895L56.7644 33.6951ZM50.0008 55.7773C52.2121 55.7773 53.2886 55.7818 54.0074 55.793C54.6106 55.8025 54.9461 55.816 55.7485 55.8528L57.5096 17.4425C55.3312 17.3427 54.4595 17.3267 50.0008 17.3267V55.7773ZM55.7481 55.8528C55.5833 55.8452 54.6574 55.7994 53.3393 55.3713C51.9292 54.9134 49.8853 53.9527 47.9666 52.034L75.1553 24.8454C68.749 18.4391 60.935 17.5997 57.51 17.4426L55.7481 55.8528ZM47.9666 52.034C46.0734 50.1408 45.1003 48.1046 44.6287 46.6479C44.1937 45.3042 44.1531 44.3656 44.1478 44.2499L82.5582 42.4933C82.4026 39.0898 81.5861 31.2762 75.1553 24.8454L47.9666 52.034ZM44.1479 44.2521C44.1847 45.0545 44.1982 45.3901 44.2076 45.9932C44.2189 46.7121 44.2234 47.7885 44.2234 49.9998H82.674C82.674 45.5411 82.658 44.6695 82.5581 42.491L44.1479 44.2521ZM44.2234 49.9998C44.2234 52.2112 44.2189 53.2876 44.2076 54.0064C44.1982 54.6096 44.1847 54.9451 44.1479 55.7475L82.5581 57.5086C82.658 55.3302 82.674 54.4585 82.674 49.9998H44.2234ZM44.1474 55.7571C44.1571 55.5443 44.2077 54.626 44.6298 53.3286C45.0758 51.9574 46.026 49.9062 47.9666 47.9656L75.1553 75.1543C81.5452 68.7644 82.4023 60.9443 82.5585 57.4991L44.1474 55.7571ZM47.9666 47.9656C49.858 46.0742 51.8932 45.1005 53.3522 44.6281C54.6973 44.1925 55.6369 44.152 55.7514 44.1468L57.5067 82.5573C60.9144 82.4015 68.7254 81.5842 75.1553 75.1543L47.9666 47.9656ZM55.7485 44.1469C54.9461 44.1837 54.6106 44.1972 54.0074 44.2067C53.2886 44.2179 52.2121 44.2224 50.0008 44.2224V82.673C54.4595 82.673 55.3312 82.657 57.5096 82.5571L55.7485 44.1469ZM50.0008 44.2224C47.7895 44.2224 46.7131 44.2179 45.9942 44.2067C45.3911 44.1972 45.0555 44.1837 44.2531 44.1469L42.492 82.5571C44.6705 82.657 45.5421 82.673 50.0008 82.673V44.2224ZM44.2503 44.1468C44.5075 44.1585 45.4102 44.2141 46.6769 44.6264C47.9949 45.0554 50.065 45.9935 52.0423 47.9729L24.8391 75.1471C31.2197 81.5345 39.0702 82.4008 42.4949 82.5573L44.2503 44.1468ZM52.035 47.9656C53.9529 49.8835 54.9154 51.9298 55.3746 53.3476C55.8026 54.6689 55.8467 55.595 55.8536 55.7444L17.4437 57.5118C17.5997 60.9026 18.424 68.7319 24.8464 75.1543L52.035 47.9656ZM55.8538 55.7475C55.817 54.9451 55.8035 54.6096 55.794 54.0064C55.7827 53.2876 55.7783 52.2112 55.7783 49.9998H17.3277C17.3277 54.4585 17.3436 55.3302 17.4435 57.5086L55.8538 55.7475ZM55.7783 49.9998C55.7783 47.7885 55.7827 46.7121 55.794 45.9932C55.8035 45.3901 55.817 45.0546 55.8538 44.2521L17.4435 42.491C17.3436 44.6695 17.3277 45.5411 17.3277 49.9998H55.7783ZM55.854 44.2459C55.8434 44.4789 55.7906 45.3901 55.373 46.6735C54.9347 48.0207 53.9906 50.0785 52.035 52.034L24.8464 24.8454C18.4612 31.2305 17.5997 39.0605 17.4432 42.4973L55.854 44.2459ZM52.035 52.034C50.1323 53.9368 48.0923 54.9057 46.6507 55.3725C45.3156 55.8049 44.3819 55.8469 44.2529 55.8528L42.4923 17.4425C39.0929 17.5983 31.2736 18.4181 24.8464 24.8454L52.035 52.034ZM44.2531 55.8528C45.0555 55.816 45.3911 55.8025 45.9942 55.793C46.7131 55.7818 47.7895 55.7773 50.0008 55.7773V17.3267C45.5421 17.3267 44.6705 17.3427 42.492 17.4425L44.2531 55.8528ZM50.0008 14.3714C45.4493 14.3714 44.5508 14.3906 42.367 14.4895L44.1075 52.9007C44.9277 52.8635 45.2825 52.8491 45.9132 52.839C46.6523 52.8271 47.7584 52.822 50.0008 52.822V14.3714ZM42.3572 14.49C37.2063 14.726 29.2554 16.2563 22.7563 22.7553L49.945 49.944C47.112 52.777 44.1969 52.8966 44.1173 52.9002L42.3572 14.49ZM22.7563 22.7553C16.2431 29.2686 14.7263 37.2217 14.491 42.3558L52.9012 44.1168C52.8982 44.1822 52.7784 47.1106 49.945 49.944L22.7563 22.7553ZM14.4905 42.366C14.3915 44.5498 14.3724 45.4483 14.3724 49.9998H52.823C52.823 47.7574 52.8281 46.6513 52.84 45.9122C52.8501 45.2815 52.8645 44.9267 52.9017 44.1065L14.4905 42.366ZM14.3724 49.9998C14.3724 54.5514 14.3915 55.4499 14.4905 57.6337L52.9017 55.8932C52.8645 55.073 52.8501 54.7182 52.84 54.0875C52.8281 53.3484 52.823 52.2423 52.823 49.9998H14.3724ZM14.491 57.6444C14.727 62.7887 16.2588 70.7516 22.7614 77.2494L49.9399 50.0506C52.7819 52.8905 52.8976 55.8039 52.9012 55.8824L14.491 57.6444ZM22.7563 77.2443C29.2684 83.7565 37.2259 85.2742 42.3558 85.5097L44.1187 47.0995C44.1855 47.1026 47.1099 47.2206 49.945 50.0557L22.7563 77.2443ZM42.367 85.5102C44.5508 85.6091 45.4493 85.6283 50.0008 85.6283V47.1777C47.7584 47.1777 46.6523 47.1726 45.9132 47.1607C45.2825 47.1506 44.9277 47.1362 44.1075 47.099L42.367 85.5102ZM50.0008 85.6283C54.5523 85.6283 55.4509 85.6091 57.6346 85.5102L55.8941 47.099C55.074 47.1362 54.7192 47.1506 54.0884 47.1607C53.3494 47.1726 52.2433 47.1777 50.0008 47.1777V85.6283ZM57.6449 85.5097C62.7951 85.2736 70.7481 83.7415 77.2453 77.2443L50.0566 50.0557C52.8905 47.2219 55.8022 47.1032 55.8839 47.0995L57.6449 85.5097ZM77.2453 77.2443C83.7612 70.7285 85.2754 62.7752 85.5107 57.6439L47.1004 55.8829C47.1033 55.8202 47.2233 52.889 50.0566 50.0557L77.2453 77.2443ZM85.5112 57.6337C85.6101 55.4499 85.6293 54.5514 85.6293 49.9998H47.1787C47.1787 52.2423 47.1735 53.3484 47.1617 54.0875C47.1516 54.7182 47.1371 55.073 47.1 55.8932L85.5112 57.6337ZM85.6293 49.9998C85.6293 45.4483 85.6101 44.5498 85.5112 42.366L47.1 44.1065C47.1371 44.9267 47.1516 45.2815 47.1617 45.9122C47.1735 46.6513 47.1787 47.7574 47.1787 49.9998H85.6293ZM85.5107 42.3563C85.2746 37.2026 83.7417 29.2517 77.2453 22.7553L50.0566 49.944C47.2236 47.111 47.1042 44.1986 47.1004 44.1163L85.5107 42.3563ZM77.2453 22.7553C70.7397 16.2497 62.7784 14.7232 57.6369 14.4896L55.8919 52.9006C55.8053 52.8967 52.8907 52.7781 50.0566 49.944L77.2453 22.7553ZM57.6346 14.4895C55.4509 14.3906 54.5523 14.3714 50.0008 14.3714V52.822C52.2433 52.822 53.3494 52.8271 54.0884 52.839C54.7192 52.8491 55.074 52.8635 55.8941 52.9007L57.6346 14.4895Z" fill="#CBDB43" mask="url(#path-2-inside-1_1350_733)"/>
<mask id="path-4-inside-2_1350_733" fill="white">
<path d="M50.0012 41.5771C45.3495 41.5771 41.5781 45.3485 41.5781 50.0002C41.5781 54.6518 45.3495 58.4232 50.0012 58.4232C54.6528 58.4232 58.4242 54.6518 58.4242 50.0002C58.4242 45.3485 54.6528 41.5771 50.0012 41.5771ZM50.0012 55.4679C46.9816 55.4679 44.5334 53.0197 44.5334 50.0002C44.5334 46.9806 46.9816 44.5325 50.0012 44.5325C53.0207 44.5325 55.4689 46.9806 55.4689 50.0002C55.4689 53.0197 53.0207 55.4679 50.0012 55.4679Z"/>
</mask>
<path d="M50.0012 41.5771C45.3495 41.5771 41.5781 45.3485 41.5781 50.0002C41.5781 54.6518 45.3495 58.4232 50.0012 58.4232C54.6528 58.4232 58.4242 54.6518 58.4242 50.0002C58.4242 45.3485 54.6528 41.5771 50.0012 41.5771ZM50.0012 55.4679C46.9816 55.4679 44.5334 53.0197 44.5334 50.0002C44.5334 46.9806 46.9816 44.5325 50.0012 44.5325C53.0207 44.5325 55.4689 46.9806 55.4689 50.0002C55.4689 53.0197 53.0207 55.4679 50.0012 55.4679Z" fill="#CBDB43"/>
<path d="M50.0012 22.3519C34.7316 22.3519 22.3528 34.7307 22.3528 50.0002H60.8034C60.8034 55.9663 55.9673 60.8024 50.0012 60.8024V22.3519ZM22.3528 50.0002C22.3528 65.2697 34.7316 77.6485 50.0012 77.6485V39.1979C55.9673 39.1979 60.8034 44.034 60.8034 50.0002H22.3528ZM50.0012 77.6485C65.2707 77.6485 77.6495 65.2697 77.6495 50.0002H39.1989C39.1989 44.034 44.035 39.1979 50.0012 39.1979V77.6485ZM77.6495 50.0002C77.6495 34.7307 65.2706 22.3519 50.0012 22.3519V60.8024C44.035 60.8024 39.1989 55.9664 39.1989 50.0002H77.6495ZM50.0012 36.2426C57.5994 36.2426 63.7587 42.4019 63.7587 50.0002H25.3081C25.3081 63.6376 36.3638 74.6932 50.0012 74.6932V36.2426ZM63.7587 50.0002C63.7587 57.5985 57.5994 63.7577 50.0012 63.7577V25.3072C36.3638 25.3072 25.3081 36.3628 25.3081 50.0002H63.7587ZM50.0012 63.7577C42.4029 63.7577 36.2436 57.5985 36.2436 50.0002H74.6942C74.6942 36.3628 63.6385 25.3072 50.0012 25.3072V63.7577ZM36.2436 50.0002C36.2436 42.4019 42.4029 36.2426 50.0012 36.2426V74.6932C63.6385 74.6932 74.6942 63.6376 74.6942 50.0002H36.2436Z" fill="#CBDB43" mask="url(#path-4-inside-2_1350_733)"/>
<path d="M58.7574 43.2121C59.8445 43.2121 60.7258 42.3309 60.7258 41.2438C60.7258 40.1567 59.8445 39.2754 58.7574 39.2754C57.6703 39.2754 56.7891 40.1567 56.7891 41.2438C56.7891 42.3309 57.6703 43.2121 58.7574 43.2121Z" fill="#CBDB43" stroke="#CBDB43" stroke-width="19.2253"/>
</svg>
