<svg width="100" height="100" viewBox="0 0 100 100" fill="none" xmlns="http://www.w3.org/2000/svg">
<circle cx="50" cy="50" r="48.5" stroke="#CBDB43" stroke-width="3"/>
<g clip-path="url(#clip0_1350_748)">
<path d="M44.2422 44.2023H50.4968V47.3463C50.5552 47.285 50.5816 47.2617 50.6026 47.2343C51.9851 45.44 53.8263 44.3735 56.0255 43.9447C57.8916 43.581 59.7364 43.7213 61.4729 44.5527C62.5869 45.0859 63.6401 45.745 64.3602 46.778C65.4015 48.2707 66.0872 49.9109 66.1911 51.7551C66.1945 51.8184 66.1942 51.882 66.1942 51.9457C66.1942 56.6144 66.1942 61.2835 66.1942 65.9523V66.1882H59.5121C59.5091 66.1238 59.5033 66.0571 59.5033 65.99C59.5052 62.5727 59.5098 59.1554 59.5079 55.7377C59.5075 54.9765 59.5369 54.2099 59.4605 53.4548C59.2459 51.3377 57.7087 49.9773 55.5717 49.9456C54.9223 49.9361 54.2905 50.0223 53.6751 50.2289C52.3361 50.6786 51.5672 51.6587 51.1408 52.952C50.9605 53.499 50.883 54.0636 50.8834 54.6395C50.8845 58.3999 50.8837 62.1606 50.8837 65.921V66.1837H44.2426V44.2023H44.2422Z" fill="#CBDB43"/>
<path d="M33.6133 66.1902V44.2051H40.4103V66.1902H33.6133Z" fill="#CBDB43"/>
<path d="M37.1092 40.9087C34.9757 40.9823 33.1692 39.2769 33.0997 37.1243C33.0313 35.008 34.7175 33.1943 36.7933 33.099C38.9623 32.9995 40.8361 34.6386 40.9274 36.8563C41.0167 39.0314 39.3141 40.8325 37.1092 40.9087Z" fill="#CBDB43"/>
</g>
<defs>
<clipPath id="clip0_1350_748">
<rect width="33.0951" height="33.0951" fill="white" transform="translate(33.0977 33.0952)"/>
</clipPath>
</defs>
</svg>
