<svg width="100" height="100" viewBox="0 0 100 100" fill="none" xmlns="http://www.w3.org/2000/svg">
<mask id="path-1-inside-1_1350_744" fill="white">
<path d="M49.9983 33.5967C45.6494 33.6014 41.4799 35.3311 38.4047 38.4063C35.3296 41.4814 33.5999 45.6509 33.5952 49.9998C33.4229 63.0855 48.8488 71.0902 59.4302 63.419C59.5822 63.3179 59.7125 63.1873 59.8132 63.0349C59.914 62.8826 59.9832 62.7116 60.0167 62.5321C60.0503 62.3526 60.0476 62.1682 60.0087 61.9898C59.9698 61.8113 59.8955 61.6425 59.7903 61.4932C59.6851 61.344 59.551 61.2173 59.396 61.1207C59.241 61.0241 59.0682 60.9596 58.8878 60.9309C58.7075 60.9022 58.5232 60.91 58.3459 60.9537C58.1686 60.9974 58.0018 61.0762 57.8555 61.1854C49.0415 67.5731 36.1923 60.9052 36.329 49.9998C37.0795 31.8661 62.9199 31.8702 63.6676 49.9998V52.7337C63.6676 53.4588 63.3796 54.1541 62.8669 54.6668C62.3542 55.1795 61.6588 55.4676 60.9338 55.4676C60.2087 55.4676 59.5134 55.1795 59.0007 54.6668C58.488 54.1541 58.1999 53.4588 58.1999 52.7337V49.9998C57.8555 39.1615 42.1399 39.1628 41.7968 49.9998C41.8127 51.662 42.3319 53.2804 43.2859 54.6416C44.2399 56.0028 45.584 57.043 47.141 57.6251C48.698 58.2072 50.3948 58.3039 52.0079 57.9024C53.6209 57.5009 55.0744 56.6201 56.1769 55.376C56.7698 56.4225 57.6914 57.2443 58.7987 57.7141C59.9061 58.1839 61.1375 58.2753 62.3021 57.9744C63.4667 57.6734 64.4996 56.9968 65.2407 56.0494C65.9818 55.1019 66.3898 53.9365 66.4015 52.7337V49.9998C66.3968 45.6509 64.6671 41.4814 61.5919 38.4063C58.5168 35.3311 54.3473 33.6014 49.9983 33.5967ZM49.9983 55.4676C48.5482 55.4676 47.1575 54.8915 46.1321 53.8661C45.1067 52.8407 44.5306 51.45 44.5306 49.9998C44.5306 48.5497 45.1067 47.159 46.1321 46.1336C47.1575 45.1082 48.5482 44.5321 49.9983 44.5321C51.4485 44.5321 52.8392 45.1082 53.8646 46.1336C54.89 47.159 55.4661 48.5497 55.4661 49.9998C55.4661 51.45 54.89 52.8407 53.8646 53.8661C52.8392 54.8915 51.4485 55.4676 49.9983 55.4676Z"/>
</mask>
<path d="M49.9983 33.5967C45.6494 33.6014 41.4799 35.3311 38.4047 38.4063C35.3296 41.4814 33.5999 45.6509 33.5952 49.9998C33.4229 63.0855 48.8488 71.0902 59.4302 63.419C59.5822 63.3179 59.7125 63.1873 59.8132 63.0349C59.914 62.8826 59.9832 62.7116 60.0167 62.5321C60.0503 62.3526 60.0476 62.1682 60.0087 61.9898C59.9698 61.8113 59.8955 61.6425 59.7903 61.4932C59.6851 61.344 59.551 61.2173 59.396 61.1207C59.241 61.0241 59.0682 60.9596 58.8878 60.9309C58.7075 60.9022 58.5232 60.91 58.3459 60.9537C58.1686 60.9974 58.0018 61.0762 57.8555 61.1854C49.0415 67.5731 36.1923 60.9052 36.329 49.9998C37.0795 31.8661 62.9199 31.8702 63.6676 49.9998V52.7337C63.6676 53.4588 63.3796 54.1541 62.8669 54.6668C62.3542 55.1795 61.6588 55.4676 60.9338 55.4676C60.2087 55.4676 59.5134 55.1795 59.0007 54.6668C58.488 54.1541 58.1999 53.4588 58.1999 52.7337V49.9998C57.8555 39.1615 42.1399 39.1628 41.7968 49.9998C41.8127 51.662 42.3319 53.2804 43.2859 54.6416C44.2399 56.0028 45.584 57.043 47.141 57.6251C48.698 58.2072 50.3948 58.3039 52.0079 57.9024C53.6209 57.5009 55.0744 56.6201 56.1769 55.376C56.7698 56.4225 57.6914 57.2443 58.7987 57.7141C59.9061 58.1839 61.1375 58.2753 62.3021 57.9744C63.4667 57.6734 64.4996 56.9968 65.2407 56.0494C65.9818 55.1019 66.3898 53.9365 66.4015 52.7337V49.9998C66.3968 45.6509 64.6671 41.4814 61.5919 38.4063C58.5168 35.3311 54.3473 33.6014 49.9983 33.5967ZM49.9983 55.4676C48.5482 55.4676 47.1575 54.8915 46.1321 53.8661C45.1067 52.8407 44.5306 51.45 44.5306 49.9998C44.5306 48.5497 45.1067 47.159 46.1321 46.1336C47.1575 45.1082 48.5482 44.5321 49.9983 44.5321C51.4485 44.5321 52.8392 45.1082 53.8646 46.1336C54.89 47.159 55.4661 48.5497 55.4661 49.9998C55.4661 51.45 54.89 52.8407 53.8646 53.8661C52.8392 54.8915 51.4485 55.4676 49.9983 55.4676Z" fill="white"/>
<path d="M49.9983 33.5967L50.0191 14.3714L49.9983 14.3714L49.9775 14.3714L49.9983 33.5967ZM33.5952 49.9998L52.8188 50.2529L52.8203 50.1368L52.8205 50.0206L33.5952 49.9998ZM59.4302 63.419L48.7824 47.4116L48.4596 47.6263L48.1458 47.8538L59.4302 63.419ZM57.8555 61.1854L69.1372 76.7525L69.2468 76.6731L69.3552 76.5922L57.8555 61.1854ZM36.329 49.9998L17.1202 49.2049L17.1087 49.4818L17.1053 49.7589L36.329 49.9998ZM63.6676 49.9998H82.8929V49.6036L82.8766 49.2076L63.6676 49.9998ZM58.1999 49.9998H77.4252V49.6944L77.4155 49.3891L58.1999 49.9998ZM41.7968 49.9998L22.5811 49.3915L22.5686 49.7876L22.5723 50.1838L41.7968 49.9998ZM56.1769 55.376L72.9038 45.8985L59.6369 22.4836L41.7882 42.6254L56.1769 55.376ZM66.4015 52.7337L85.6259 52.9205L85.6268 52.8271V52.7337H66.4015ZM66.4015 49.9998H85.6268V49.9894L85.6268 49.979L66.4015 49.9998ZM49.9983 55.4676V74.6929V55.4676ZM44.5306 49.9998H25.3053H44.5306ZM49.9983 44.5321V25.3068V44.5321ZM55.4661 49.9998H74.6914H55.4661ZM49.9775 14.3714C40.5369 14.3816 31.4859 18.1364 24.8104 24.8119L51.9991 52.0006C51.4739 52.5258 50.7618 52.8212 50.0191 52.822L49.9775 14.3714ZM24.8104 24.8119C18.1349 31.4874 14.3801 40.5384 14.3699 49.979L52.8205 50.0206C52.8197 50.7633 52.5243 51.4754 51.9991 52.0006L24.8104 24.8119ZM14.3715 49.7468C13.9916 78.6134 47.3017 95.9578 70.7145 78.9842L48.1458 47.8538C48.6802 47.4664 49.406 47.2196 50.0936 47.1906C50.6929 47.1652 51.0968 47.3049 51.3394 47.4309C51.5821 47.5569 51.9256 47.8053 52.2463 48.3045C52.6146 48.8778 52.8273 49.6042 52.8188 50.2529L14.3715 49.7468ZM70.0779 79.4264C72.3685 77.9028 74.3307 75.9355 75.8485 73.6407L43.7779 52.4292C45.0942 50.439 46.7959 48.733 48.7824 47.4116L70.0779 79.4264ZM75.8485 73.6407C77.3662 71.3459 78.4087 68.7704 78.9144 66.0661L41.119 58.9982C41.5576 56.6529 42.4617 54.4193 43.7779 52.4292L75.8485 73.6407ZM78.9144 66.0661C79.4202 63.3617 79.3788 60.5834 78.7929 57.8954L41.2244 66.0841C40.7163 63.7529 40.6804 61.3435 41.119 58.9982L78.9144 66.0661ZM78.7929 57.8954C78.207 55.2074 77.0884 52.6639 75.5031 50.4154L44.0774 72.5711C42.7026 70.621 41.7325 68.4153 41.2244 66.0841L78.7929 57.8954ZM75.5031 50.4154C73.9179 48.1669 71.8982 46.2588 69.5631 44.8038L49.2289 77.4376C47.2038 76.1758 45.4522 74.521 44.0774 72.5711L75.5031 50.4154ZM69.5631 44.8038C67.2281 43.3488 64.6252 42.3766 61.9082 41.9443L55.8675 79.9175C53.5112 79.5426 51.2539 78.6994 49.2289 77.4376L69.5631 44.8038ZM61.9082 41.9443C59.1912 41.5121 56.4151 41.6287 53.7438 42.2873L62.948 79.62C60.6313 80.1912 58.2238 80.2923 55.8675 79.9175L61.9082 41.9443ZM53.7438 42.2873C51.0726 42.9459 48.5604 44.1331 46.3557 45.7787L69.3552 76.5922C67.4432 78.0193 65.2646 79.0489 62.948 79.62L53.7438 42.2873ZM46.5737 45.6184C48.8176 43.9922 51.3151 44.3504 52.5969 45.0161C53.8802 45.6826 55.5871 47.5061 55.5528 50.2408L17.1053 49.7589C16.7711 76.4191 47.4804 92.4476 69.1372 76.7525L46.5737 45.6184ZM55.5379 50.7948C55.524 51.1296 55.1932 52.7341 53.6126 54.1446C52.2947 55.3206 50.9277 55.6265 49.9979 55.6264C49.0682 55.6263 47.7016 55.3203 46.3843 54.1445C44.8041 52.7341 44.4726 51.1292 44.4587 50.7921L82.8766 49.2076C81.1155 6.50638 18.8878 6.49162 17.1202 49.2049L55.5379 50.7948ZM44.4423 49.9998V52.7337H82.8929V49.9998H44.4423ZM44.4423 52.7337C44.4423 48.3599 46.1798 44.1652 49.2726 41.0725L76.4613 68.2612C80.5794 64.143 82.8929 58.5576 82.8929 52.7337H44.4423ZM49.2726 41.0725C52.3653 37.9798 56.56 36.2423 60.9338 36.2423V74.6929C66.7577 74.6929 72.3431 72.3793 76.4613 68.2612L49.2726 41.0725ZM60.9338 36.2423C65.3076 36.2423 69.5023 37.9798 72.595 41.0725L45.4063 68.2612C49.5244 72.3793 55.1098 74.6929 60.9338 74.6929V36.2423ZM72.595 41.0725C75.6877 44.1652 77.4252 48.3599 77.4252 52.7337H38.9746C38.9746 58.5576 41.2882 64.143 45.4063 68.2612L72.595 41.0725ZM77.4252 52.7337V49.9998H38.9746V52.7337H77.4252ZM77.4155 49.3891C76.2827 13.7447 23.7105 13.7185 22.5811 49.3915L61.0124 50.6082C60.9404 52.8831 59.8607 55.9378 57.2151 58.285C54.8594 60.375 52.1808 61.0968 49.9986 61.0969C47.8165 61.097 45.1377 60.3753 42.7818 58.2855C40.1361 55.9386 39.0566 52.8844 38.9843 50.6106L77.4155 49.3891ZM22.5723 50.1838C22.6254 55.7313 24.3582 61.1325 27.5422 65.6756L59.0295 43.6076C60.3055 45.4282 60.9999 47.5927 61.0212 49.8158L22.5723 50.1838ZM27.5422 65.6756C30.7262 70.2187 35.2121 73.6904 40.4085 75.6331L53.8734 39.6172C55.9559 40.3957 57.7536 41.787 59.0295 43.6076L27.5422 65.6756ZM40.4085 75.6331C45.605 77.5758 51.2682 77.8985 56.6516 76.5584L47.3641 39.2464C49.5215 38.7094 51.791 38.8387 53.8734 39.6172L40.4085 75.6331ZM56.6516 76.5584C62.0351 75.2184 66.8862 72.2786 70.5656 68.1266L41.7882 42.6254C43.2626 40.9615 45.2067 39.7834 47.3641 39.2464L56.6516 76.5584ZM39.45 64.8534C42.1279 69.5798 46.2898 73.2913 51.2907 75.4127L66.3067 40.0155C69.093 41.1974 71.4118 43.2652 72.9038 45.8985L39.45 64.8534ZM51.2907 75.4127C56.2917 77.5342 61.8527 77.9474 67.1123 76.5882L57.4919 39.3606C60.4222 38.6033 63.5205 38.8335 66.3067 40.0155L51.2907 75.4127ZM67.1123 76.5882C72.3719 75.229 77.0365 72.1733 80.3835 67.8945L50.0979 44.2042C51.9627 41.8203 54.5615 40.1178 57.4919 39.3606L67.1123 76.5882ZM80.3835 67.8945C83.7305 63.6157 85.5731 58.3526 85.6259 52.9205L47.1771 52.5469C47.2065 49.5204 48.2331 46.5881 50.0979 44.2042L80.3835 67.8945ZM85.6268 52.7337V49.9998H47.1762V52.7337H85.6268ZM85.6268 49.979C85.6166 40.5385 81.8618 31.4874 75.1863 24.8119L47.9976 52.0006C47.4724 51.4754 47.177 50.7633 47.1762 50.0206L85.6268 49.979ZM75.1863 24.8119C68.5108 18.1364 59.4597 14.3816 50.0191 14.3714L49.9775 52.822C49.2348 52.8212 48.5228 52.5258 47.9976 52.0006L75.1863 24.8119ZM49.9983 36.2423C53.6471 36.2423 57.1464 37.6917 59.7264 40.2718L32.5377 67.4604C37.1686 72.0913 43.4494 74.6929 49.9983 74.6929V36.2423ZM59.7264 40.2718C62.3065 42.8518 63.7559 46.3511 63.7559 49.9998H25.3053C25.3053 56.5488 27.9069 62.8296 32.5377 67.4604L59.7264 40.2718ZM63.7559 49.9998C63.7559 53.6486 62.3065 57.1479 59.7264 59.7279L32.5377 32.5392C27.9069 37.1701 25.3053 43.4509 25.3053 49.9998H63.7559ZM59.7264 59.7279C57.1464 62.308 53.6471 63.7574 49.9983 63.7574V25.3068C43.4494 25.3068 37.1686 27.9084 32.5377 32.5392L59.7264 59.7279ZM49.9983 63.7574C46.3496 63.7574 42.8503 62.308 40.2703 59.7279L67.4589 32.5392C62.8281 27.9084 56.5473 25.3068 49.9983 25.3068V63.7574ZM40.2703 59.7279C37.6902 57.1479 36.2408 53.6486 36.2408 49.9998H74.6914C74.6914 43.4509 72.0898 37.1701 67.4589 32.5392L40.2703 59.7279ZM36.2408 49.9998C36.2408 46.3511 37.6902 42.8518 40.2703 40.2718L67.4589 67.4604C72.0898 62.8296 74.6914 56.5488 74.6914 49.9998H36.2408ZM40.2703 40.2718C42.8503 37.6917 46.3496 36.2423 49.9983 36.2423V74.6929C56.5473 74.6929 62.8281 72.0913 67.4589 67.4604L40.2703 40.2718Z" fill="#CBDB43" mask="url(#path-1-inside-1_1350_744)"/>
<circle cx="50" cy="50" r="48.5" stroke="#CBDB43" stroke-width="3"/>
</svg>
