<svg width="100" height="100" viewBox="0 0 100 100" fill="none" xmlns="http://www.w3.org/2000/svg">
<circle cx="50" cy="50" r="48.5" stroke="#CBDB43" stroke-width="3"/>
<mask id="path-2-inside-1_1350_740" fill="white">
<path fill-rule="evenodd" clip-rule="evenodd" d="M61.5694 38.3645C58.4992 35.2917 54.4176 33.598 50.0694 33.5967C41.1091 33.5967 33.8166 40.8879 33.8125 49.8522C33.8111 52.7173 34.5602 55.514 35.9832 57.98L33.6758 66.403L42.2929 64.1421C44.6673 65.438 47.341 66.12 50.0612 66.1214H50.068C59.0269 66.1214 66.3208 58.8288 66.3249 49.8645C66.3276 45.5218 64.6381 41.436 61.5694 38.3645ZM50.0694 63.3753H50.0639C47.639 63.3753 45.2619 62.7232 43.1869 61.4916L42.6934 61.1991L37.5797 62.5401L38.9453 57.5535L38.6241 57.0423C37.2708 54.8907 36.5573 52.4043 36.5586 49.8522C36.5614 42.4024 42.6237 36.3415 50.0762 36.3415C53.6849 36.3415 57.0776 37.7494 59.6283 40.3028C62.179 42.8576 63.5828 46.2517 63.5815 49.8618C63.5774 57.3143 57.5164 63.3753 50.0694 63.3753ZM57.4809 53.2559C57.0749 53.0522 55.0778 52.0694 54.7046 51.934C54.3328 51.7987 54.0622 51.7304 53.7902 52.1364C53.5181 52.5423 52.7417 53.4582 52.5039 53.7302C52.2674 54.0008 52.0296 54.035 51.6236 53.8313C51.2176 53.6277 49.9081 53.1998 48.3566 51.8151C47.1496 50.738 46.3336 49.408 46.0971 49.0006C45.8606 48.5933 46.0725 48.3746 46.2748 48.1723C46.4579 47.9905 46.6808 47.6979 46.8844 47.4601C47.0895 47.225 47.1564 47.0555 47.2931 46.7835C47.4285 46.5128 47.3615 46.275 47.259 46.0713C47.1564 45.869 46.3445 43.8692 46.0069 43.0558C45.6774 42.263 45.3425 42.371 45.0924 42.3587C44.8559 42.3464 44.5853 42.345 44.3132 42.345C44.0426 42.345 43.6024 42.4462 43.2306 42.8535C42.8588 43.2609 41.809 44.2437 41.809 46.2422C41.809 48.242 43.2648 50.1734 43.4671 50.4441C43.6694 50.7147 46.3308 54.8183 50.4056 56.5775C51.3748 56.9958 52.1321 57.2459 52.7212 57.4332C53.6945 57.7421 54.5802 57.6984 55.2801 57.5945C56.0606 57.4783 57.6832 56.6117 58.0222 55.663C58.3612 54.7144 58.3612 53.8997 58.2587 53.7316C58.1575 53.5607 57.8869 53.4595 57.4809 53.2559Z"/>
</mask>
<path fill-rule="evenodd" clip-rule="evenodd" d="M61.5694 38.3645C58.4992 35.2917 54.4176 33.598 50.0694 33.5967C41.1091 33.5967 33.8166 40.8879 33.8125 49.8522C33.8111 52.7173 34.5602 55.514 35.9832 57.98L33.6758 66.403L42.2929 64.1421C44.6673 65.438 47.341 66.12 50.0612 66.1214H50.068C59.0269 66.1214 66.3208 58.8288 66.3249 49.8645C66.3276 45.5218 64.6381 41.436 61.5694 38.3645ZM50.0694 63.3753H50.0639C47.639 63.3753 45.2619 62.7232 43.1869 61.4916L42.6934 61.1991L37.5797 62.5401L38.9453 57.5535L38.6241 57.0423C37.2708 54.8907 36.5573 52.4043 36.5586 49.8522C36.5614 42.4024 42.6237 36.3415 50.0762 36.3415C53.6849 36.3415 57.0776 37.7494 59.6283 40.3028C62.179 42.8576 63.5828 46.2517 63.5815 49.8618C63.5774 57.3143 57.5164 63.3753 50.0694 63.3753ZM57.4809 53.2559C57.0749 53.0522 55.0778 52.0694 54.7046 51.934C54.3328 51.7987 54.0622 51.7304 53.7902 52.1364C53.5181 52.5423 52.7417 53.4582 52.5039 53.7302C52.2674 54.0008 52.0296 54.035 51.6236 53.8313C51.2176 53.6277 49.9081 53.1998 48.3566 51.8151C47.1496 50.738 46.3336 49.408 46.0971 49.0006C45.8606 48.5933 46.0725 48.3746 46.2748 48.1723C46.4579 47.9905 46.6808 47.6979 46.8844 47.4601C47.0895 47.225 47.1564 47.0555 47.2931 46.7835C47.4285 46.5128 47.3615 46.275 47.259 46.0713C47.1564 45.869 46.3445 43.8692 46.0069 43.0558C45.6774 42.263 45.3425 42.371 45.0924 42.3587C44.8559 42.3464 44.5853 42.345 44.3132 42.345C44.0426 42.345 43.6024 42.4462 43.2306 42.8535C42.8588 43.2609 41.809 44.2437 41.809 46.2422C41.809 48.242 43.2648 50.1734 43.4671 50.4441C43.6694 50.7147 46.3308 54.8183 50.4056 56.5775C51.3748 56.9958 52.1321 57.2459 52.7212 57.4332C53.6945 57.7421 54.5802 57.6984 55.2801 57.5945C56.0606 57.4783 57.6832 56.6117 58.0222 55.663C58.3612 54.7144 58.3612 53.8997 58.2587 53.7316C58.1575 53.5607 57.8869 53.4595 57.4809 53.2559Z" fill="white"/>
<path d="M61.5694 38.3645L75.1697 24.7762V24.7762L61.5694 38.3645ZM50.0694 33.5967L50.0754 14.3714H50.0694V33.5967ZM33.8125 49.8522L53.0378 49.8614V49.861L33.8125 49.8522ZM35.9832 57.98L54.5253 63.0594L56.6452 55.3207L52.6349 48.3711L35.9832 57.98ZM33.6758 66.403L15.1336 61.3236L6.33212 93.4533L38.5548 84.9989L33.6758 66.403ZM42.2929 64.1421L51.5031 47.2665L44.8001 43.6083L37.4139 45.5462L42.2929 64.1421ZM50.0612 66.1214L50.0515 85.3467H50.0612V66.1214ZM66.3249 49.8645L47.0996 49.8524L47.0996 49.8557L66.3249 49.8645ZM43.1869 61.4916L52.9996 44.9592L52.9905 44.9537L43.1869 61.4916ZM42.6934 61.1991L52.497 44.6612L45.587 40.565L37.8169 42.6026L42.6934 61.1991ZM37.5797 62.5401L19.0372 57.4622L10.2405 89.5845L42.4563 81.1366L37.5797 62.5401ZM38.9453 57.5535L57.4879 62.6314L59.72 54.4806L55.2238 47.325L38.9453 57.5535ZM38.6241 57.0423L54.9026 46.8138L54.898 46.8065L38.6241 57.0423ZM36.5586 49.8522L55.7839 49.8625L55.7839 49.8593L36.5586 49.8522ZM59.6283 40.3028L73.2336 26.7194L73.2299 26.7158L59.6283 40.3028ZM63.5815 49.8618L82.8068 49.8724L82.8068 49.8691L63.5815 49.8618ZM54.7046 51.934L48.1292 69.9999L48.1398 70.0038L48.1505 70.0076L54.7046 51.934ZM52.5039 53.7302L38.0309 41.0754L38.0263 41.0806L52.5039 53.7302ZM48.3566 51.8151L61.1582 37.4718L61.1574 37.4711L48.3566 51.8151ZM46.2748 48.1723L32.7315 34.5271L32.7059 34.5525L32.6804 34.5779L46.2748 48.1723ZM46.8844 47.4601L32.3951 34.824L32.338 34.8894L32.2816 34.9553L46.8844 47.4601ZM47.2931 46.7835L64.4715 55.4158L64.4801 55.3985L64.4888 55.3813L47.2931 46.7835ZM47.259 46.0713L64.4315 37.4274L64.4198 37.4041L64.408 37.3809L47.259 46.0713ZM46.0069 43.0558L63.763 35.6848L63.7605 35.6789L46.0069 43.0558ZM45.0924 42.3587L44.0936 61.558L44.1208 61.5595L44.148 61.5608L45.0924 42.3587ZM50.4056 56.5775L42.7853 74.2281L42.7874 74.229L50.4056 56.5775ZM52.7212 57.4332L46.8973 75.7552L46.9048 75.7575L52.7212 57.4332ZM55.2801 57.5945L58.1029 76.6114L58.1108 76.6103L55.2801 57.5945ZM58.2587 53.7316L41.715 63.5254L41.7789 63.6333L41.8442 63.7404L58.2587 53.7316ZM75.1697 24.7762C68.4956 18.0962 59.524 14.3744 50.0754 14.3714L50.0633 52.822C49.7288 52.8219 49.3346 52.7537 48.9343 52.5877C48.5341 52.4217 48.2066 52.1907 47.969 51.9528L75.1697 24.7762ZM50.0694 14.3714C30.4886 14.3714 14.5961 30.2709 14.5872 49.8434L53.0378 49.861C53.037 51.5049 51.7297 52.822 50.0694 52.822V14.3714ZM14.5872 49.843C14.5842 56.0769 16.2171 62.192 19.3314 67.5889L52.6349 48.3711C52.9033 48.8361 53.038 49.3577 53.0378 49.8614L14.5872 49.843ZM17.441 52.9006L15.1336 61.3236L52.2179 71.4824L54.5253 63.0594L17.441 52.9006ZM38.5548 84.9989L47.172 82.738L37.4139 45.5462L28.7967 47.8071L38.5548 84.9989ZM33.0828 81.0177C38.2904 83.8599 44.129 85.3437 50.0515 85.3467L50.0708 46.8961C50.5529 46.8964 51.0441 47.016 51.5031 47.2665L33.0828 81.0177ZM50.0612 85.3467H50.068V46.8961H50.0612V85.3467ZM50.068 85.3467C69.6485 85.3467 85.5413 69.4448 85.5502 49.8733L47.0996 49.8557C47.1004 48.2129 48.4052 46.8961 50.068 46.8961V85.3467ZM85.5502 49.8766C85.5561 40.4352 81.8442 31.4567 75.1697 24.7762L47.969 51.9528C47.728 51.7116 47.4975 51.383 47.3328 50.9846C47.168 50.5862 47.0994 50.1916 47.0996 49.8524L85.5502 49.8766ZM50.0694 44.15H50.0639V82.6005H50.0694V44.15ZM50.0639 44.15C51.082 44.15 52.096 44.4228 52.9996 44.9592L33.3741 78.0241C38.4278 81.0236 44.196 82.6005 50.0639 82.6005V44.15ZM52.9905 44.9537L52.497 44.6612L32.8898 77.737L33.3833 78.0295L52.9905 44.9537ZM37.8169 42.6026L32.7032 43.9435L42.4563 81.1366L47.57 79.7956L37.8169 42.6026ZM56.1223 67.6179L57.4879 62.6314L20.4027 52.4756L19.0372 57.4622L56.1223 67.6179ZM55.2238 47.325L54.9026 46.8138L22.3456 67.2708L22.6668 67.782L55.2238 47.325ZM54.898 46.8065C55.4862 47.7416 55.7845 48.8105 55.7839 49.8625L17.3333 49.8419C17.33 55.998 19.0554 62.0398 22.3502 67.2781L54.898 46.8065ZM55.7839 49.8593C55.7828 53.0255 53.2378 55.5668 50.0762 55.5668V17.1162C32.0096 17.1162 17.34 31.7794 17.3333 49.8452L55.7839 49.8593ZM50.0762 55.5668C48.5764 55.5668 47.0778 54.9421 46.0267 53.8899L73.2299 26.7158C67.0775 20.5568 58.7934 17.1162 50.0762 17.1162V55.5668ZM46.0231 53.8863C44.974 52.8355 44.3556 51.3417 44.3562 49.8545L82.8068 49.8691C82.8101 41.1618 79.384 32.8797 73.2336 26.7194L46.0231 53.8863ZM44.3562 49.8512C44.3579 46.7012 46.8915 44.15 50.0694 44.15V82.6005C68.1413 82.6005 82.7968 67.9273 82.8068 49.8724L44.3562 49.8512ZM66.1018 36.0718C65.7956 35.9182 65.1057 35.578 64.4395 35.2564C64.3883 35.2317 62.6229 34.3551 61.2588 33.8604L48.1505 70.0076C47.9422 69.9321 47.775 69.8672 47.6665 69.8242C47.5531 69.7793 47.4609 69.7414 47.3965 69.7145C47.2719 69.6626 47.184 69.624 47.1502 69.6091C47.0842 69.58 47.0714 69.5734 47.136 69.6034C47.2586 69.6604 47.4599 69.756 47.7214 69.8823C47.9718 70.0032 48.2308 70.1296 48.4509 70.2378C48.56 70.2914 48.6553 70.3384 48.7306 70.3756C48.7681 70.3942 48.7989 70.4095 48.8226 70.4213C48.8344 70.4271 48.8436 70.4317 48.8503 70.4351C48.8573 70.4386 48.8603 70.4401 48.8599 70.4399L66.1018 36.0718ZM61.2801 33.8682C61.1182 33.8092 60.101 33.4296 58.8079 33.1282C57.4485 32.8113 55.037 32.391 52.0506 32.7286C44.6192 33.5686 40.0273 38.1385 37.8186 41.4349L69.7617 62.8378C68.9107 64.1079 67.4131 65.9909 65.015 67.6683C62.4308 69.4759 59.4503 70.5876 56.3693 70.9359C53.5311 71.2567 51.274 70.8535 50.0784 70.5748C49.4548 70.4294 48.9644 70.2798 48.6713 70.1853C48.3817 70.092 48.1695 70.0146 48.1292 69.9999L61.2801 33.8682ZM37.8186 41.4349C37.9215 41.2813 38.0078 41.158 38.0686 41.0726C38.1309 40.985 38.1822 40.9151 38.2184 40.8662C38.2881 40.7721 38.3342 40.7128 38.3457 40.698C38.3601 40.6796 38.361 40.6788 38.3459 40.6975C38.3318 40.7151 38.3103 40.7415 38.2817 40.7763C38.2227 40.8481 38.1566 40.9272 38.0962 40.9985C38.0671 41.0329 38.0438 41.0601 38.0284 41.078C38.0105 41.0989 38.0121 41.0969 38.0309 41.0754L66.9769 66.385C67.0401 66.3127 68.6782 64.4549 69.7617 62.8378L37.8186 41.4349ZM38.0263 41.0806C39.7578 39.0989 43.6258 35.622 49.8174 34.8726C55.2251 34.2181 59.1657 36.1061 60.2445 36.6473L43.0026 71.0154C44.4874 71.7603 48.75 73.733 54.4372 73.0447C60.9084 72.2615 65.0135 68.6322 66.9814 66.3798L38.0263 41.0806ZM60.2445 36.6473C59.917 36.483 59.6446 36.3574 59.4885 36.2865C59.3259 36.2126 59.1878 36.1521 59.1182 36.1218C59.0796 36.105 59.0442 36.0896 59.0212 36.0796C58.9928 36.0673 58.9816 36.0624 58.9654 36.0554C58.9387 36.0438 58.9369 36.043 58.9449 36.0465C59.0002 36.071 59.208 36.1644 59.4763 36.3077C60.0454 36.6116 60.6315 37.0017 61.1582 37.4718L35.555 66.1585C37.6332 68.0132 39.6498 69.3096 41.363 70.2246C42.2034 70.6734 42.9117 70.9985 43.3751 71.2037C43.5319 71.2731 43.8107 71.3941 43.7423 71.3643C43.7421 71.3642 43.7274 71.3577 43.7038 71.3473C43.6803 71.3369 43.639 71.3185 43.5855 71.2942C43.494 71.2527 43.2794 71.1543 43.0026 71.0154L60.2445 36.6473ZM61.1574 37.4711C61.8132 38.0563 62.1728 38.5263 62.3016 38.6999C62.4598 38.913 62.5899 39.1178 62.7237 39.3483L29.4705 58.653C30.0462 59.6447 32.0762 63.0539 35.5558 66.1592L61.1574 37.4711ZM62.7237 39.3483C63.6533 40.9496 64.6897 43.3067 65.0702 46.3172C65.4692 49.4744 65.0403 52.5249 64.0399 55.2136C62.3845 59.6629 59.2266 62.4091 59.8691 61.7666L32.6804 34.5779C32.6595 34.5989 32.4579 34.7993 32.2244 35.0465C31.9788 35.3064 31.5969 35.7232 31.164 36.26C30.3233 37.3024 28.9846 39.1668 28.0028 41.8055C25.5642 48.3599 27.0729 54.523 29.4705 58.653L62.7237 39.3483ZM59.8181 61.8174C60.282 61.357 60.6437 60.9548 60.8605 60.7081C61.087 60.4503 61.2723 60.2282 61.3758 60.1033C61.4311 60.0366 61.48 59.977 61.5117 59.9384C61.5535 59.8874 61.5595 59.8801 61.5784 59.8572C61.6103 59.8183 61.5645 59.8747 61.4873 59.9648L32.2816 34.9553C32.1026 35.1644 31.9525 35.3466 31.8797 35.4351C31.8462 35.4759 31.7996 35.5327 31.7889 35.5457C31.7682 35.5709 31.7648 35.575 31.768 35.5711C31.7719 35.5664 31.7926 35.5414 31.8246 35.5036C31.8565 35.466 31.9087 35.4049 31.9768 35.3274C32.0443 35.2505 32.1398 35.1436 32.2584 35.0158C32.3759 34.8894 32.5354 34.7216 32.7315 34.5271L59.8181 61.8174ZM61.3738 60.0962C62.4048 58.9139 63.2187 57.7208 63.8729 56.5572C64.144 56.0749 64.3427 55.6763 64.4202 55.5203C64.4418 55.4768 64.4603 55.4393 64.4719 55.4156C64.4778 55.4037 64.4833 55.3924 64.4869 55.385C64.4911 55.3765 64.4933 55.3721 64.4954 55.3679C64.5038 55.3508 64.4914 55.3762 64.4715 55.4158L30.1148 38.1511C30.0608 38.2587 30.0163 38.3489 29.9941 38.394C29.9608 38.4618 29.9744 38.4341 29.9807 38.4214C30.0007 38.3811 30.1443 38.0905 30.3559 37.7141C30.5871 37.303 30.8879 36.8079 31.2665 36.2672C31.6434 35.7288 32.0255 35.2478 32.3951 34.824L61.3738 60.0962ZM64.4888 55.3813C68.5392 47.2805 65.7741 40.0947 64.4315 37.4274L30.0865 54.7152C29.598 53.7449 28.5758 51.5164 28.248 48.4377C27.886 45.0377 28.461 41.4587 30.0975 38.1856L64.4888 55.3813ZM64.408 37.3809C64.5327 37.6271 64.624 37.821 64.6641 37.9066C64.7118 38.0087 64.7482 38.0891 64.7688 38.1351C64.8093 38.2252 64.8352 38.2853 64.8385 38.2928C64.8465 38.3113 64.836 38.2873 64.7989 38.1987C64.7281 38.0299 64.626 37.7829 64.4996 37.4758C64.2772 36.9355 63.944 36.1209 63.763 35.6848L28.2507 50.4269C28.4073 50.8041 28.6489 51.396 28.9426 52.1096C29.0742 52.4294 29.2153 52.7711 29.3362 53.0596C29.3949 53.1997 29.4674 53.3714 29.5407 53.5412C29.5766 53.6243 29.6308 53.7489 29.6946 53.8909C29.7253 53.9592 29.888 54.3237 30.1099 54.7617L64.408 37.3809ZM63.7605 35.6789C62.7574 33.2646 60.069 28.0197 53.7197 25.0256C50.6835 23.5939 47.9633 23.2549 46.3634 23.1658C45.6597 23.1266 45.078 23.1347 45.0607 23.1348C44.8415 23.1363 45.4138 23.126 46.0367 23.1566L44.148 61.5608C44.8335 61.5945 45.471 61.5835 45.3193 61.5845C45.3184 61.5845 45.3095 61.5846 45.2971 61.5847C45.2843 61.5847 45.2648 61.5848 45.2407 61.5848C45.1931 61.5849 45.1193 61.5848 45.0282 61.5838C44.848 61.5818 44.5685 61.576 44.2255 61.5569C42.7691 61.4758 40.2001 61.1616 37.3201 59.8035C31.2832 56.9568 28.9269 52.0542 28.2532 50.4328L63.7605 35.6789ZM46.0912 23.1594C45.2903 23.1177 44.5521 23.1197 44.3132 23.1197V61.5703C44.367 61.5703 44.401 61.5704 44.425 61.5705C44.4486 61.5706 44.4518 61.5707 44.4408 61.5706C44.43 61.5704 44.3949 61.5699 44.3412 61.5683C44.2882 61.5667 44.2033 61.5637 44.0936 61.558L46.0912 23.1594ZM44.3132 23.1197C39.6488 23.1197 33.6744 24.8054 29.031 29.8928L57.4303 55.8143C53.5304 60.087 48.4363 61.5703 44.3132 61.5703V23.1197ZM29.031 29.8928C29.4103 29.4771 27.2684 31.6173 25.6445 34.4895C23.8467 37.6696 22.5837 41.6484 22.5837 46.2422H61.0343C61.0343 48.8375 60.2963 51.3256 59.1162 53.4128C58.1103 55.1922 56.6791 56.6373 57.4303 55.8143L29.031 29.8928ZM22.5837 46.2422C22.5837 51.5679 24.4064 55.6988 25.4196 57.6947C26.0104 58.8584 26.5993 59.8193 27.0675 60.5302C27.3066 60.8932 27.5243 61.206 27.7071 61.4614C27.7987 61.5893 27.8798 61.7003 27.947 61.7913C27.9803 61.8364 28.0089 61.875 28.0312 61.9048C28.0495 61.9294 28.0719 61.9593 28.0682 61.9544L58.866 38.9338C58.8421 38.9018 58.9019 38.9815 58.9684 39.0743C59.0329 39.1644 59.1037 39.2663 59.1778 39.379C59.3162 39.5891 59.5032 39.8914 59.7048 40.2885C59.8982 40.6694 60.1942 41.3116 60.4576 42.1915C60.7164 43.0562 61.0343 44.4511 61.0343 46.2422H22.5837ZM28.0682 61.9544C27.5271 61.2304 29.2909 63.79 31.4605 66.1036C33.5913 68.3758 37.3809 71.8948 42.7853 74.2281L58.026 38.9269C58.4122 39.0937 58.7101 39.257 58.921 39.385C59.1318 39.5129 59.2791 39.6199 59.3664 39.6871C59.5254 39.8096 59.5631 39.8606 59.5078 39.8016C59.4615 39.7521 59.4126 39.6925 59.3793 39.6486C59.3672 39.6326 59.36 39.6226 59.3533 39.613C59.3466 39.6036 59.3411 39.5958 59.3074 39.5473C59.2979 39.5338 59.2563 39.474 59.213 39.4125C59.1893 39.3788 59.1499 39.323 59.1018 39.2559C59.0587 39.1958 58.9741 39.0784 58.866 38.9338L28.0682 61.9544ZM42.7874 74.229C44.5947 75.009 46.0329 75.4804 46.8973 75.7552L58.5451 39.1113C58.3456 39.0478 58.2701 39.0219 58.2159 39.0024C58.1683 38.9853 58.1089 38.9627 58.0239 38.926L42.7874 74.229ZM46.9048 75.7575C51.7037 77.2808 55.8203 76.9503 58.1029 76.6114L52.4573 38.5776C53.3402 38.4465 55.6852 38.2035 58.5377 39.1089L46.9048 75.7575ZM58.1108 76.6103C62.1138 76.0144 65.3075 74.3344 67.1927 73.1258C68.62 72.2108 73.7306 68.8364 76.1263 62.1325L39.9181 49.1936C41.0894 45.9157 42.896 43.8456 43.8246 42.8974C44.8594 41.8406 45.8113 41.1595 46.4407 40.756C47.1016 40.3324 47.7926 39.9685 48.5344 39.6564C49.1174 39.4111 50.496 38.8695 52.4494 38.5787L58.1108 76.6103ZM76.1263 62.1325C76.8598 60.0798 77.2913 58.0174 77.4604 56.054C77.5431 55.0933 77.5893 53.8557 77.4776 52.449C77.4519 52.1257 77.2664 47.9757 74.6731 43.7227L41.8442 63.7404C40.2945 61.1989 39.7356 58.924 39.5455 58.0884C39.2944 56.9846 39.1938 56.0739 39.1477 55.4928C39.0542 54.3157 39.0984 53.3727 39.1516 52.7552C39.2615 51.4784 39.5236 50.2976 39.9181 49.1936L76.1263 62.1325ZM74.8023 43.9377C73.2722 41.353 71.4518 39.6319 70.1495 38.5918C68.8942 37.5891 67.7781 36.9516 67.2516 36.6619C66.7092 36.3634 66.2349 36.1356 66.1545 36.0966C65.9542 35.9993 66.0542 36.048 66.1018 36.0718L48.8599 70.4399C49.0068 70.5136 49.1321 70.5749 49.2182 70.6168C49.2605 70.6373 49.2984 70.6557 49.3218 70.667C49.3506 70.6809 49.3575 70.6843 49.3644 70.6876C49.452 70.7302 49.1279 70.5765 48.7165 70.3501C48.3211 70.1326 47.317 69.5651 46.1535 68.6358C44.9432 67.6691 43.1945 66.0246 41.715 63.5254L74.8023 43.9377Z" fill="#CBDB43" mask="url(#path-2-inside-1_1350_740)"/>
</svg>
